<svg width="948" height="604" viewBox="0 0 948 604" fill="none" xmlns="http://www.w3.org/2000/svg">
<g clip-path="url(#clip0_13_189)">
<path d="M326.28 565.12L297.28 581.96L325.87 575.06C325.65 577.42 325.35 579.74 324.95 582.01C324.84 582.64 324.72 583.26 324.59 583.88C323.613 589.092 321.842 594.124 319.34 598.8C318.86 599.66 318.38 600.5 317.88 601.31C317.4 602.13 316.9 602.92 316.39 603.69H239.52C238.88 602.92 238.27 602.12 237.71 601.31C232.229 593.595 230.009 584.031 231.53 574.69C231.809 572.79 232.21 570.909 232.73 569.06C233.234 567.17 233.845 565.311 234.56 563.49C235.809 560.274 237.282 557.149 238.97 554.14C242.49 547.8 247.98 542.08 254.45 537C257.583 534.555 260.848 532.285 264.23 530.2C264.87 529.79 265.52 529.39 266.18 529C267.19 528.4 268.2 527.81 269.22 527.24C271.25 526.08 273.3 524.98 275.35 523.94C275.89 523.66 276.42 523.39 276.95 523.13C281.4 520.91 285.83 518.92 290.05 517.17C290.58 516.95 291.12 516.73 291.65 516.52C300.045 513.086 308.633 510.144 317.37 507.71C317.37 507.71 317.4 507.79 317.45 507.96C317.58 508.42 317.91 509.53 318.36 511.17C319.61 515.72 321.81 524.4 323.58 534.88C323.68 535.45 323.77 536.03 323.87 536.61C325.348 545.474 326.167 554.435 326.32 563.42C326.33 563.98 326.33 564.53 326.33 565.09L326.28 565.12Z" fill="#F2F2F2"/>
<path d="M319.49 506.69C319.48 506.72 319.38 507.21 319.15 508.11C318.96 508.86 318.7 509.89 318.36 511.17C317.19 515.64 315.11 523.13 312.15 532.15C311.98 532.67 311.8 533.21 311.62 533.75C309.56 539.92 307.11 546.74 304.28 553.75C303.57 555.51 302.86 557.24 302.13 558.93C301.91 559.46 301.69 559.98 301.46 560.49C298.36 567.67 295.17 574.24 291.89 580.2L291.06 581.69C287.248 588.604 282.834 595.17 277.87 601.31C277.2 602.13 276.52 602.92 275.83 603.69H273.51C274.21 602.92 274.91 602.12 275.59 601.31C280.839 594.957 285.483 588.128 289.46 580.91C289.74 580.42 290.02 579.93 290.29 579.43C293.82 573.02 297.03 566.32 299.9 559.68C300.13 559.17 300.35 558.65 300.57 558.12C304.32 549.34 307.47 540.71 310.01 533.11C310.19 532.57 310.37 532.03 310.54 531.5C314.24 520.28 316.56 511.48 317.45 507.96C317.57 507.44 317.67 507.03 317.74 506.75C317.81 506.49 317.84 506.34 317.85 506.31L318.66 506.5H318.67L319.49 506.69Z" fill="white"/>
<path d="M325.11 535.01C324.6 534.98 324.09 534.93 323.58 534.88C319.667 534.474 315.824 533.556 312.15 532.15C311.62 531.94 311.08 531.73 310.54 531.5C309.078 530.871 307.649 530.167 306.26 529.39C300.514 526.21 295.529 521.819 291.65 516.52C291.52 516.35 291.39 516.17 291.27 516C290.75 516.22 290.22 516.44 289.68 516.66C289.8 516.83 289.92 517 290.05 517.17C294.098 522.824 299.355 527.504 305.44 530.87C306.923 531.696 308.448 532.444 310.01 533.11C310.54 533.33 311.08 533.55 311.62 533.75C315.556 535.249 319.677 536.211 323.87 536.61C324.37 536.66 324.88 536.7 325.38 536.73C325.29 536.14 325.2 535.57 325.11 535.01Z" fill="white"/>
<path d="M326.32 563.42C317.997 564.18 309.626 562.626 302.13 558.93C301.6 558.68 301.08 558.41 300.57 558.12C300.408 558.047 300.251 557.963 300.1 557.87C293.753 554.342 288.341 549.349 284.314 543.306C280.287 537.263 277.763 530.346 276.95 523.13C276.93 522.96 276.91 522.78 276.89 522.61C276.35 522.89 275.81 523.16 275.28 523.44C275.3 523.61 275.32 523.77 275.35 523.94C276.274 531.308 278.923 538.354 283.08 544.507C287.238 550.659 292.788 555.745 299.28 559.35C299.48 559.46 299.69 559.58 299.9 559.68C300.42 559.96 300.94 560.23 301.46 560.49C309.157 564.266 317.74 565.867 326.28 565.12C326.73 565.08 327.18 565.03 327.63 564.98C327.63 564.41 327.64 563.85 327.64 563.28C327.2 563.33 326.76 563.38 326.32 563.42Z" fill="white"/>
<path d="M324.95 582.01C315.947 584.965 306.247 585.038 297.2 582.22C295.389 581.661 293.615 580.986 291.89 580.2C291.35 579.96 290.82 579.7 290.29 579.43C289.72 579.15 289.16 578.85 288.61 578.55C281.131 574.386 274.972 568.204 270.836 560.709C266.701 553.214 264.755 544.708 265.22 536.16C265.342 533.751 265.663 531.356 266.18 529C266.21 528.84 266.24 528.68 266.28 528.52C265.62 528.93 264.96 529.34 264.31 529.76C264.28 529.91 264.25 530.05 264.23 530.2C263.644 533.429 263.399 536.71 263.5 539.99C263.721 548.197 266.076 556.204 270.334 563.224C274.592 570.243 280.604 576.032 287.78 580.02C288.34 580.33 288.9 580.63 289.46 580.91C289.99 581.18 290.53 581.44 291.06 581.69C301.589 586.511 313.523 587.29 324.59 583.88C324.96 583.78 325.33 583.66 325.7 583.54C325.85 582.9 325.98 582.26 326.1 581.62C325.72 581.76 325.34 581.89 324.95 582.01Z" fill="white"/>
<path d="M256.25 246.52H200.25V302.52H256.25V246.52Z" fill="#9E616A"/>
<path d="M165.326 581.214L176.36 581.213L181.608 538.656L165.324 538.657L165.326 581.214Z" fill="#9E616A"/>
<path d="M195.61 593.65L179.03 582.2V574.73L177.15 574.84L165.33 575.55L161.59 575.77L159.46 601.31L159.39 602.16H167.22L167.38 601.31L168.62 594.77L171.79 601.31L172.2 602.16H192.96C194.196 602.158 195.381 601.666 196.256 600.793C197.131 599.92 197.625 598.736 197.63 597.5C197.631 596.743 197.447 595.996 197.095 595.326C196.743 594.655 196.234 594.08 195.61 593.65Z" fill="#2F2E41"/>
<path d="M229.853 574.209L240.457 577.258L257.265 537.81L241.615 533.309L229.853 574.209Z" fill="#9E616A"/>
<path d="M255.52 594.54L242.75 578.95L244.82 571.77L242.98 571.36L232.73 569.06L231.42 568.77L227.77 567.95L218.36 592.7L225.88 594.87L229.27 588.15L230.66 596.24L235.4 597.6L248.29 601.31L250.62 601.98C251.577 602.257 252.597 602.221 253.531 601.877C254.465 601.532 255.265 600.898 255.813 600.066C256.36 599.235 256.628 598.249 256.575 597.255C256.522 596.261 256.153 595.309 255.52 594.54Z" fill="#2F2E41"/>
<path d="M943.98 0H359.52C358.652 0.00264689 357.82 0.349385 357.207 0.964218C356.594 1.57905 356.25 2.41182 356.25 3.28V22.53C356.25 23.3982 356.594 24.231 357.207 24.8458C357.82 25.4606 358.652 25.8074 359.52 25.81H943.98C944.848 25.8075 945.68 25.4608 946.293 24.8459C946.906 24.231 947.25 23.3982 947.25 22.53V3.28C947.25 2.41179 946.906 1.57898 946.293 0.964127C945.68 0.349274 944.848 0.00255724 943.98 0Z" fill="#E4E4E4"/>
<path d="M375.249 16.6127C377.816 16.6127 379.897 14.5318 379.897 11.9649C379.897 9.39793 377.816 7.31702 375.249 7.31702C372.682 7.31702 370.601 9.39793 370.601 11.9649C370.601 14.5318 372.682 16.6127 375.249 16.6127Z" fill="white"/>
<path d="M392.89 16.6127C395.457 16.6127 397.538 14.5318 397.538 11.9649C397.538 9.39793 395.457 7.31702 392.89 7.31702C390.323 7.31702 388.243 9.39793 388.243 11.9649C388.243 14.5318 390.323 16.6127 392.89 16.6127Z" fill="white"/>
<path d="M410.533 16.6127C413.1 16.6127 415.181 14.5318 415.181 11.9649C415.181 9.39793 413.1 7.31702 410.533 7.31702C407.966 7.31702 405.885 9.39793 405.885 11.9649C405.885 14.5318 407.966 16.6127 410.533 16.6127Z" fill="white"/>
<path d="M926.69 5.76001H906.38C905.981 5.76001 905.598 5.91858 905.316 6.20082C905.033 6.48306 904.875 6.86586 904.875 7.26501C904.875 7.66417 905.033 8.04697 905.316 8.32921C905.598 8.61145 905.981 8.77002 906.38 8.77002H926.69C927.089 8.77002 927.472 8.61145 927.754 8.32921C928.036 8.04697 928.195 7.66417 928.195 7.26501C928.195 6.86586 928.036 6.48306 927.754 6.20082C927.472 5.91858 927.089 5.76001 926.69 5.76001Z" fill="white"/>
<path d="M926.69 11.4H906.38C906.182 11.4 905.987 11.439 905.804 11.5146C905.621 11.5902 905.455 11.7011 905.316 11.8408C905.176 11.9806 905.065 12.1465 904.99 12.3291C904.914 12.5117 904.875 12.7074 904.875 12.905C904.875 13.1027 904.914 13.2984 904.99 13.481C905.065 13.6636 905.176 13.8295 905.316 13.9692C905.455 14.109 905.621 14.2198 905.804 14.2955C905.987 14.3711 906.182 14.41 906.38 14.41H926.69C926.888 14.41 927.083 14.3711 927.266 14.2955C927.448 14.2198 927.614 14.109 927.754 13.9692C927.894 13.8295 928.005 13.6636 928.08 13.481C928.156 13.2984 928.195 13.1027 928.195 12.905C928.195 12.7074 928.156 12.5117 928.08 12.3291C928.005 12.1465 927.894 11.9806 927.754 11.8408C927.614 11.7011 927.448 11.5902 927.266 11.5146C927.083 11.439 926.888 11.4 926.69 11.4Z" fill="white"/>
<path d="M926.69 17.04H906.38C905.981 17.04 905.598 17.1986 905.316 17.4808C905.033 17.7631 904.875 18.1459 904.875 18.545C904.875 18.9442 905.033 19.327 905.316 19.6092C905.598 19.8915 905.981 20.05 906.38 20.05H926.69C927.089 20.05 927.472 19.8915 927.754 19.6092C928.036 19.327 928.195 18.9442 928.195 18.545C928.195 18.1459 928.036 17.7631 927.754 17.4808C927.472 17.1986 927.089 17.04 926.69 17.04Z" fill="white"/>
<path d="M924.38 81.49H772.95C771.895 81.4927 770.885 81.9128 770.139 82.6587C769.393 83.4045 768.973 84.4152 768.97 85.47V146.92C768.973 147.975 769.393 148.986 770.139 149.731C770.885 150.477 771.895 150.897 772.95 150.9H924.38C925.435 150.899 926.447 150.479 927.193 149.733C927.939 148.987 928.359 147.975 928.36 146.92V85.47C928.359 84.4147 927.939 83.403 927.193 82.6568C926.447 81.9107 925.435 81.491 924.38 81.49Z" fill="#E4E4E4"/>
<path d="M909.96 170.82H787.37C786.104 170.82 784.889 171.323 783.994 172.219C783.098 173.114 782.595 174.329 782.595 175.595C782.595 176.861 783.098 178.076 783.994 178.971C784.889 179.867 786.104 180.37 787.37 180.37H909.96C916.18 180.46 916.12 170.73 909.96 170.82Z" fill="#E4E4E4"/>
<path d="M909.96 192.71H787.37C786.104 192.71 784.889 193.213 783.994 194.109C783.098 195.004 782.595 196.219 782.595 197.485C782.595 198.751 783.098 199.966 783.994 200.861C784.889 201.757 786.104 202.26 787.37 202.26H909.96C916.18 202.35 916.12 192.62 909.96 192.71Z" fill="#E4E4E4"/>
<path d="M909.96 214.6H787.37C786.104 214.6 784.889 215.103 783.994 215.999C783.098 216.894 782.595 218.109 782.595 219.375C782.595 220.641 783.098 221.856 783.994 222.751C784.889 223.647 786.104 224.15 787.37 224.15H909.96C916.18 224.24 916.12 214.51 909.96 214.6Z" fill="#E4E4E4"/>
<path d="M725.38 81.49H573.95C572.895 81.4927 571.885 81.9128 571.139 82.6587C570.393 83.4045 569.973 84.4152 569.97 85.47V146.92C569.973 147.975 570.393 148.986 571.139 149.731C571.885 150.477 572.895 150.897 573.95 150.9H725.38C726.435 150.899 727.447 150.479 728.193 149.733C728.939 148.987 729.359 147.975 729.36 146.92V85.47C729.359 84.4147 728.939 83.403 728.193 82.6568C727.447 81.9107 726.435 81.491 725.38 81.49Z" fill="#E4E4E4"/>
<path d="M710.96 170.82H588.37C587.104 170.82 585.889 171.323 584.994 172.219C584.098 173.114 583.595 174.329 583.595 175.595C583.595 176.861 584.098 178.076 584.994 178.971C585.889 179.867 587.104 180.37 588.37 180.37H710.96C717.18 180.46 717.12 170.73 710.96 170.82Z" fill="#E4E4E4"/>
<path d="M710.96 192.71H588.37C587.104 192.71 585.889 193.213 584.994 194.109C584.098 195.004 583.595 196.219 583.595 197.485C583.595 198.751 584.098 199.966 584.994 200.861C585.889 201.757 587.104 202.26 588.37 202.26H710.96C717.18 202.35 717.12 192.62 710.96 192.71Z" fill="#E4E4E4"/>
<path d="M710.96 214.6H588.37C587.104 214.6 585.889 215.103 584.994 215.999C584.098 216.894 583.595 218.109 583.595 219.375C583.595 220.641 584.098 221.856 584.994 222.751C585.889 223.647 587.104 224.15 588.37 224.15H710.96C717.18 224.24 717.12 214.51 710.96 214.6Z" fill="#E4E4E4"/>
<path d="M345.668 197.707C345.475 198.276 345.333 198.861 345.245 199.455L283.24 188.495L229.833 159.696C226.473 157.884 222.551 157.413 218.859 158.379C215.166 159.345 211.977 161.676 209.935 164.901C207.892 168.125 207.149 172.005 207.855 175.756C208.56 179.507 210.662 182.851 213.736 185.114C223.698 192.446 234.743 198.18 246.472 202.109L285.192 215.079L353.013 210.732C354.896 211.138 356.857 210.991 358.659 210.309C360.461 209.628 362.028 208.44 363.17 206.888C364.313 205.337 364.983 203.489 365.1 201.566C365.217 199.643 364.775 197.727 363.829 196.048C362.883 194.37 361.471 193.001 359.765 192.106C358.059 191.211 356.131 190.828 354.212 191.004C352.293 191.179 350.466 191.905 348.95 193.094C347.434 194.283 346.295 195.885 345.668 197.707Z" fill="#9E616A"/>
<path d="M498.18 197.9H305.16C303.813 197.902 302.522 198.438 301.57 199.39C300.618 200.342 300.082 201.633 300.08 202.98V281.29C300.082 282.637 300.618 283.928 301.57 284.88C302.522 285.832 303.813 286.368 305.16 286.37H498.18C499.525 286.366 500.814 285.829 501.764 284.877C502.714 283.925 503.249 282.635 503.25 281.29V202.98C503.249 201.635 502.714 200.345 501.764 199.393C500.814 198.441 499.525 197.904 498.18 197.9Z" fill="#E4E4E4"/>
<path d="M479.8 311.76H323.54C321.925 311.76 320.376 312.402 319.234 313.544C318.092 314.686 317.45 316.235 317.45 317.85C317.45 319.465 318.092 321.014 319.234 322.156C320.376 323.298 321.925 323.94 323.54 323.94H479.8C487.73 324.05 487.65 311.65 479.8 311.76Z" fill="#E4E4E4"/>
<path d="M479.8 339.66H323.54C321.925 339.66 320.376 340.302 319.234 341.444C318.092 342.586 317.45 344.135 317.45 345.75C317.45 347.365 318.092 348.914 319.234 350.056C320.376 351.198 321.925 351.84 323.54 351.84H479.8C487.73 351.95 487.65 339.55 479.8 339.66Z" fill="#E4E4E4"/>
<path d="M479.8 367.57H323.54C322.741 367.57 321.95 367.727 321.211 368.033C320.473 368.339 319.802 368.787 319.237 369.352C318.672 369.917 318.224 370.588 317.918 371.326C317.612 372.065 317.455 372.856 317.455 373.655C317.455 374.454 317.612 375.245 317.918 375.984C318.224 376.722 318.672 377.393 319.237 377.958C319.802 378.523 320.473 378.971 321.211 379.277C321.95 379.583 322.741 379.74 323.54 379.74H479.8C487.73 379.85 487.65 367.46 479.8 367.57Z" fill="#E4E4E4"/>
<path d="M257.364 131.897C265.24 117.491 259.945 99.4274 245.539 91.552C231.132 83.6766 213.069 88.9713 205.193 103.378C197.318 117.785 202.613 135.848 217.019 143.723C231.426 151.599 249.489 146.304 257.364 131.897Z" fill="#9E616A"/>
<path d="M236.25 81.52H217.046C204.456 81.52 194.25 93.0019 194.25 107.166C184.75 116.705 187.601 128.655 195.139 141.52C208.742 143.212 222.048 146.771 234.68 152.096L236.472 144.441L240.008 154.522C243.152 156.046 246.27 157.712 249.361 159.52C245.753 142.569 244.269 125.657 246.746 112.52H253.25V105.402L255.458 112.52H267.25C267.25 108.449 266.448 104.418 264.89 100.657C263.332 96.8957 261.049 93.4783 258.17 90.5997C255.292 87.721 251.874 85.4376 248.113 83.8797C244.352 82.3218 240.321 81.52 236.25 81.52Z" fill="#2F2E41"/>
<path d="M234.25 155.52L198.295 153.961L197.328 157.635C189.373 187.857 188.144 219.456 193.729 250.205C194.796 251.21 195.577 252.482 195.989 253.889C196.401 255.297 196.43 256.789 196.073 258.211L195.557 260.27L195.605 260.346C197.3 263.021 197.875 266.255 197.206 269.35L199.004 279.252L257 275L270.25 208.52L234.25 155.52Z" fill="#CACACA"/>
<path d="M323.357 250.364C322.953 250.809 322.59 251.289 322.272 251.798L269.769 217.041L232.259 169.347C229.899 166.346 226.49 164.352 222.718 163.767C218.946 163.181 215.092 164.048 211.934 166.192C208.776 168.336 206.549 171.598 205.701 175.32C204.854 179.042 205.449 182.946 207.367 186.247C213.583 196.941 221.428 206.601 230.621 214.878L260.967 242.201L324.904 265.236C326.47 266.359 328.326 267.006 330.251 267.099C332.175 267.191 334.085 266.726 335.751 265.758C337.418 264.791 338.769 263.363 339.642 261.645C340.516 259.928 340.874 257.995 340.675 256.079C340.475 254.162 339.726 252.344 338.518 250.844C337.31 249.343 335.694 248.223 333.864 247.62C332.034 247.016 330.069 246.954 328.205 247.441C326.341 247.927 324.657 248.943 323.357 250.364Z" fill="#9E616A"/>
<path d="M437.533 150.665C431.85 150.665 426.294 148.98 421.569 145.822C416.843 142.665 413.16 138.177 410.985 132.926C408.81 127.675 408.241 121.898 409.35 116.324C410.459 110.749 413.196 105.629 417.214 101.611C421.233 97.5918 426.353 94.855 431.927 93.7462C437.502 92.6375 443.279 93.2065 448.53 95.3815C453.781 97.5564 458.269 101.239 461.426 105.965C464.584 110.69 466.269 116.246 466.269 121.93C466.269 129.551 463.241 136.86 457.852 142.249C452.464 147.637 445.155 150.665 437.533 150.665Z" fill="#E4E4E4"/>
<path d="M448.872 119.095H440.368V110.591C440.368 109.84 440.069 109.119 439.538 108.587C439.006 108.055 438.285 107.757 437.533 107.757C436.782 107.757 436.061 108.055 435.529 108.587C434.998 109.119 434.699 109.84 434.699 110.591V119.095H426.195C425.444 119.096 424.725 119.396 424.194 119.927C423.664 120.459 423.366 121.179 423.366 121.93C423.366 122.68 423.664 123.401 424.194 123.932C424.725 124.464 425.444 124.763 426.195 124.764H434.699V133.268C434.699 134.02 434.998 134.741 435.529 135.272C436.061 135.804 436.782 136.102 437.533 136.102C438.285 136.102 439.006 135.804 439.538 135.272C440.069 134.741 440.368 134.02 440.368 133.268V124.764H448.872C449.244 124.765 449.614 124.692 449.958 124.55C450.303 124.408 450.616 124.199 450.879 123.936C451.143 123.673 451.353 123.36 451.495 123.016C451.638 122.671 451.712 122.302 451.712 121.93C451.712 121.557 451.638 121.188 451.495 120.844C451.353 120.499 451.143 120.187 450.879 119.923C450.616 119.66 450.303 119.451 449.958 119.309C449.614 119.167 449.244 119.094 448.872 119.095Z" fill="white"/>
<path d="M294.239 471.459C295.173 468.996 295.518 466.348 295.245 463.729C294.972 461.109 294.09 458.589 292.669 456.371L267.25 324.52L257.25 274.52H197.25C197.25 274.52 159.75 316.02 167.75 369.02L165.511 443.66C163.387 448.78 162.863 454.423 164.007 459.846L164.898 464.068L164.555 464.704C162.918 467.734 162.038 471.114 161.991 474.557C161.945 478 162.732 481.404 164.286 484.476L161.75 569.02L179.75 568.02L206.25 469.52L223.75 381.02L253.25 449.52L254.25 465.52L253.765 479.623L230.75 562.02L250.25 569.52L294.239 471.459Z" fill="#2F2E41"/>
<path d="M439.68 602.5C439.679 602.815 439.554 603.118 439.331 603.341C439.108 603.564 438.806 603.689 438.49 603.69H1.18994C0.874334 603.69 0.571649 603.565 0.34848 603.341C0.125312 603.118 -6.10352e-05 602.816 -6.10352e-05 602.5C-6.10352e-05 602.184 0.125312 601.882 0.34848 601.659C0.571649 601.435 0.874334 601.31 1.18994 601.31H438.49C438.647 601.31 438.802 601.34 438.946 601.4C439.091 601.459 439.222 601.547 439.333 601.658C439.443 601.768 439.531 601.9 439.591 602.044C439.65 602.189 439.681 602.344 439.68 602.5Z" fill="#CACACA"/>
</g>
<defs>
<clipPath id="clip0_13_189">
<rect width="947.25" height="603.69" fill="white"/>
</clipPath>
</defs>
</svg>
