<svg width="1442" height="1026" viewBox="0 0 1442 1026" fill="none" xmlns="http://www.w3.org/2000/svg">
<g clip-path="url(#clip0_339_367)">
<mask id="path-1-outside-1_339_367" maskUnits="userSpaceOnUse" x="288.972" y="334.175" width="841.184" height="346.177" fill="black">
<rect fill="white" x="288.972" y="334.175" width="841.184" height="346.177"/>
<path d="M652.401 461.597C815.723 484.479 994.374 532.323 1078.97 556.502C1079.15 554.407 1079.28 552.289 1079.37 550.147C1082.22 474.878 1054.02 427.51 1001.76 393.696C920.784 341.299 829.228 345.205 746.014 393.8C705.555 417.427 678.381 438.037 652.401 461.597C491.113 439 344.774 440.747 318.726 513.673C292.551 586.956 369.361 639.594 429.912 637.571C488.451 635.615 542.823 570.685 590.63 522.338C613.978 498.725 632.852 479.326 652.401 461.597Z"/>
</mask>
<path d="M1128.72 571.158C1093.21 562.046 1055.99 553.168 1019.46 544.825C900.41 517.864 780.659 494.058 660.292 479.313C600.151 472.187 539.73 467.142 480.397 469.286C424.069 471.33 352.975 482.657 340.342 521.188C320.305 568.439 378.203 615.34 429.364 613.228C449.551 612.631 472.031 600.047 492.725 583.506C520.462 561.387 545.803 533.21 573.481 505.384C619.715 457.778 673.452 407.203 734.788 374.332C817.35 323.968 933.007 321.473 1011.6 378.64C1068.99 413.171 1099.83 486.867 1092.44 550.501C1090.49 626.419 1012.71 689.242 941.242 671.7C925.563 667.821 913.102 659.139 901.629 650.118C872.009 625.807 848.286 596.252 826.8 565.634C850.801 594.196 877.041 621.632 907.215 642.609C918.719 650.359 931.289 657.316 943.811 659.327C1008.04 669.62 1068.71 611.188 1066.3 549.794C1068.35 490.393 1041.89 436.975 991.927 408.752C920.726 362.854 828.605 368.399 757.241 413.267C699.987 446.083 655.153 489.921 607.778 539.292C581.436 566.122 555.408 595.735 522.949 621.742C498.599 640.78 468.763 660.35 430.46 661.914C389.936 662.485 353.161 647.51 324.389 620.394C294.948 594.346 281.05 544.223 297.11 506.157C312.471 464.765 352.385 447.493 383.721 439.219C416.422 430.804 448.272 428.867 479.997 428.642C543.186 428.652 604.585 436.586 665.372 446.865C786.789 467.958 905.196 499.58 1021.98 535.834C1057.79 547.037 1094.19 558.918 1128.72 571.158Z" fill="#F0F4F8" mask="url(#path-1-outside-1_339_367)"/>
<path d="M556.811 630.86C565.53 619.468 574.717 608.033 584.034 596.72C651.936 520.192 714.047 433.896 821.173 395.719C848.739 390.754 877.095 386.524 906.283 387.4C963.614 385.406 1022.91 426.376 1038.94 481.54C1047.19 504.54 1052.08 529.849 1047.16 555.655C1042.95 581.59 1022.52 605.382 998.38 613.322C965.458 623.276 938.585 605.765 915.316 591.181C903.5 583.196 892.236 574.297 881.949 564.698C893.34 572.931 905.492 580.399 917.907 586.9C941.852 599.083 971.038 611.02 993.641 601.145C1036.78 583.084 1035.48 528.831 1018.2 490.165C1000.06 441.669 956.196 413.101 904.766 413.462C878.696 412.655 851.78 416.215 824.683 420.467C736.925 448.709 660.996 531.633 587.614 600.025C577.193 610.266 566.819 620.592 556.811 630.86Z" fill="#F0F4F8"/>
<path d="M612.188 614.577C619.85 608.876 627.711 603.034 635.527 597.222C688.472 559.046 742.022 513.891 794.791 486.059C813.94 478.924 833.528 472.894 853.196 468.905C883.18 462.913 914.812 461.207 940.145 473.535C955.619 481.085 970.139 489.357 977.026 501.42C984.15 513.081 980.713 529.261 972.263 543.78C971.172 547.475 960.106 549.43 951.391 549.052C942.185 548.857 932.731 547.552 923.349 545.887C913.877 544.178 904.404 542.073 895.054 539.573C903.817 543.704 912.853 547.403 922.087 550.663C931.258 553.864 940.614 556.681 950.52 558.334C960.153 559.12 971.909 563.269 983.286 551.032C994.39 536.637 1003.87 514.134 994.105 493.054C984.68 472.817 966.463 462.129 951.024 453.17C918.193 434.959 880.853 436.993 848.047 443.42C826.421 447.812 805.621 454.702 785.664 463.036C723.062 499.145 679.729 546.542 632.272 593.506C625.473 600.501 618.695 607.584 612.188 614.577Z" fill="#F0F4F8"/>
</g>
<defs>
<clipPath id="clip0_339_367">
<rect width="1440" height="1024" fill="white" transform="translate(1.06543) rotate(0.0596209)"/>
</clipPath>
</defs>
</svg>
