<svg width="500" height="500" viewBox="0 0 500 500" fill="none" xmlns="http://www.w3.org/2000/svg">
<path d="M252.432 109.504C257.33 108.833 262.102 109.237 266.74 110.717L267.666 111.028L267.741 111.055L267.805 111.104C272.153 114.448 276.175 118.134 279.868 122.162L280.751 123.125L279.451 122.998C277.159 122.773 274.984 122.115 272.929 121.028C272.317 121.17 271.791 121.447 271.341 121.866L270.7 122.462L270.512 121.608C270.253 120.434 269.954 119.587 269.632 119.035C269.306 118.477 269.013 118.311 268.79 118.291C268.549 118.269 268.18 118.393 267.66 118.892C267.182 119.352 266.644 120.069 266.046 121.062C266.636 122.854 267.529 124.127 268.701 124.933C269.918 125.77 271.492 126.142 273.465 126.002L273.976 125.964L273.999 126.477C274.07 128.032 273.715 129.464 272.928 130.759L272.677 131.172L272.256 130.936C267.846 128.463 263.962 125.279 260.604 121.391C258.897 124.712 257.35 128.142 255.966 131.682L255.951 131.719L255.932 131.754C254.443 134.289 252.35 136.036 249.665 136.972L248.83 137.263L249.011 136.398C249.766 132.783 249.963 129.149 249.605 125.495C248.98 125.896 248.259 126.068 247.457 125.999L246.861 125.947L247.018 125.37C248.424 120.152 250.096 114.97 252.032 109.824L252.137 109.546L252.432 109.504Z" fill="#1B3C53" stroke="#1B3C53"/>
<path d="M251.348 108.024C255.054 106.838 258.811 106.668 262.608 107.512C263.299 107.666 263.89 108.116 264.343 108.438C264.853 108.801 265.187 109 265.5 109H265.707L265.854 109.146C266.326 109.618 266.623 109.801 266.951 110.059C267.299 110.333 267.593 110.635 267.938 111.258L268.571 112.407L267.334 111.971C262.649 110.325 257.828 109.822 252.862 110.459C250.982 115.482 249.354 120.54 247.982 125.631L247.958 125.721L247.901 125.798C247.01 126.998 246.097 128.213 245.166 129.445C245.807 129.987 246.542 130.17 247.408 130.008L248 129.898V133.952L247.551 133.998C246.367 134.118 245.298 133.958 244.364 133.491C243.491 133.054 242.77 132.363 242.19 131.446C238.953 130.764 235.779 130.939 232.657 131.974L232.468 132.038L232.288 131.953C229.566 130.676 226.788 129.694 223.953 129.004C222.691 129.063 221.52 129.347 220.433 129.85C220.034 131.529 219.878 133.226 219.967 134.945C222.763 134.681 225.361 135.218 227.746 136.564L228.565 137.027L227.724 137.447C227.6 137.508 227.477 137.57 227.354 137.632C227.914 137.672 228.475 137.712 229.035 137.752C230.183 137.834 231.332 137.915 232.48 137.997C236.037 137.493 239.499 137.486 242.865 137.975C244.841 136.49 247.071 135.829 249.535 136.002L250.658 136.08L249.847 136.86C248.694 137.968 247.302 138.837 245.681 139.466L245.606 139.495L245.526 139.5C237.823 139.908 230.287 140.075 222.917 140.003C220.786 152.041 215.087 162.007 205.824 169.881L204.73 170.81L205.01 169.403C205.623 166.306 206.917 163.495 208.883 160.975L206.254 157.032L206.253 157.03C205.499 157.113 204.912 157.231 204.479 157.382C203.979 157.556 203.764 157.742 203.688 157.877C203.633 157.973 203.6 158.127 203.758 158.426C203.922 158.739 204.262 159.137 204.825 159.62L205.396 160.11L204.725 160.447C204.558 160.531 204.39 160.614 204.224 160.697C204.057 160.78 203.891 160.864 203.725 160.947L203.485 161.066L203.254 160.935C201.426 159.9 199.611 159.898 197.743 160.937L197.179 160.117C206.969 151.92 211.073 141.421 209.504 128.56L209.483 128.397L209.565 128.254C211.147 125.465 213.648 124.045 216.993 124H217.047L217.1 124.01C221.668 124.944 226.174 126.112 230.618 127.513C234.194 128.16 237.766 128.161 241.342 127.519C243.695 126.407 245.418 124.682 246.527 122.327C247.716 117.494 249.219 112.823 251.036 108.313L251.124 108.095L251.348 108.024Z" fill="#1B3C53" stroke="#1B3C53"/>
<path d="M268.881 117.295C269.574 117.358 270.1 117.853 270.496 118.531C270.808 119.066 271.074 119.773 271.304 120.637C271.786 120.33 272.321 120.119 272.907 120.009L273.082 119.976L273.238 120.061C275.227 121.138 277.329 121.785 279.549 122.002L280.014 122.048L280 122.515C279.988 122.923 280.084 123.222 280.253 123.448C280.423 123.675 280.703 123.874 281.141 124.019C285.577 125.217 290.058 126.213 294.586 127.007L294.873 127.058L294.971 127.332C295.134 127.79 295.384 128.183 295.721 128.519C297.33 128.68 298.94 128.841 300.55 129.002L307.015 129.649L305.764 130.425C302.044 132.732 296.116 134.239 288.047 134.997L287.942 135.008L287.844 134.975C283.227 133.451 278.429 132.459 273.454 131.998L273.274 131.982L272.146 130.854L271.869 130.575L272.072 130.241C272.669 129.259 272.981 128.19 273.007 127.024C271.098 127.079 269.463 126.67 268.135 125.757C266.685 124.761 265.658 123.205 265.022 121.148L264.957 120.937L265.069 120.746C265.733 119.619 266.364 118.752 266.968 118.172C267.56 117.603 268.205 117.234 268.881 117.295Z" fill="#1B3C53" stroke="#1B3C53"/>
<path d="M250.496 124.438C251 128.517 250.831 132.573 249.989 136.603L249.9 137.029L249.465 136.999C247.177 136.839 245.133 137.466 243.308 138.894L243.138 139.026L242.926 138.994C239.58 138.487 236.128 138.487 232.571 138.995L232.517 139.003L232.465 138.999L225.465 138.499L223.643 138.368L225.277 137.553C225.61 137.386 225.943 137.219 226.276 137.053C226.316 137.033 226.355 137.013 226.394 136.993C224.292 136.012 222.02 135.678 219.564 135.996L219.044 136.063L219.002 135.54C218.835 133.459 219.007 131.404 219.515 129.378L219.571 129.154L219.779 129.052C221.076 128.411 222.477 128.062 223.979 128L224.05 127.997L224.118 128.014C226.982 128.706 229.787 129.691 232.533 130.965C235.831 129.907 239.192 129.755 242.608 130.512L242.82 130.559L242.93 130.746C243.449 131.624 244.079 132.23 244.811 132.597C245.436 132.909 246.161 133.057 247 133.03V131.059C245.901 131.109 244.934 130.699 244.134 129.841L243.847 129.533L244.101 129.198C245.124 127.847 246.123 126.516 247.098 125.202L247.265 124.978L247.543 125.002C248.38 125.074 249.059 124.803 249.627 124.167L250.361 123.345L250.496 124.438Z" fill="#1B3C53" stroke="#1B3C53"/>
<path d="M279.481 122C294.916 121.431 308.051 126.482 318.852 137.145L320.18 138.456L318.374 137.983C314.673 137.016 311.226 135.398 308.032 133.136C307.586 133.558 307.323 133.993 307.211 134.441C307.094 134.908 307.129 135.436 307.352 136.038C308.706 136.202 309.814 136.452 310.655 136.804C311.55 137.178 312.221 137.698 312.5 138.424C312.784 139.162 312.607 139.963 312.146 140.765C311.761 141.431 311.153 142.145 310.343 142.907C310.85 143.247 311.254 143.661 311.539 144.159C311.858 144.718 312.009 145.352 312.015 146.047C313.71 146.174 315.29 145.845 316.765 145.059L317.088 144.886L317.35 145.143C317.805 145.589 318.148 146.033 318.338 146.475C318.532 146.928 318.572 147.398 318.381 147.843C318.197 148.273 317.829 148.603 317.372 148.858C317.21 148.949 317.032 149.031 316.838 149.109C317.477 149.429 318.106 149.744 318.724 150.053L318.968 150.175L318.997 150.447C319.145 151.832 319.531 152.457 319.949 152.666C320.362 152.872 321.074 152.804 322.234 152.076L322.555 151.875L322.836 152.129C323.813 153.013 324.524 154.084 324.971 155.332L325.024 155.481L324.982 155.633C324.294 158.14 324.291 160.718 324.983 163.374L324.063 163.744C318.006 152.903 309.435 144.485 298.342 138.483C291.246 137.654 284.256 136.322 277.371 134.483L277.345 134.476L277.319 134.466C275.698 133.836 274.306 132.969 273.153 131.86L272.124 130.87L273.546 131.002C278.557 131.466 283.393 132.463 288.052 133.991C295.057 133.326 300.31 132.098 303.857 130.337C302.722 130.223 301.586 130.111 300.45 129.997C298.783 129.83 297.117 129.664 295.45 129.497L295.286 129.482L295.164 129.37C294.719 128.967 294.376 128.489 294.138 127.941C289.671 127.15 285.247 126.165 280.869 124.983L280.857 124.98L280.845 124.976C280.261 124.785 279.78 124.485 279.452 124.048C279.122 123.607 278.982 123.074 279 122.485L279.015 122.018L279.481 122Z" fill="#1B3C53" stroke="#1B3C53"/>
<path d="M308.294 132.096C311.281 134.265 314.494 135.841 317.935 136.827L318.627 137.017L318.726 137.042L318.807 137.105C326.446 143.058 332.166 150.459 335.96 159.303L336.234 159.942L335.54 159.998C334.411 160.089 333.722 160.438 333.341 160.945C332.957 161.458 332.798 162.249 332.993 163.418L333.09 164H328.981L329.001 163.481C329.08 161.316 329.723 159.308 330.922 157.466C329.835 155.322 328.881 153.086 328.061 150.759C326.436 148.871 324.906 148.024 323.468 148.024C322.016 148.024 320.487 148.887 318.884 150.819L318.631 151.125L318.276 150.947C317.303 150.46 316.304 149.96 315.277 149.447L314.039 148.829L315.386 148.513C316.043 148.359 316.537 148.18 316.884 147.985C317.234 147.79 317.396 147.601 317.462 147.448C317.521 147.31 317.531 147.131 317.419 146.869C317.327 146.656 317.158 146.404 316.895 146.113C315.198 146.938 313.376 147.231 311.44 146.996L310.961 146.938L311.002 146.457C311.065 145.724 310.944 145.133 310.671 144.655C310.397 144.177 309.948 143.771 309.283 143.45L308.602 143.122L309.171 142.624C310.205 141.716 310.896 140.93 311.279 140.266C311.661 139.602 311.699 139.129 311.566 138.783C311.428 138.425 311.052 138.054 310.269 137.727C309.494 137.402 308.393 137.154 306.946 136.997L306.66 136.966L306.543 136.703C306.159 135.84 306.041 134.998 306.241 134.198C306.441 133.4 306.943 132.705 307.687 132.109L307.985 131.871L308.294 132.096Z" fill="#1B3C53" stroke="#1B3C53"/>
<path opacity="0.047" d="M113.453 155.002C123.329 154.065 133.372 154.4 143.578 156.006L143.516 157C133.313 157.328 123.291 156.993 113.449 155.997L113.453 155.002Z" fill="#1B3C53" stroke="#1B3C53"/>
<path d="M102.043 158.002C107.758 158.493 113.563 158.494 119.458 158.002L119.489 157.999L119.521 158L131.521 158.5L132.578 158.545L131.873 159.333C130.839 160.489 129.554 161.059 128.057 161.036C128.204 163.156 127.462 164.953 125.829 166.377L125.739 166.455L125.624 166.484C118.324 168.348 111.104 168.192 103.976 166.015C103.6 166.09 103.223 166.165 102.848 166.24C102.713 166.267 102.579 166.293 102.444 166.32C102.881 166.963 103.07 167.708 102.998 168.543L102.959 169H99.3672L99.252 168.935C95.0784 166.552 90.5013 165.406 85.5098 165.5L83.7461 165.533L85.2295 164.579L92.2295 160.079L92.5732 159.858L92.8584 160.151C93.2054 160.507 93.4766 160.723 93.6758 160.831C93.7726 160.884 93.8306 160.899 93.8594 160.903C93.878 160.876 93.9159 160.81 93.9492 160.661C94.0043 160.415 94.0277 160.044 94.001 159.525L93.9766 159.063L94.4365 159.004C95.7335 158.837 96.9104 159.114 97.9434 159.83C98.999 158.78 100.342 158.172 101.947 158.003L101.995 157.998L102.043 158.002Z" fill="#1B3C53" stroke="#1B3C53"/>
<path d="M113.551 155.003C123.347 155.995 133.325 156.326 143.484 156L143.509 155.999L143.533 156.001C155.87 156.826 168.088 158.492 180.188 160.999L182.605 161.512L182.691 161.53L182.765 161.576C183.968 162.329 184.712 163.452 184.991 164.905L185.009 164.999L184.991 165.092C184.498 167.732 183.471 169.828 181.876 171.334C180.28 172.841 178.158 173.718 175.554 173.997L175.482 174.005L175.412 173.992C155.624 170.459 135.655 168.794 115.505 169H101.955L102.002 168.457C102.074 167.62 101.803 166.94 101.167 166.373L100.42 165.707L101.401 165.51C101.818 165.426 102.236 165.343 102.652 165.26C103.069 165.177 103.485 165.093 103.901 165.01L104.026 164.984L104.147 165.022C111.098 167.169 118.131 167.342 125.255 165.545C126.716 164.228 127.298 162.591 127.005 160.571L126.912 159.928L127.559 160.003C128.575 160.122 129.455 159.938 130.221 159.447C128.64 159.381 127.06 159.316 125.479 159.25C123.488 159.167 121.496 159.084 119.504 159.001C113.586 159.493 107.754 159.493 102.011 159.002C100.487 159.172 99.2869 159.783 98.377 160.828L98.0566 161.196L97.6816 160.885C96.779 160.138 95.7508 159.843 94.5635 159.996L94.373 159.017C100.558 157.391 106.908 156.053 113.421 155.006L113.485 154.996L113.551 155.003Z" fill="#1B3C53" stroke="#1B3C53"/>
<path d="M323.469 147.025C325.231 147.025 326.926 148.008 328.556 149.806L328.881 150.176L328.941 150.246L328.972 150.334C329.817 152.748 330.808 155.062 331.944 157.272L332.081 157.536L331.913 157.783C330.812 159.393 330.188 161.13 330.032 163H331.934C331.843 161.946 332.019 161.041 332.541 160.345C333.16 159.52 334.177 159.104 335.46 159.001L336.188 158.943L335.979 159.643C334.747 163.769 333.92 168.071 333.498 172.547L333.415 173.426L332.703 172.903C329.682 170.678 327.805 167.703 327.083 164H324.113L324.017 163.626C323.297 160.866 323.282 158.164 323.976 155.531C323.626 154.61 323.112 153.809 322.428 153.123C321.348 153.735 320.336 153.977 319.502 153.56C318.587 153.102 318.156 151.985 318.003 150.553L317.98 150.343L318.115 150.181C319.804 148.146 321.587 147.025 323.469 147.025Z" fill="#1B3C53" stroke="#1B3C53"/>
<path d="M138.517 158C148.444 158.324 158.175 159.52 167.708 161.588L169.612 162.013L169.99 162.1L170 162.488C170.027 163.616 169.77 164.59 169.188 165.367C168.605 166.143 167.737 166.672 166.636 166.981L166.442 167.036L166.266 166.941C163.557 165.501 160.651 164.852 157.54 164.998C150.071 165.807 142.744 166.64 135.56 167.496L135.437 167.511L135.322 167.467C134.427 167.125 133.683 166.568 133.102 165.802L132.78 165.379L136.223 163.084C137.088 162.507 137.952 161.93 138.817 161.354C138.311 160.478 138.036 159.53 138 158.518L137.981 157.982L138.517 158Z" fill="#1B3C53" stroke="#1B3C53"/>
<path d="M94.999 159.475C95.0276 160.03 95.0087 160.505 94.9248 160.88C94.8449 161.237 94.6783 161.623 94.3066 161.809C93.9217 162.001 93.5161 161.883 93.1982 161.71C92.9569 161.579 92.7033 161.382 92.4365 161.135C91.3811 161.813 90.326 162.492 89.2705 163.171C88.5734 163.619 87.8758 164.067 87.1787 164.515C91.696 164.679 95.8885 165.862 99.748 168.065L100.723 168.622L99.6572 168.975C97.1606 169.801 94.4703 170.306 91.5889 170.494C88.9747 171.221 86.719 172.355 84.8135 173.89L84.6768 174H83.5205L83.1123 174.023C81.0878 174.173 79.3195 174.803 77.793 175.905L77.7471 175.938L77.6943 175.961C73.7828 177.61 69.7582 178.952 65.6211 179.985L65.0771 180.121L65.0039 179.565C64.8156 178.134 64.2009 176.9 63.1475 175.854L62.791 175.501L63.1465 175.146L64.1465 174.146L64.4746 173.819L64.8252 174.12C66.1612 175.266 67.5108 175.851 68.8779 175.927C70.2106 176.001 71.6157 175.593 73.1055 174.656C73.4994 173.803 73.8062 173.035 74.0234 172.349L74.1816 171.851L74.6729 172.03C75.9569 172.502 77.3882 172.543 78.9863 172.124C78.9688 170.805 79.2823 169.686 79.9785 168.815C80.4977 168.167 81.203 167.689 82.0703 167.365C81.0069 166.794 80.0257 166.106 79.127 165.302C78.6502 166.07 78.0715 166.605 77.3584 166.783C76.5363 166.989 75.7043 166.68 74.8965 166.056C74.0555 166.319 73.2428 166.649 72.459 167.049C72.4793 167.067 72.5006 167.083 72.5195 167.102C72.7051 167.281 72.8964 167.538 72.8965 167.865C72.8965 168.219 72.6778 168.467 72.4609 168.62C72.245 168.773 71.959 168.888 71.6387 168.98L71.4863 169.024L71.3369 168.973C68.8191 168.103 66.2218 167.778 63.541 167.998L63.3086 167.038C73.2189 162.943 83.5977 160.264 94.4424 159.003L94.9717 158.941L94.999 159.475Z" fill="#1B3C53" stroke="#1B3C53"/>
<path d="M206.916 156.223L209.916 160.723L210.12 161.028L209.889 161.314C207.894 163.783 206.595 166.543 205.99 169.597L205.961 169.746L199.677 176.03L199.43 175.995C198.507 175.865 197.637 176.002 196.804 176.409C194.685 178.703 192.721 181.161 190.912 183.784L190.512 184.363L190.097 183.795C188.489 181.595 187.136 179.228 186.041 176.698L185.93 176.441L186.091 176.213C187.572 174.107 188.543 171.839 189.009 169.406L189.029 169.302L189.09 169.214C191.414 165.879 194.107 162.849 197.168 160.126L197.209 160.09L197.257 160.063C199.344 158.902 201.446 158.859 203.506 159.938C203.548 159.917 203.589 159.896 203.631 159.875C203.299 159.539 203.04 159.211 202.872 158.892C202.614 158.401 202.541 157.868 202.819 157.381C203.076 156.932 203.57 156.639 204.151 156.437C204.747 156.23 205.52 156.088 206.454 156.002L206.751 155.975L206.916 156.223Z" fill="#1B3C53" stroke="#1B3C53"/>
<path d="M115.5 168L115.547 168.998C105.257 169.966 94.9457 171.629 84.6113 173.987L84.1865 173.11C86.2195 171.473 88.616 170.277 91.3672 169.518L91.417 169.504L91.4678 169.501C94.2942 169.32 96.9187 168.828 99.3428 168.025L99.4189 168H115.5Z" fill="#1B3C53" stroke="#1B3C53"/>
<path d="M335.938 159.258C341.442 169.182 344.462 179.924 344.999 191.477L344.018 191.633C343.125 188.388 341.887 185.221 340.303 182.134C339.961 185.238 339.859 188.352 339.999 191.478L340.019 191.912L339.592 191.991C338.246 192.242 337.074 191.85 336.134 190.841L335.972 190.666L336.005 190.431C336.692 185.524 336.716 180.756 336.082 176.124C335.575 176.29 335.17 176.537 334.854 176.854C334.455 177.252 334.169 177.792 334.013 178.499C334.518 180.625 334.849 182.781 334.999 184.966L335.001 184.999L334.999 185.032C334.27 196.178 333.771 207.339 333.5 218.512V218.523H333.499C333.394 220.809 332.499 222.619 330.801 223.899L329.776 224.671L330.008 223.41C333.074 206.695 332.579 190.109 328.521 173.648C327.204 170.209 325.716 166.903 324.057 163.731L323.674 163H327.923L327.993 163.417C328.559 166.76 330.09 169.462 332.593 171.546C333.043 167.332 333.852 163.268 335.021 159.356L335.361 158.219L335.938 159.258Z" fill="#1B3C53" stroke="#1B3C53"/>
<path d="M79.3486 164.142C80.6111 165.37 82.0596 166.337 83.6972 167.041L85.2324 167.7L83.5869 167.992C82.2433 168.231 81.3263 168.731 80.7588 169.44C80.1923 170.149 79.9166 171.137 79.999 172.469L80.0234 172.864L79.6445 172.979C77.9205 173.498 76.3054 173.556 74.8154 173.127C74.5887 173.77 74.302 174.466 73.9531 175.212L73.8916 175.342L73.7715 175.42C72.1066 176.496 70.4531 177.016 68.8222 176.926C67.3218 176.843 65.8914 176.244 64.5332 175.173C64.4732 175.233 64.4135 175.293 64.3535 175.354C64.3013 175.406 64.2485 175.458 64.1963 175.51C65.1959 176.631 65.7998 177.943 65.9961 179.435L66.0459 179.818L65.6875 179.963C59.4258 182.501 53.0968 185.167 46.7002 187.958L46.5185 188.037L46.333 187.972C42.7455 186.699 40.4861 185.032 39.9179 182.854C39.3457 180.661 40.5588 178.238 43.1465 175.646L43.1924 175.601L43.249 175.567C49.6364 171.868 56.3418 169.019 63.3633 167.02L63.4101 167.006L63.459 167.002C66.2199 166.775 68.9025 167.099 71.5029 167.974C71.6562 167.923 71.7634 167.874 71.8349 167.832C71.8317 167.829 71.8287 167.825 71.8252 167.821C71.7216 167.721 71.541 167.592 71.2597 167.438L70.4785 167.011L71.2509 166.566C72.3933 165.909 73.5962 165.394 74.8584 165.021L75.1172 164.944L75.3232 165.118C76.0967 165.774 76.6782 165.923 77.1152 165.813C77.567 165.7 78.0654 165.265 78.5517 164.279L78.8554 163.662L79.3486 164.142Z" fill="#1B3C53" stroke="#1B3C53"/>
<path opacity="0.086" d="M83.8506 173.856C82.1346 175.543 79.984 176.252 77.4502 175.997L76.1396 175.866L77.207 175.095C79.0073 173.795 81.1042 173.099 83.4795 173L84.7764 172.946L83.8506 173.856Z" fill="#1B3C53" stroke="#1B3C53"/>
<path d="M451.538 176.502C455.288 176.79 457.878 177.869 459.006 179.938C460.131 182 459.673 184.813 457.946 188.226L457.888 188.342L457.779 188.415C449.7 193.848 440.991 198.034 431.65 200.977L430.527 201.33L431.053 200.277C431.668 199.043 431.628 198.077 431.087 197.281L430.669 196.667L431.395 196.511C433.576 196.041 435.778 195.862 438 195.97V193.854C435.089 192.844 432.276 191.594 429.561 190.102C428.62 190.877 427.642 191.37 426.624 191.54C425.503 191.727 424.38 191.518 423.271 190.944L422.347 190.467L423.296 190.043C432.683 185.853 442.008 181.357 451.27 176.556L451.396 176.49L451.538 176.502Z" fill="#1B3C53" stroke="#1B3C53"/>
<path d="M189.991 169.594C189.515 172.08 188.538 174.399 187.07 176.551C188.02 178.702 189.163 180.729 190.497 182.632C192.237 180.162 194.115 177.838 196.133 175.66L196.193 175.595L196.273 175.555C197.313 175.025 198.417 174.842 199.57 175.005L200.401 175.123L199.902 175.798C192.736 185.478 186.078 195.464 179.93 205.757L179.045 205.293C180.555 201.976 181.05 198.465 180.528 194.745C178.826 193.196 177.346 191.545 176.093 189.791L175.939 189.575L176.031 189.327C178.9 181.56 183.274 174.828 189.152 169.141L190.289 168.041L189.991 169.594Z" fill="#1B3C53" stroke="#1B3C53"/>
<path d="M176.758 189L176.907 189.209C177.993 190.73 179.259 192.176 180.704 193.546L181.335 194.128L181.468 194.249L181.494 194.427C182.083 198.395 181.571 202.159 179.955 205.707L179.72 206.223L179.238 205.926C177.536 204.878 176.474 204.835 175.825 205.307C175.48 205.558 175.171 206.002 174.936 206.71C174.7 207.416 174.551 208.349 174.5 209.521L174.462 210.396L173.728 209.919C172.598 209.186 171.366 208.864 170.015 208.953C170.055 210.361 169.999 211.477 169.83 212.282C169.737 212.727 169.602 213.116 169.402 213.411C169.195 213.718 168.897 213.948 168.504 213.987C168.135 214.024 167.78 213.881 167.464 213.674C167.143 213.463 166.81 213.151 166.465 212.76C165.774 211.976 164.975 210.801 164.068 209.253L163.793 208.781L164.286 208.548C167.644 206.958 169.544 204.277 170.004 200.44L170.03 200.221L170.211 200.092C173.535 197.734 175.122 194.559 175 190.515V190.5C175 190.09 175.103 189.69 175.396 189.396C175.69 189.103 176.09 189 176.5 189H176.758Z" fill="#1B3C53" stroke="#1B3C53"/>
<path d="M345 193.55L344.99 193.599C343.675 200.148 343.011 206.783 343 213.501L342.999 214.438L342.221 213.915C340.828 212.978 339.899 212.805 339.315 213.039C338.746 213.267 338.242 213.992 337.994 215.577L337.882 216.299L337.25 215.933C336.769 215.654 336.377 215.283 336.071 214.828C334.566 219.276 333.372 223.863 332.492 228.592L332.464 228.744L332.353 228.854L331.353 229.854L330.73 230.478L330.515 229.622C330.007 227.596 329.835 225.541 330.002 223.46L330.019 223.236L330.199 223.101C331.632 222.021 332.404 220.503 332.5 218.488C332.771 207.314 333.27 196.152 333.998 185.004C333.848 182.845 333.52 180.716 333.014 178.617L332.988 178.51L333.01 178.402C333.191 177.492 333.563 176.729 334.146 176.146C334.729 175.564 335.492 175.192 336.402 175.01L336.918 174.907L336.995 175.427C337.712 180.253 337.72 185.218 337.027 190.321C337.595 190.86 338.237 191.1 338.982 191.059C338.849 187.503 339.023 183.961 339.505 180.433L339.709 178.937L340.438 180.259C342.418 183.851 343.933 187.554 344.982 191.367L345 191.433V193.55Z" fill="#1B3C53" stroke="#1B3C53"/>
<path d="M439 197.036L438.466 196.999C436.377 196.855 434.308 196.974 432.258 197.358C432.677 198.381 432.546 199.52 431.947 200.723L431.832 200.955L431.575 200.994C424.01 202.14 416.714 204.131 409.687 206.964L409.247 206.068C411.081 204.995 412.83 203.717 414.497 202.235C412.904 201.861 411.316 201.934 409.722 202.454C408.91 203.022 408.099 203.591 407.287 204.159C406.454 204.742 405.62 205.326 404.787 205.909L404.471 206.131L404.176 205.881C403.093 204.96 402.009 204.03 400.923 203.093C398.684 204.157 396.449 204.112 394.264 202.94L393.124 202.329L394.378 202.015C396.421 201.502 398.483 201.115 400.562 200.851C399.848 200.731 399.133 200.612 398.418 200.493L398.455 199.502C402.146 199.171 405.703 198.339 409.131 197.013C407.611 196.483 406.053 196.143 404.455 195.998L404.396 195.011C410.699 193.674 417.018 192.012 423.351 190.023L423.547 189.961L423.729 190.056C424.676 190.544 425.581 190.7 426.46 190.554C427.344 190.406 428.247 189.945 429.168 189.126L429.434 188.891L429.743 189.063C432.605 190.66 435.578 191.98 438.661 193.026L439 193.142V197.036Z" fill="#1B3C53" stroke="#1B3C53"/>
<path d="M404.522 195L404.545 195.002C406.661 195.194 408.711 195.707 410.693 196.539L411.786 196.998L410.695 197.46C407.849 198.667 404.911 199.531 401.885 200.057C402.784 200.207 403.683 200.357 404.582 200.507L404.526 201.499C401.695 201.646 398.898 202.024 396.135 202.63C397.659 203.064 399.195 202.876 400.77 202.057L401.07 201.899L401.327 202.122C402.396 203.045 403.464 203.96 404.53 204.868C405.258 204.359 405.985 203.85 406.713 203.341C407.546 202.758 408.38 202.174 409.213 201.591L409.272 201.549L409.342 201.525C411.444 200.824 413.556 200.824 415.658 201.525L416.456 201.792L415.841 202.365C413.926 204.153 411.897 205.676 409.753 206.932L409.639 206.998L409.507 207C406.099 207.046 402.827 207.7 399.687 208.964L399.58 209.007L399.466 208.999C394.082 208.631 388.731 207.963 383.41 206.992L383.379 206.015C384.712 205.681 386.046 205.348 387.379 205.015C388.51 204.732 389.642 204.448 390.773 204.165C390.737 204.092 390.7 204.019 390.663 203.946C387.282 203.326 383.862 202.674 380.403 201.99L378.532 201.62L380.344 201.025C386.531 198.992 392.879 197.819 399.387 197.506C400.867 196.922 402.121 196.132 403.153 195.14L403.299 195H404.522Z" fill="#1B3C53" stroke="#1B3C53"/>
<path d="M403.846 195.86C402.694 196.968 401.303 197.836 399.681 198.466L399.605 198.496L399.523 198.499C393.731 198.77 388.068 199.735 382.533 201.389C385.413 201.95 388.265 202.491 391.09 203.008L391.336 203.053L391.447 203.275C391.531 203.442 391.614 203.61 391.697 203.776C391.78 203.943 391.864 204.109 391.947 204.275L392.226 204.834L391.622 204.985C390.288 205.319 388.954 205.652 387.621 205.985C387.053 206.127 386.485 206.268 385.918 206.41C390.434 207.157 394.972 207.689 399.534 208.001L399.686 208.964C398.853 209.297 398.018 209.631 397.185 209.964C396.352 210.297 395.519 210.63 394.686 210.964L394.62 210.99L394.549 210.997C380.836 212.362 367.133 212.195 353.438 210.496L353.353 210.485L353.276 210.447L350.276 208.947L350.088 208.853L350.024 208.652C348.838 204.946 348.668 201.189 349.512 197.392L349.567 197.145L349.799 197.042C351.26 196.399 352.823 196.053 354.484 196L354.534 195.999L354.584 196.007C370.921 198.781 387.191 198.449 403.396 195.011L405.107 194.647L403.846 195.86Z" fill="#1B3C53" stroke="#1B3C53"/>
<path opacity="0.988" d="M431.708 200.955C419.945 206.324 407.558 209.672 394.551 210.997L394.314 210.036C395.148 209.703 395.981 209.369 396.814 209.036C397.647 208.703 398.48 208.37 399.313 208.036L399.926 207.798C402.965 206.655 406.123 206.057 409.398 206.002C416.472 203.158 423.814 201.159 431.425 200.006L431.708 200.955Z" fill="#1B3C53" stroke="#1B3C53"/>
<path d="M176 190.485C176.13 194.794 174.441 198.239 170.967 200.777C170.446 204.64 168.52 207.467 165.204 209.206C165.983 210.5 166.653 211.461 167.216 212.1C167.53 212.456 167.796 212.695 168.013 212.838C168.235 212.984 168.357 212.997 168.404 212.992C168.428 212.99 168.486 212.98 168.574 212.851C168.67 212.709 168.771 212.463 168.852 212.077C169.013 211.308 169.068 210.131 169 208.521L168.981 208.063L169.436 208.004C170.911 207.812 172.287 208.035 173.554 208.67C173.632 207.792 173.774 207.031 173.986 206.394C174.261 205.569 174.665 204.914 175.236 204.498C176.421 203.636 178.005 203.993 179.762 205.074L180.209 205.35L179.913 205.782C174.828 213.22 168.442 219.27 160.759 223.928L160.323 224.192L160.067 223.75C159.305 222.433 158.084 221.504 156.354 220.979L155.164 220.616L156.274 220.054C159.001 218.673 161.887 217.984 164.927 217.99C164.65 216.222 164.019 215.018 163.094 214.291C162.237 213.618 161.058 213.298 159.5 213.396C159.693 213.683 159.851 213.995 159.971 214.332L160.147 214.826L159.645 214.979C155.18 216.33 150.87 217.989 146.714 219.952L146.226 219.082C157.835 211.453 167.453 201.835 175.082 190.226L175.952 188.901L176 190.485Z" fill="#1B3C53" stroke="#1B3C53"/>
<path d="M97.9326 210.25C98.2705 210.834 98.8107 211.256 99.5986 211.505C104.561 211.831 109.506 212.254 114.435 212.773L116.556 213.003L116.945 213.047L116.996 213.437C117.156 214.681 116.907 215.815 116.253 216.817L117.724 217.553L119.101 218.24L117.582 218.493C116.582 218.66 115.582 218.826 114.582 218.993C114.421 219.02 114.259 219.046 114.098 219.073C116.383 219.63 118.574 220.282 120.668 221.029L120.5 222H110.492C105.003 221.92 99.5353 222.249 94.0918 222.991C84.5906 225.106 75.0926 227.106 65.5977 228.99L64.9385 229.121L65.002 228.453C65.1838 226.537 65.9729 224.964 67.3516 223.752C67.2273 223.691 67.1078 223.618 66.9941 223.533C66.5666 223.213 66.2539 222.748 66.0342 222.181L65.9414 221.942L66.0801 221.729C67.435 219.632 69.1698 218.068 71.2832 217.05L71.3008 217.041L71.3184 217.034C79.6918 213.768 88.3931 211.425 97.4219 210.006L97.7607 209.953L97.9326 210.25Z" fill="#1B3C53" stroke="#1B3C53"/>
<path d="M97.4307 210.005C114.199 207.666 130.919 208 147.589 211.007L148.582 211.187L147.838 211.869C140.129 218.926 131.002 222.305 120.485 222L120.406 221.998L120.332 221.971C117.534 220.973 114.556 220.146 111.398 219.49L111.418 218.507C112.418 218.34 113.418 218.173 114.418 218.007C114.912 217.924 115.406 217.841 115.9 217.758C115.693 217.655 115.484 217.551 115.276 217.447L114.713 217.166L115.115 216.681C115.78 215.879 116.085 214.977 116.037 213.952C110.535 213.347 105.012 212.862 99.4678 212.499L99.4102 212.495L99.3545 212.478C98.3369 212.169 97.5577 211.598 97.0674 210.751L96.6953 210.107L97.4307 210.005Z" fill="#1B3C53" stroke="#1B3C53"/>
<path d="M344.999 193.47C346.052 210.749 343.374 227.489 336.965 243.684L336.002 243.535C335.559 237.292 336.541 231.287 338.948 225.523C337.304 222.421 336.654 219.061 337.003 215.452L337.003 215.438L337.006 215.423C337.264 213.774 337.847 212.549 338.944 212.11C339.829 211.756 340.871 211.988 342.005 212.611C342.071 206.131 342.739 199.727 344.009 193.401L344.999 193.47Z" fill="#1B3C53" stroke="#1B3C53"/>
<path d="M158.426 212.506C160.604 212.177 162.397 212.472 163.712 213.505C165.025 214.537 165.758 216.223 165.997 218.446L166.058 219.018L165.484 219C162.787 218.916 160.222 219.399 157.783 220.45C159.154 221.076 160.212 222.005 160.932 223.249L161.158 223.638L160.796 223.904C152.901 229.691 144.541 234.706 135.717 238.95L135.069 239.262L135.003 238.547C134.837 236.784 135.008 235.052 135.521 233.356L135.709 232.736L136.26 233.073C136.687 233.335 137.017 233.466 137.259 233.506C137.488 233.544 137.603 233.498 137.673 233.442C137.757 233.374 137.864 233.22 137.937 232.891C138.009 232.565 138.036 232.116 138.001 231.529L137.967 230.961L138.535 231.001C143.954 231.381 148.358 229.573 151.796 225.563C151.217 225.11 150.664 224.834 150.133 224.716C149.498 224.575 148.863 224.649 148.212 224.953L147.993 225.056L147.776 224.947C146.656 224.387 145.752 223.602 145.069 222.602C144.636 223.458 144.059 224.215 143.336 224.87L143.075 225.107L142.764 224.942C141.159 224.085 139.429 223.769 137.56 223.996L137.237 223.074C140.022 221.353 143.051 220.006 146.321 219.031C150.343 217.134 154.507 215.52 158.812 214.189C158.644 213.883 158.429 213.61 158.165 213.37L157.384 212.663L158.426 212.506Z" fill="#1B3C53" stroke="#1B3C53"/>
<path d="M145.447 221.276C146.031 222.445 146.887 223.331 148.023 223.947C148.785 223.64 149.564 223.566 150.349 223.74C151.206 223.931 152.035 224.408 152.834 225.129L153.188 225.447L152.887 225.815C149.311 230.205 144.67 232.281 139.014 232.029C139.013 232.433 138.984 232.794 138.915 233.106C138.816 233.554 138.629 233.956 138.297 234.222C137.951 234.499 137.526 234.564 137.093 234.492C136.845 234.451 136.585 234.362 136.314 234.236C135.967 235.618 135.863 237.023 135.998 238.453L136.012 238.606L135.938 238.742C135.562 239.422 135.258 240.162 135.03 240.962C136.147 243.511 137.443 245.934 138.92 248.229L139.326 248.859L138.588 248.992C138.113 249.078 137.725 249.328 137.412 249.783L136.829 250.631L136.523 249.648C135.922 247.717 134.815 246.137 133.196 244.897L133.083 244.811L133.033 244.677C131.777 241.358 132.048 238.16 133.836 235.128C133.291 234.719 132.745 234.31 132.2 233.9C131.556 233.418 130.913 232.935 130.269 232.452C129.568 232.234 128.97 232.243 128.45 232.438C127.922 232.636 127.421 233.046 126.957 233.72C126.054 236.74 125.722 239.817 125.957 242.95C128.193 242.759 130.032 243.179 131.403 244.293C132.875 245.489 133.713 247.409 133.997 249.944L134.013 250.089L133.95 250.219C133.087 251.988 132.432 253.788 131.986 255.618L131.815 256.321L131.217 255.912C130.405 255.356 129.494 255.051 128.474 254.999L128.267 254.988L128.128 254.834C125.115 251.478 123.289 247.91 122.688 244.131C122.087 240.352 122.716 236.403 124.543 232.297L124.576 232.224L124.629 232.164C128.23 228.189 132.455 225.147 137.3 223.041L137.368 223.013L137.44 223.004C139.381 222.768 141.209 223.063 142.91 223.893C143.636 223.169 144.176 222.318 144.529 221.332L144.923 220.229L145.447 221.276Z" fill="#1B3C53" stroke="#1B3C53"/>
<path d="M71.7169 217.95C69.8554 218.847 68.3065 220.209 67.0674 222.05C67.2205 222.367 67.399 222.587 67.5938 222.733C67.8277 222.909 68.1186 223.004 68.4942 223L70.1846 222.98L68.7764 223.916C67.2992 224.898 66.411 226.209 66.0938 227.871C75.3565 226.027 84.6228 224.075 93.8917 222.012L93.9122 222.008L93.9327 222.005C99.4338 221.254 104.959 220.919 110.507 221L110.557 221.997C89.0883 224.469 68.476 230.285 48.7188 239.448L48.7198 239.449C47.8752 239.862 47.0516 240.043 46.2637 239.944C45.4702 239.845 44.7626 239.469 44.1465 238.854L44.1221 238.829L44.1006 238.801C42.6269 236.848 41.9323 234.907 42.1143 232.995C42.2963 231.084 43.3455 229.297 45.1622 227.632L45.253 227.549L45.3712 227.517C47.7667 226.877 50.1808 226.319 52.6133 225.844C52.4329 225.699 52.2841 225.524 52.1964 225.305C52.0417 224.918 52.1199 224.522 52.3018 224.171C52.4804 223.827 52.7801 223.48 53.1631 223.131L53.209 223.088L53.2647 223.059C58.8999 220.059 64.9531 218.041 71.421 217.006L71.7169 217.95Z" fill="#1B3C53" stroke="#1B3C53"/>
<path d="M270.13 222.018C271.041 222.263 271.911 222.611 272.738 223.061L272.902 223.149L272.968 223.324C274.186 226.562 274.328 229.309 273.239 231.485C272.225 233.513 270.202 234.928 267.297 235.796C267.799 236.65 268.009 237.502 267.843 238.334C267.638 239.355 266.895 240.209 265.768 240.923L265.748 240.935L265.727 240.945C263.924 241.864 262.026 242.235 260.043 242.062C260.093 243.342 259.817 244.39 259.104 245.104C258.279 245.929 257.006 246.17 255.445 245.997L254.944 245.941L255.003 245.441C255.099 244.622 254.998 243.89 254.698 243.236C254.656 243.932 254.459 244.574 254.091 245.152C253.421 246.205 252.242 246.962 250.653 247.476L250.542 247.512L250.426 247.494C247.163 247.008 243.815 246.339 240.38 245.485L240.389 244.513C243.985 243.693 246.886 241.918 249.112 239.185L249.134 239.157L249.159 239.134C251.514 236.939 254.217 235.247 257.263 234.057C259.29 232.672 261.543 231.983 264.009 231.989C264.152 227.725 266.069 224.405 269.731 222.078L269.918 221.96L270.13 222.018Z" fill="#1B3C53" stroke="#1B3C53"/>
<path d="M53.8366 223.869C53.4935 224.182 53.2903 224.437 53.1891 224.632C53.0916 224.82 53.1126 224.902 53.1247 224.933C53.1424 224.977 53.2115 225.08 53.4616 225.2C53.7075 225.318 54.0733 225.425 54.5797 225.507L54.5876 226.492C51.6137 227.021 48.6674 227.675 45.7487 228.451C44.107 229.982 43.2586 231.529 43.11 233.09C42.9589 234.678 43.5228 236.375 44.8991 238.199L45.5094 239.008L44.4967 239C42.8025 238.988 41.4786 238.228 40.5749 236.763L40.5397 236.706L40.5202 236.642C39.775 234.127 39.9506 231.669 41.0456 229.291L41.0895 229.195L41.1686 229.126C44.6984 226.003 48.778 223.963 53.3991 223.011L55.1813 222.643L53.8366 223.869Z" fill="#1B3C53" stroke="#1B3C53"/>
<path d="M335.979 213.854C336.225 214.668 336.655 215.222 337.251 215.567L337.528 215.729L337.498 216.048C337.16 219.547 337.808 222.78 339.438 225.76L339.555 225.973L339.46 226.195C337.048 231.879 336.062 237.801 336.499 243.965L336.507 244.082L336.462 244.19C334.81 248.199 333.113 252.772 331.461 256.694L331.058 257.65L330.562 256.739C329.777 255.302 329.094 253.25 328.529 251.668L328.451 251.449L328.568 251.248C330.065 248.684 330.543 245.994 330.019 243.157C329.6 242.284 329.064 241.643 328.417 241.212C327.878 240.853 327.243 240.627 326.502 240.54C326.477 243.368 325.81 246.06 324.502 248.613C324.51 249.643 324.738 250.506 325.167 251.222C325.611 251.962 326.289 252.576 327.228 253.055L327.886 253.391L327.329 253.877C325.805 255.206 325.197 256.87 325.495 258.929L325.591 259.589L324.93 259.495C324.045 259.37 323.208 259.492 322.406 259.861C322.262 260.294 322.119 260.726 321.975 261.158L321.399 262.884L321.177 262.968C320.001 263.413 318.79 263.605 317.551 263.545C317.584 264.314 317.46 265.015 317.15 265.634C316.759 266.416 316.101 267.017 315.221 267.449L313.924 268.085L314.55 266.783C315.203 265.424 315.833 264.051 316.446 262.666L316.413 262.43L316.545 262.444C317.788 259.625 318.952 256.753 320.031 253.827L320.524 252.489L320.975 253.842L321.719 256.074L321.951 255.842V255.841C321.19 252.499 321.383 249.161 322.527 245.837L322.528 245.834C325.118 238.489 327.448 231.164 329.519 223.863L330.498 224.04C330.364 225.713 330.464 227.367 330.79 229.002H330.791L331.037 228.756L331.038 228.754C332.002 223.618 333.333 218.645 335.028 213.834L335.535 212.396L335.979 213.854Z" fill="#1B3C53" stroke="#1B3C53"/>
<path d="M450.345 229.524C453.03 228.649 455.268 228.637 456.949 229.664C458.634 230.693 459.611 232.675 459.995 235.431L460.006 235.505L459.994 235.578C459.628 237.889 458.571 239.826 456.832 241.373L456.812 241.393L456.788 241.408C450.272 246.008 443.226 249.531 435.653 251.976L435.27 252.1L435.067 251.75C434.722 251.154 434.168 250.725 433.354 250.479L432.507 250.221L433.166 249.628C434.608 248.331 435.514 246.788 435.9 244.989C432.895 244.874 430.308 243.835 428.162 241.868L427.646 241.396L428.261 241.061C435.45 237.147 442.788 233.311 450.275 229.553L450.31 229.536L450.345 229.524Z" fill="#1B3C53" stroke="#1B3C53"/>
<path d="M187 253.81L186.724 253.947C184.152 255.23 181.413 255.914 178.515 256H178.509C174.245 256.073 170.172 255.225 166.293 253.455L166.188 253.407L166.115 253.319C165.188 252.2 164.817 250.893 165.004 249.437L165.029 249.242L165.179 249.117C169.231 245.719 173.989 243.681 179.438 243.004L179.452 243.002L179.467 243.001C185.461 242.601 191.465 242.268 197.477 242.001L197.508 241.999L197.538 242.001C208.231 242.813 218.903 243.814 229.556 245.003L229.647 245.978C227.269 246.709 224.983 247.852 222.789 249.408L222.677 249.488L222.538 249.498L216.038 249.998L215.972 250.004L215.905 249.991C207.102 248.286 197.998 247.621 188.589 247.997C188.112 248.156 187.635 248.316 187.158 248.475C186.797 248.595 186.435 248.715 186.073 248.836C186.316 250.065 186.617 251.235 186.975 252.347L187 252.421V253.81Z" fill="#1B3C53" stroke="#1B3C53"/>
<path d="M327.142 238.5C328.266 238.533 329.259 238.82 330.099 239.38C330.833 239.869 331.427 240.553 331.89 241.41L332.08 241.788L332.106 241.845L332.118 241.906C332.423 243.509 332.165 245.179 331.646 246.767C331.191 248.164 330.525 249.521 329.833 250.751C330.404 250.74 330.962 250.79 331.432 250.916C331.896 251.041 332.379 251.267 332.64 251.695C332.907 252.135 332.858 252.638 332.607 253.133C332.572 253.727 332.313 254.37 331.967 254.978C331.587 255.643 331.072 256.325 330.521 256.945C329.968 257.566 329.367 258.138 328.809 258.581C328.357 258.94 327.894 259.244 327.487 259.404C326.767 260.877 326.312 262.426 326.124 264.058L326.101 264.257L325.946 264.385C324.982 265.183 323.88 265.567 322.663 265.54C322.71 266.893 322.427 268.026 321.745 268.878C321.019 269.786 319.908 270.292 318.499 270.464C318.2 271.362 317.901 272.26 317.602 273.158L316.497 276.472L316.168 276.498C314.491 276.634 313.15 276.329 312.328 275.404C311.516 274.491 311.345 273.123 311.629 271.456C311.654 269.978 312.016 268.717 312.751 267.706C313.485 266.697 314.558 265.982 315.929 265.539C316.64 265.186 317.11 264.731 317.383 264.187C317.66 263.633 317.758 262.938 317.633 262.071L317.54 261.43L318.184 261.503C319.4 261.642 320.58 261.508 321.73 261.107C321.871 260.685 322.013 260.264 322.153 259.842C322.32 259.342 322.487 258.842 322.653 258.342L322.718 258.147L322.9 258.055C323.75 257.622 324.641 257.42 325.568 257.449C325.467 255.949 325.813 254.613 326.605 253.454C326.496 253.378 326.398 253.298 326.315 253.213C326.143 253.035 326.01 252.81 325.991 252.542C325.966 252.165 326.168 251.88 326.405 251.676C325.993 251.153 325.659 250.548 325.397 249.921C324.868 248.65 324.606 247.215 324.614 245.996L324.615 245.876L324.671 245.77C325.373 244.421 325.87 243.456 326.191 242.462C326.508 241.483 326.657 240.459 326.627 239.01L326.616 238.485L327.142 238.5ZM328.21 253.103C328.247 253.115 328.285 253.128 328.324 253.141C328.303 253.112 328.282 253.084 328.261 253.056C328.244 253.071 328.227 253.087 328.21 253.103ZM327.766 250.578C327.838 250.698 327.92 250.831 328.016 250.978C328.055 250.968 328.093 250.958 328.133 250.949C328.17 250.941 328.208 250.934 328.246 250.927C328.143 250.847 328.031 250.763 327.915 250.681C327.865 250.645 327.815 250.612 327.766 250.578Z" fill="#1B3C53" stroke="#1B3C53"/>
<path d="M428.695 241L428.838 241.132C430.929 243.048 433.471 244.007 436.498 244L437.081 243.999L436.995 244.574C436.689 246.597 435.82 248.349 434.401 249.822C435.054 250.152 435.572 250.625 435.933 251.249L436.333 251.941L435.537 251.999C433.212 252.167 430.9 252.497 428.605 252.989L428.478 253.017L428.353 252.978C424.277 251.725 420.16 250.765 416 250.089V252.965L415.537 252.999C414.65 253.064 413.887 253.03 413.263 252.878C412.638 252.725 412.117 252.444 411.776 251.989C411.431 251.53 411.321 250.962 411.384 250.342C411.446 249.729 411.679 249.037 412.051 248.279L412.164 248.052L412.414 248.008C417.978 247.03 422.896 244.735 427.177 241.118L427.317 241H428.695Z" fill="#1B3C53" stroke="#1B3C53"/>
<path d="M265.79 222.046C268.03 221.009 270.078 220.718 271.899 221.264C273.61 221.777 275.039 223.005 276.203 224.868L276.433 225.249L276.479 225.331L276.494 225.424C276.961 228.468 276.259 231.269 274.403 233.796L274.396 233.806L274.389 233.815C262.342 248.657 246.697 256.059 227.498 256H227.472L227.444 255.997C217.332 254.863 207.188 253.864 197.014 253.002C193.527 253.499 190.03 253.831 186.523 253.999L186 254.025V252.022L186.478 252C201.432 251.333 216.403 251.166 231.391 251.497C234.142 250.217 236.143 249.135 237.413 248.248C238.059 247.797 238.488 247.417 238.732 247.108C238.986 246.787 238.965 246.642 238.955 246.609C238.941 246.563 238.857 246.417 238.444 246.258C238.05 246.106 237.461 245.985 236.651 245.906C235.038 245.75 232.672 245.778 229.535 245.999L229.489 246.002L229.444 245.997C218.813 244.811 208.163 243.811 197.492 243C191.497 243.267 185.511 243.6 179.533 243.999L178.598 244.062L179.067 243.249C179.558 242.402 180.336 241.831 181.354 241.522L181.379 241.515L181.403 241.51C186.053 240.59 190.75 240.087 195.491 240H195.509L195.527 240.001C206.412 240.589 217.242 241.587 228.019 242.997C235.364 242.575 242.473 241.251 249.346 239.025L250.958 238.502L249.888 239.816C247.915 242.238 245.44 243.949 242.477 244.957C245.194 245.585 247.853 246.095 250.456 246.486C251.863 246.015 252.763 245.377 253.247 244.615C253.735 243.848 253.854 242.875 253.518 241.631L253.077 240.003L254.333 241.127C255.514 242.184 256.083 243.502 256.033 245.041C257.196 245.099 257.947 244.846 258.396 244.397C258.905 243.888 259.163 242.994 259.003 241.555L258.932 240.914L259.57 241.005C261.562 241.288 263.449 240.976 265.245 240.068C266.245 239.432 266.734 238.781 266.862 238.138C266.991 237.496 266.788 236.727 266.099 235.798L265.656 235.201L266.375 235.016C269.497 234.209 271.435 232.857 272.345 231.038C273.239 229.249 273.202 226.879 272.095 223.852C271.451 223.516 270.78 223.246 270.082 223.043C266.688 225.272 265.003 228.406 265 232.5V233.021L264.479 232.999C262.007 232.898 259.781 233.535 257.784 234.911L257.113 234.184C260.145 230.474 262.966 226.492 265.573 222.238L265.652 222.11L265.79 222.046Z" fill="#1B3C53" stroke="#1B3C53"/>
<path d="M229.465 245.001C232.617 244.779 235.05 244.747 236.748 244.911C237.594 244.993 238.288 245.126 238.805 245.325C239.303 245.517 239.759 245.818 239.911 246.314C240.067 246.822 239.842 247.316 239.518 247.726C239.184 248.149 238.663 248.596 237.986 249.068C236.628 250.017 234.529 251.146 231.711 252.454L231.605 252.503L231.489 252.5C216.483 252.165 201.494 252.332 186.522 253L186.142 253.017L186.024 252.653C185.61 251.369 185.272 250.015 185.009 248.591L184.929 248.163L188.409 247.003L188.479 247.001C197.963 246.616 207.146 247.281 216.029 248.996C217.09 248.914 218.151 248.833 219.212 248.752C220.25 248.672 221.288 248.592 222.326 248.512C224.565 246.939 226.908 245.774 229.354 245.022L229.408 245.005L229.465 245.001Z" fill="#1B3C53" stroke="#1B3C53"/>
<path d="M128.098 231.502C128.793 231.241 129.54 231.227 130.32 231.426L130.657 231.525L130.735 231.55L130.8 231.6L134.8 234.6L135.17 234.878L134.921 235.268C133.109 238.116 132.779 241.077 133.92 244.196C135.416 245.371 136.511 246.826 137.197 248.556C137.546 248.277 137.952 248.09 138.412 248.007L138.9 247.921L138.992 248.408C139.629 251.793 140.13 255.138 140.497 258.445L140.529 258.733L140.295 258.904C139.18 259.719 137.98 260.404 136.699 260.959L136.339 261.114L136.102 260.803C134.684 258.945 133.049 257.31 131.197 255.897L130.937 255.699L131.014 255.382C131.467 253.526 132.124 251.705 132.985 249.918C132.704 247.603 131.943 246.021 130.772 245.07C129.581 244.102 127.874 243.71 125.561 243.996L125.05 244.059L125.003 243.547C124.676 240.084 125.015 236.685 126.021 233.355L126.043 233.284L126.085 233.221C126.641 232.391 127.308 231.798 128.098 231.502Z" fill="#1B3C53" stroke="#1B3C53"/>
<path d="M395.491 251.995C399.029 251.404 402.777 251.224 406.735 251.451L407.535 251.501L407.824 251.522L407.95 251.783C408.67 253.271 408.954 254.743 408.773 256.187C408.593 257.63 407.953 259.008 406.888 260.316L406.76 260.473L406.558 260.496C402.211 260.998 397.852 261.166 393.48 260.999L393.428 260.997L393.376 260.984C390.246 260.179 386.9 259.176 383.34 257.974L383 257.859V254.012L383.488 254C385.898 253.943 388.258 254.275 390.564 254.996C391.068 254.978 391.461 254.922 391.755 254.832C392.065 254.738 392.228 254.621 392.31 254.519C392.434 254.363 392.514 254.021 392.067 253.251L391.803 252.794L392.273 252.554C393.289 252.037 394.366 251.85 395.491 251.995Z" fill="#1B3C53" stroke="#1B3C53"/>
<path d="M342.63 247.018C358.317 251.243 374.257 252.57 390.452 251.002L390.586 251.992C380.746 253.704 370.554 254.706 360.014 255L359.819 255.005L359.673 254.878C358.168 253.573 356.455 252.952 354.513 253L354.477 253.001L354.441 252.996C350.501 252.527 346.714 251.552 343.081 250.072C342.061 250.877 341.345 251.78 340.916 252.782C340.481 253.796 340.33 254.935 340.472 256.213C342.594 257.626 344.403 259.285 345.894 261.192L346.43 261.878L345.567 261.995C343.532 262.273 341.704 262.069 340.104 261.357C338.502 260.645 337.162 259.441 336.08 257.772L335.968 257.599L336.011 257.396C336.697 254.152 337.884 251.102 339.569 248.246L339.618 248.163L339.694 248.104C340.494 247.488 341.414 247.121 342.443 247.003L342.538 246.992L342.63 247.018Z" fill="#1B3C53" stroke="#1B3C53"/>
<path d="M390.427 251.005C392.447 250.706 394.243 251.055 395.779 252.085L395.43 252.995C394.647 252.884 393.901 252.968 393.183 253.245C393.473 253.924 393.526 254.599 393.09 255.143C392.839 255.458 392.468 255.66 392.045 255.789C391.62 255.918 391.105 255.984 390.513 256L390.429 256.002L390.349 255.976C388.276 255.319 386.159 254.992 384 254.994V257.139C387.413 258.284 390.622 259.244 393.624 260.016L394.179 260.159L393.963 260.689C393.757 261.195 393.431 261.594 392.967 261.826C392.522 262.049 392.006 262.088 391.457 261.999C382.336 261.789 373.855 261.789 366.013 262L365.867 262.004L365.741 261.927C363.44 260.533 361.306 258.9 359.337 257.033C353.777 257.961 348.156 258.285 342.475 258L342.039 257.977L342.002 257.543C341.926 256.651 342.068 255.848 342.461 255.159C342.855 254.47 343.475 253.939 344.283 253.549L344.334 253.525L344.39 253.512C347.137 252.895 349.852 253.053 352.527 253.981C352.998 253.868 353.33 253.687 353.556 253.462C353.797 253.221 353.954 252.894 354.003 252.445L354.051 252.011L354.488 252.001C356.619 251.948 358.52 252.617 360.173 253.994C370.602 253.695 380.683 252.7 390.414 251.007L390.427 251.005Z" fill="#1B3C53" stroke="#1B3C53"/>
<path d="M161.681 253.034L170.682 256.534L170.737 256.556L170.787 256.591C171.387 257.011 171.823 257.543 171.823 258.202C171.823 258.835 171.418 259.386 170.849 259.859C168.35 262.641 165.287 264.679 161.668 265.971L161.647 265.979L161.627 265.983C158.839 266.715 155.998 267.384 153.103 267.989L153.033 268.004L152.962 267.999C148.82 267.685 144.928 266.669 141.287 264.952L141 264.817V259.995L141.505 260C146.442 260.049 151.329 259.567 156.166 258.558C157.37 256.247 159.062 254.414 161.238 253.074L161.449 252.944L161.681 253.034Z" fill="#1B3C53" stroke="#1B3C53"/>
<path d="M427.822 241.882C423.471 245.558 418.474 247.911 412.842 248.944C412.567 249.544 412.421 250.041 412.38 250.442C412.335 250.885 412.421 251.182 412.576 251.389C412.735 251.6 413.018 251.788 413.501 251.906C413.891 252.001 414.388 252.043 415 252.024V248.916L415.577 249.006C419.938 249.686 424.252 250.68 428.521 251.984C430.82 251.497 433.135 251.17 435.464 251.001L435.731 251.943C423.31 258.436 409.92 262.621 395.564 264.496L395.545 264.498L395.525 264.499C382.176 265.167 368.824 265.167 355.475 264.499H355.469C352.105 264.291 349.033 263.44 346.262 261.939L346.535 261.001C361.361 262.052 376.338 262.052 391.465 261.001L391.525 260.997L391.585 261.008C392.012 261.082 392.31 261.036 392.52 260.932C392.722 260.83 392.902 260.643 393.037 260.312L393.169 259.987L393.52 260C397.771 260.162 402.01 260.003 406.237 259.525C407.129 258.385 407.635 257.232 407.781 256.062C407.924 254.92 407.729 253.728 407.172 252.479C403.069 252.211 399.206 252.382 395.583 252.993L395.387 253.026L395.222 252.915C393.92 252.043 392.383 251.726 390.573 251.994L390.419 251.007C402.997 248.952 415.298 245.628 427.321 241.033L427.822 241.882Z" fill="#1B3C53" stroke="#1B3C53"/>
<path d="M138.905 248.207C141.827 252.252 145.519 255.487 149.981 257.919C154.985 254.718 160.08 251.763 165.269 249.057L166.118 248.613L165.996 249.563C165.848 250.712 166.12 251.71 166.813 252.591C170.525 254.266 174.415 255.07 178.491 255L179.981 254.975L178.809 255.894C176.406 257.777 173.68 259.139 170.634 259.981L170.184 259.112C170.695 258.694 170.823 258.39 170.823 258.202C170.823 258.034 170.717 257.775 170.255 257.44C167.351 256.31 164.451 255.183 161.556 254.058C159.575 255.328 158.039 257.046 156.947 259.224L156.839 259.439L156.604 259.489C151.785 260.512 146.917 261.014 142 261.001V264.179C145.425 265.752 149.079 266.692 152.97 266.995C155.824 266.397 158.625 265.737 161.373 265.017L161.799 265.901C158.4 268.43 154.497 270.125 150.097 270.99L149.983 271.013L149.871 270.983C140.436 268.469 133.163 263.055 128.074 254.762L127.577 253.952L128.525 254.001C129.574 254.055 130.539 254.338 131.413 254.853L131.782 255.088L131.793 255.095L131.804 255.103C133.622 256.489 135.239 258.082 136.653 259.882C137.647 259.427 138.585 258.887 139.469 258.264C139.108 255.078 138.623 251.854 138.009 248.593L138.905 248.207Z" fill="#1B3C53" stroke="#1B3C53"/>
<path d="M343.192 249.038C346.822 250.545 350.61 251.534 354.559 252.004L355.051 252.062L354.997 252.555C354.927 253.192 354.69 253.742 354.264 254.168C353.842 254.589 353.273 254.853 352.6 254.99L352.463 255.018L352.332 254.971C349.807 254.069 347.255 253.904 344.666 254.476C344.029 254.792 343.595 255.19 343.329 255.655C343.113 256.034 342.993 256.485 342.984 257.021C348.52 257.267 353.998 256.929 359.416 256.007L359.664 255.965L359.847 256.14C361.778 257.996 363.876 259.614 366.137 260.996C373.964 260.789 382.423 260.79 391.512 261L391.534 261.999C376.374 263.053 361.348 263.554 346.465 262.499L346.401 262.494L346.342 262.475L344.698 261.927L344.606 261.808C343.105 259.887 341.815 258.282 339.727 256.919L339.535 256.794L339.504 256.567C339.298 255.048 339.456 253.649 339.996 252.388C340.537 251.127 341.447 250.032 342.701 249.099L342.929 248.93L343.192 249.038Z" fill="#1B3C53" stroke="#1B3C53"/>
<path d="M124.443 262.003C125.804 261.848 127.133 261.993 128.42 262.439L128.677 262.533L128.757 262.563L128.823 262.618C132.035 265.33 135.048 268.176 137.864 271.157L138.018 271.32L137.998 271.543C137.926 272.38 138.197 273.059 138.833 273.627L139.537 274.255L138.621 274.485L136.621 274.985L136.505 275.014L136.388 274.987C130.977 273.744 125.722 273.746 120.618 274.986L120.558 275.001L120.496 275C113.824 274.954 107.177 275.288 100.553 275.998L100.179 276.038L100.037 275.689C99.9019 275.357 99.7226 275.169 99.5199 275.068C99.3105 274.963 99.0119 274.919 98.5853 274.993L98.3431 275.035L98.1624 274.869C96.6064 273.444 95.8841 271.631 96.0003 269.473L96.0296 268.94L96.5599 269.003C104.854 270 112.417 268.682 119.266 265.058L119.463 264.954L119.672 265.031C122.061 265.905 124.488 266.154 126.961 265.788C125.711 265.03 124.739 264.012 124.059 262.735L123.713 262.086L124.443 262.003Z" fill="#1B3C53" stroke="#1B3C53"/>
<path d="M74.3555 268.021C90.5508 263.12 107.275 261.114 124.525 262.001L124.809 262.016L124.941 262.266C125.729 263.746 126.968 264.837 128.688 265.537L130.125 266.121L128.617 266.486C125.533 267.233 122.503 267.084 119.538 266.042C112.7 269.611 105.18 270.946 96.9912 270.058C97.0242 271.687 97.6383 273.033 98.8379 274.131L99.8672 275.074L98.4736 274.999C94.0737 274.763 89.809 275.42 85.6758 276.969L85.4336 277.059L85.2197 276.914C83.9965 276.087 83.0036 275.858 82.1982 276.059C81.3934 276.261 80.6275 276.928 79.9424 278.232L79.8447 278.42L79.6416 278.479C77.085 279.236 74.6065 279.124 72.2246 278.142C72.1328 278.374 72.1188 278.57 72.1523 278.738C72.2035 278.994 72.385 279.287 72.8018 279.601L73.7285 280.302L72.582 280.493L69.582 280.993L69.4424 281.017L69.3115 280.963C66.6213 279.87 63.8419 278.887 60.9736 278.015C60.5983 278.09 60.2228 278.165 59.8477 278.24C59.7901 278.252 59.7324 278.263 59.6748 278.274C59.7983 278.434 59.8964 278.631 59.8965 278.865C59.8965 279.218 59.6778 279.467 59.4609 279.62C59.245 279.773 58.959 279.888 58.6387 279.98L58.4375 280.039L58.2549 279.935C57.0556 279.26 56.0086 278.388 55.1162 277.32L54.5703 276.667L55.4072 276.509C58.196 275.981 60.8088 275.002 63.2471 273.569L63.3018 273.536L63.3633 273.519C65.9903 272.774 68.4178 273.135 70.6074 274.596C71.0108 271.972 72.1976 269.804 74.1758 268.119L74.2549 268.052L74.3555 268.021Z" fill="#1B3C53" stroke="#1B3C53"/>
<path d="M167.128 269.017C175.263 271.167 183.118 273.842 190.694 277.039L191.76 277.489L190.702 277.957C187.787 279.248 184.777 280.253 181.674 280.972C178.504 282.644 175.476 283.25 172.607 282.729C169.859 282.229 167.318 280.704 164.979 278.214C164.595 278.543 164.157 278.796 163.668 278.971L163.438 279.054L163.23 278.921C162.586 278.509 162.092 277.977 162.092 277.295C162.092 276.951 162.219 276.634 162.429 276.345C160.667 276.153 158.915 276.361 157.165 276.972L157.052 277.012L156.934 276.995C156.182 276.895 155.536 276.657 155.03 276.252C154.519 275.843 154.185 275.29 154.016 274.623L153.92 274.248L154.26 274.062C158.185 271.907 162.389 270.226 166.87 269.018L166.999 268.982L167.128 269.017Z" fill="#1B3C53" stroke="#1B3C53"/>
<path d="M137.816 271.113C143.625 275.862 148.615 274.497 154.458 274.002L154.881 273.966L154.984 274.377C155.106 274.858 155.333 275.214 155.655 275.472C155.963 275.718 156.388 275.897 156.957 275.987C159.152 275.243 161.367 275.081 163.595 275.509L164.716 275.725L163.797 276.402C163.221 276.827 163.092 277.129 163.092 277.295C163.092 277.425 163.175 277.645 163.562 277.936C163.972 277.754 164.327 277.498 164.63 277.164L165.002 276.753L165.372 277.166C167.7 279.764 170.173 281.269 172.787 281.744C175.4 282.219 178.22 281.677 181.266 280.059L181.569 279.896L181.829 280.124C182.767 280.945 183.943 281.254 185.417 281.007L186 280.909V284.939L185.563 284.996C184.355 285.151 183.252 284.921 182.271 284.31C182.231 284.542 182.23 284.763 182.266 284.976C182.331 285.367 182.524 285.766 182.877 286.172L184.03 287.497L182.353 286.978C170.522 283.313 158.537 280.149 146.396 277.488V277.489C137.86 275.682 129.231 274.853 120.509 275L120.382 274.014C125.607 272.745 130.979 272.738 136.491 273.986C136.787 273.912 137.083 273.839 137.379 273.765C137.445 273.748 137.512 273.73 137.578 273.714C137.124 273.064 136.929 272.306 137.002 271.457L137.083 270.514L137.816 271.113Z" fill="#1B3C53" stroke="#1B3C53"/>
<path d="M324.473 245.163C323.357 248.403 323.196 251.638 323.985 254.882L324.053 255.155L323.854 255.354L322.281 256.926L321.472 254.497C319.953 258.503 318.28 262.41 316.45 266.217L316.357 266.411L316.151 266.477C314.916 266.868 314.024 267.481 313.433 268.294C312.84 269.108 312.517 270.168 312.5 271.507L312.499 271.547L312.492 271.586C312.218 273.163 312.434 274.161 312.948 274.74C313.423 275.274 314.268 275.581 315.632 275.521C315.93 274.628 316.228 273.735 316.525 272.842C316.859 271.842 317.192 270.842 317.525 269.842L317.63 269.529L317.959 269.502C319.363 269.386 320.286 268.942 320.837 268.253C321.391 267.56 321.646 266.522 321.502 265.049L321.441 264.424L322.063 264.504C323.186 264.648 324.165 264.393 325.031 263.733C325.255 261.996 325.761 260.342 326.554 258.774L326.655 258.573L326.874 258.517C327.176 258.438 327.321 258.347 327.399 258.273C327.473 258.204 327.525 258.115 327.572 257.957C327.628 257.77 327.654 257.591 327.723 257.28C327.773 257.052 327.842 256.793 327.953 256.511C327.681 255.9 327.572 255.329 327.648 254.823C327.737 254.239 328.067 253.788 328.561 253.526C329.498 253.03 330.894 253.265 332.255 254.069L332.655 254.307L332.447 254.723C326.198 267.281 319.188 279.801 311.414 291.28L310.37 292.822L310.501 290.965C310.621 289.269 310.95 287.606 311.483 285.974C311.301 285.1 311.075 284.431 310.815 283.95C310.543 283.446 310.258 283.189 309.988 283.081C309.729 282.977 309.399 282.978 308.956 283.171C308.505 283.368 307.969 283.751 307.35 284.357L306.996 284.703L304.938 282.645C304.035 283.256 303.148 283.848 302.273 284.419L301.571 283.742C309.276 270.946 316.605 257.954 323.558 244.767L324.473 245.163Z" fill="#1B3C53" stroke="#1B3C53"/>
<path d="M74.8242 268.881C72.8467 270.565 71.7366 272.773 71.498 275.543L71.418 276.471L70.6895 275.892C68.586 274.221 66.2686 273.75 63.6865 274.468C61.4217 275.79 59.012 276.737 56.458 277.311C57.0876 277.952 57.7883 278.498 58.5605 278.954C58.6837 278.91 58.7727 278.868 58.835 278.832C58.8317 278.829 58.8288 278.825 58.8252 278.821C58.7217 278.721 58.541 278.592 58.2598 278.438L57.0557 277.779L58.4014 277.51C58.8182 277.426 59.2357 277.343 59.6523 277.26C60.0688 277.177 60.4851 277.093 60.9014 277.01L61.0244 276.985L61.1445 277.021C64.036 277.897 66.8396 278.885 69.5547 279.983C70.0091 279.908 70.4637 279.832 70.918 279.757C71.1062 279.725 71.2942 279.693 71.4824 279.662C71.3322 279.438 71.2242 279.196 71.1719 278.935C71.0554 278.352 71.2256 277.774 71.5811 277.228L71.8164 276.865L72.209 277.046C74.4368 278.068 76.7468 278.245 79.1621 277.574C79.8967 276.252 80.8159 275.375 81.9561 275.09C83.0865 274.807 84.3017 275.14 85.5645 275.944C89.7356 274.417 94.04 273.767 98.4746 273.998C99.017 273.913 99.5268 273.953 99.9678 274.174C100.431 274.406 100.756 274.806 100.963 275.312L101.203 275.9L100.574 275.994C82.5339 278.684 65.2504 284.169 48.7236 292.447L48.6621 292.479L48.5938 292.491C46.108 292.963 44.0693 292.706 42.5791 291.588C41.0897 290.471 40.2632 288.581 40.0029 286.051L39.998 286.011L40.001 285.97C40.1223 283.968 40.8294 282.198 42.1182 280.677L42.2012 280.58L42.3193 280.534C48.2787 278.228 53.186 276.926 58.2236 273.583L58.5645 273.357L58.7139 273.507C58.7759 273.469 58.8556 273.417 58.959 273.343C59.0906 273.249 59.283 273.109 59.4707 273.026C59.5828 272.977 59.784 272.913 59.9971 272.954C64.6419 270.895 69.436 269.248 74.3789 268.015L74.8242 268.881Z" fill="#1B3C53" stroke="#1B3C53"/>
<path d="M190.652 277.023C218.541 285.953 246.646 294.42 274.968 302.424L280.635 304.019L280.89 304.09L280.974 304.341C282.246 308.13 281.538 311.645 278.884 314.82L278.779 314.945L278.621 314.985L274.621 315.985L274.519 316.011L274.414 315.992C267.799 314.844 261.436 313.171 255.33 310.971L255.101 310.888L255.024 310.655C254.55 309.205 253.907 307.918 253.095 306.793L252.823 306.417L253.178 306.118C253.825 305.572 254.394 304.889 254.887 304.062C253.861 302.864 253.245 301.502 253.048 299.986C250.441 299.882 247.958 299.255 245.6 298.106V298.107L243.504 300.203L243.15 299.857C241.832 298.568 240.262 297.782 238.423 297.494L237.277 297.314L238.194 296.604C238.546 296.332 238.769 296.101 238.893 295.916C239.015 295.732 239.011 295.639 239.004 295.605C238.997 295.571 238.964 295.482 238.779 295.357C238.619 295.249 238.376 295.14 238.037 295.034C236.628 295.706 235.275 296.04 233.984 296L233.688 295.99L233.555 295.727C233.115 294.863 232.914 293.955 232.952 293.011C226.066 293.157 219.542 292.485 213.382 290.985L212.795 290.843L213.045 290.293C213.524 289.239 214.254 288.458 215.22 287.956C214.661 287.725 214.18 287.58 213.775 287.511C213.131 287.401 212.754 287.5 212.536 287.669C212.322 287.836 212.144 288.165 212.109 288.795C212.075 289.424 212.191 290.277 212.483 291.371L212.836 292.691L211.714 291.91C209.482 290.356 207.071 289.063 204.479 288.03C204.335 288.079 204.233 288.126 204.164 288.166C204.168 288.17 204.171 288.175 204.175 288.179C204.278 288.279 204.459 288.408 204.74 288.562L205.862 289.175L204.621 289.485C203.955 289.652 203.288 289.819 202.621 289.985C202.52 290.011 202.418 290.035 202.316 290.061C206.046 291.392 209.23 293.423 211.86 296.153L213.086 297.426L211.375 296.984C201.401 294.409 191.71 291.067 182.3 286.958L182.196 286.913L182.123 286.828C181.674 286.311 181.381 285.748 181.279 285.14C181.178 284.53 181.275 283.912 181.542 283.3L181.808 282.691L182.319 283.115C183.109 283.769 183.995 284.075 185 284.039V282.065C183.522 282.19 182.231 281.803 181.171 280.876L180.435 280.232L181.388 280.013C184.451 279.307 187.421 278.317 190.298 277.043L190.472 276.966L190.652 277.023Z" fill="#1B3C53" stroke="#1B3C53"/>
<path d="M211.923 286.88C212.455 286.466 213.165 286.393 213.943 286.525C214.726 286.658 215.658 287.01 216.727 287.554L217.899 288.151L216.626 288.484C215.57 288.76 214.786 289.315 214.249 290.162C220.298 291.573 226.71 292.187 233.486 292L234.078 291.984L233.995 292.57C233.875 293.42 233.982 294.227 234.318 295.001C235.379 294.979 236.53 294.67 237.778 294.052L237.95 293.967L238.135 294.018C238.617 294.153 239.026 294.319 239.338 294.529C239.651 294.74 239.909 295.027 239.985 295.41C240.062 295.793 239.934 296.157 239.725 296.47C239.672 296.55 239.612 296.628 239.546 296.707C241.024 297.086 242.339 297.786 243.486 298.805C243.487 298.804 243.489 298.804 243.49 298.803L245.403 296.889L245.728 297.054C248.028 298.227 250.449 298.87 252.997 298.984L253.509 299L253.965 299.008L253.999 299.463C254.116 301.045 254.733 302.439 255.866 303.66L256.112 303.925L255.938 304.241C255.357 305.299 254.653 306.182 253.822 306.883L253.795 306.906L253.764 306.925C252.063 307.98 250.235 308.162 248.329 307.47L248.225 307.431L248.146 307.352C244.948 304.136 241.075 302.521 236.498 302.5L236.386 301.513C237.043 301.36 237.536 301.18 237.884 300.985C238.233 300.79 238.395 300.602 238.461 300.449C238.52 300.311 238.531 300.131 238.419 299.869C238.328 299.656 238.16 299.406 237.898 299.117C236.861 299.638 235.737 299.932 234.527 299.999L234.423 300.005L234.325 299.969C231.139 298.78 228.042 297.479 225.032 296.066C223.661 296.913 222.195 297.554 220.632 297.982L220.458 298.03L220.294 297.956C217.917 296.88 215.745 296.894 213.731 297.943L213.662 297.979L213.585 297.993C213.02 298.091 212.489 298.055 212.032 297.826C211.599 297.609 211.289 297.247 211.081 296.788C208.205 293.823 204.637 291.718 200.361 290.48L198.579 289.965L200.379 289.514C201.045 289.348 201.712 289.182 202.379 289.015C202.706 288.934 203.033 288.851 203.36 288.769C203.221 288.603 203.103 288.39 203.103 288.135C203.103 287.781 203.321 287.534 203.538 287.381C203.754 287.228 204.041 287.112 204.361 287.019L204.524 286.972L204.683 287.035C207.006 287.948 209.191 289.066 211.237 290.387C211.129 289.77 211.084 289.22 211.11 288.741C211.153 287.963 211.387 287.296 211.923 286.88Z" fill="#1B3C53" stroke="#1B3C53"/>
<path d="M449.386 282.514C451.577 282 453.437 281.805 454.949 281.955C456.465 282.105 457.671 282.607 458.489 283.52C459.307 284.435 459.671 285.689 459.65 287.21C459.63 288.727 459.228 290.551 458.471 292.668L458.425 292.798L458.319 292.885C453.015 297.284 447.131 300.646 440.669 302.971L440.276 303.112L440.067 302.751C439.722 302.155 439.168 301.725 438.354 301.478L437.498 301.219L438.169 300.625C440.251 298.784 441.032 297.303 440.896 296.154C440.768 295.06 439.764 293.988 437.485 293.036C434.582 294.097 431.6 294.752 428.54 294.998L428.265 294.059C435.272 290.327 442.269 286.497 449.255 282.564L449.316 282.529L449.386 282.514Z" fill="#1B3C53" stroke="#1B3C53"/>
<path d="M306.512 283.805C307.045 283.327 307.56 282.97 308.056 282.754C308.67 282.486 309.287 282.423 309.86 282.652C310.424 282.878 310.859 283.351 311.195 283.975C311.532 284.599 311.793 285.415 311.99 286.402L312.017 286.532L311.975 286.658C311.442 288.254 311.116 289.879 310.999 291.535L310.991 291.639L310.943 291.73C306.828 299.637 302.49 307.315 297.927 314.762L297.801 314.966L297.563 314.996C296.276 315.162 295.106 314.891 294.079 314.186C292.717 315.777 291.096 317.034 289.219 317.949L288.586 318.258L288.504 317.559C288.415 316.809 288.31 316.251 288.194 315.87C288.15 315.723 288.103 315.615 288.064 315.535C288.064 315.536 288.063 315.537 288.062 315.538C287.904 315.736 287.702 316.106 287.463 316.689L287.159 317.43L286.627 316.833C286.06 316.197 285.38 315.926 284.543 315.998L283.738 316.067L284.035 315.316C288.41 304.246 294.096 293.876 301.095 284.207L301.149 284.132L301.227 284.081C302.206 283.442 303.203 282.778 304.219 282.087L304.561 281.854L306.512 283.805Z" fill="#1B3C53" stroke="#1B3C53"/>
<path d="M437.687 292.036C440.143 293.028 441.689 294.326 441.89 296.037C442.069 297.558 441.149 299.161 439.417 300.831C440.063 301.161 440.575 301.631 440.933 302.249L441.111 302.558L440.878 302.827C439.782 304.096 438.341 304.815 436.588 304.993C430.129 306.64 423.641 308.305 417.124 309.984L416.959 310.026L416.802 309.959C415.706 309.488 414.584 309.167 413.436 308.995C412.88 308.943 412.399 308.837 412.032 308.646C411.647 308.447 411.348 308.133 411.273 307.686C411.203 307.268 411.349 306.844 411.58 306.449C411.817 306.047 412.179 305.612 412.647 305.146L412.697 305.097L412.758 305.062C414.168 304.284 415.506 303.404 416.778 302.427C416.369 302.002 415.886 301.682 415.322 301.467L415.443 300.503C417.124 300.31 418.718 299.833 420.23 299.074C422.498 297.226 424.834 295.559 427.237 294.074L427.358 294H428.482C431.508 293.754 434.455 293.099 437.326 292.031L437.507 291.964L437.687 292.036Z" fill="#1B3C53" stroke="#1B3C53"/>
<path opacity="0.998" d="M225.214 295.048C228.242 296.477 231.361 297.791 234.572 298.992C235.732 298.915 236.79 298.607 237.755 298.064L238.082 297.88L238.35 298.143C238.805 298.589 239.148 299.033 239.338 299.475C239.532 299.927 239.572 300.398 239.381 300.843C239.246 301.157 239.013 301.417 238.719 301.635C242.574 302.096 245.93 303.741 248.769 306.562C250.355 307.11 251.83 306.948 253.236 306.075L253.633 305.829L253.905 306.207C254.783 307.424 255.472 308.805 255.976 310.345L256.253 311.193L255.384 310.986C240.994 307.56 226.972 303.221 213.32 297.967L212.286 297.568L213.269 297.057C215.539 295.873 217.975 295.863 220.53 296.97C222.024 296.544 223.424 295.915 224.73 295.079L224.963 294.93L225.214 295.048Z" fill="#1B3C53" stroke="#1B3C53"/>
<path d="M314.567 295.505C326.186 297.075 337.546 299.58 348.648 303.022L348.536 303.999C346.879 304.116 345.254 304.442 343.659 304.975L343.499 305.027L343.341 304.974C335.69 302.407 327.91 300.448 320 299.093V300.949C320.773 300.908 321.481 301.031 322.109 301.345C322.89 301.735 323.498 302.393 323.946 303.273L324.154 303.683L323.763 303.925C322.804 304.52 321.809 304.829 320.786 304.829C319.859 304.829 318.937 304.573 318.024 304.084C317.858 304.194 317.693 304.306 317.528 304.416C317.456 304.464 317.383 304.512 317.311 304.56C317.918 305.012 318.607 305.158 319.409 305.009L320 304.898V307.985C324.752 307.854 329.333 308.438 333.742 309.743L334.653 310.023L334.788 310.067L334.88 310.176C336.11 311.619 337.683 312.564 339.614 313.013L339.428 313.995C329.533 312.564 319.836 310.223 310.338 306.973L310.063 306.879L310.008 306.593C309.604 304.44 309.745 302.434 310.449 300.587C311.151 298.742 312.405 297.086 314.181 295.615L314.35 295.476L314.567 295.505Z" fill="#1B3C53" stroke="#1B3C53"/>
<path d="M319.583 298.007C327.691 299.364 335.664 301.353 343.502 303.974C345.125 303.446 346.779 303.12 348.465 303.001L348.482 303H351.333L350.941 303.735C350.033 305.441 348.606 306.683 346.688 307.463L346.63 307.487L346.567 307.495C343.08 307.972 339.579 308.146 336.064 308.021C336.092 308.501 336.043 308.954 335.902 309.376C335.702 309.977 335.331 310.484 334.809 310.894L334.6 311.057L334.348 310.977C329.615 309.461 324.673 308.801 319.52 309L319 309.02V306.059C317.901 306.109 316.933 305.699 316.134 304.841L315.733 304.41L317.983 302.91L318.253 303.069C319.132 303.586 319.975 303.829 320.787 303.829C321.459 303.829 322.132 303.659 322.812 303.311C322.485 302.809 322.1 302.459 321.661 302.239C321.107 301.962 320.421 301.867 319.574 301.994L319 302.081V297.909L319.583 298.007Z" fill="#1B3C53" stroke="#1B3C53"/>
<path d="M407.452 302.247C408.531 302.051 409.645 302.361 410.77 303.079L411.104 303.293L410.971 303.668C410.734 304.331 410.354 304.901 409.836 305.371L409.723 305.474L409.57 305.495C408.404 305.661 407.237 305.828 406.07 305.995C405.253 306.112 404.435 306.228 403.617 306.345C405.959 308.377 408.606 309.594 411.568 310.005L412.778 310.173L411.799 310.901C409.369 312.709 406.57 313.405 403.436 312.996L403 312.939V309.954C400.959 309.796 399.031 310.131 397.206 310.956L396.976 311.059L396.755 310.935C393.666 309.197 390.477 308.88 387.156 309.974L387.025 310.018L386.892 309.988C382.491 309.006 378.036 308.344 373.528 308.004C366.383 309.501 359.122 310.33 351.742 310.493C351.172 311.181 350.482 311.679 349.669 311.971L349.659 311.974V311.974C347.674 312.641 345.621 312.982 343.504 313L343 313.004V308.073L343.422 308.006C345.563 307.667 347.379 308.19 348.82 309.573C349.345 308.39 350.139 307.397 351.199 306.6L351.321 306.509L351.474 306.501C365.817 305.756 380.149 305.92 394.466 306.996C395.278 306.834 396.09 306.672 396.902 306.51C397.529 306.384 398.155 306.258 398.782 306.133C398.619 305.849 398.413 305.596 398.164 305.371L397.362 304.643L398.436 304.504C400.324 304.259 402.112 303.771 403.802 303.041L404.113 302.906L404.966 303.759C405.703 302.939 406.53 302.415 407.452 302.247Z" fill="#1B3C53" stroke="#1B3C53"/>
<path d="M427.763 294.926C425.382 296.397 423.066 298.051 420.816 299.888L420.774 299.922L420.726 299.946C419.527 300.552 418.278 300.991 416.979 301.265C417.32 301.53 417.627 301.841 417.898 302.198L418.193 302.587L417.812 302.892C416.396 304.017 414.894 305.019 413.309 305.899C412.895 306.316 412.613 306.667 412.443 306.955C412.264 307.261 412.245 307.438 412.259 307.521C412.267 307.572 412.299 307.658 412.491 307.758C412.697 307.864 413.037 307.955 413.546 308.002L414.174 308.06L413.975 308.658C413.592 309.807 412.807 310.592 411.658 310.975L411.547 311.012L411.432 310.995C407.918 310.508 404.821 308.956 402.151 306.358L401.422 305.648L402.43 305.505C403.266 305.386 404.102 305.265 404.938 305.146L403.882 304.089C402.473 304.67 401.004 305.092 399.472 305.356C399.678 305.655 399.845 305.98 399.971 306.332L400.165 306.877L399.598 306.99L394.598 307.99L394.53 308.004L394.463 307.999C380.216 306.926 365.955 306.757 351.683 307.491C350.627 308.319 349.893 309.369 349.476 310.654L349.349 311.041L349.816 311.888C349.305 312.306 349.177 312.61 349.177 312.798C349.177 312.959 349.275 313.201 349.687 313.515C351.473 313.677 353.259 313.839 355.045 314.002C356.878 314.169 358.712 314.335 360.545 314.502L360.553 315.497C358.728 315.689 357.128 316.172 355.742 316.938L355.621 317.005L355.482 317C349.895 316.809 344.519 315.802 339.355 313.979C337.239 313.481 335.487 312.429 334.119 310.824L333.781 310.428L334.191 310.106C334.573 309.807 334.82 309.459 334.953 309.061C335.087 308.658 335.115 308.172 335.008 307.59L334.895 306.973L335.522 307.001C339.152 307.164 342.766 307.001 346.366 306.513C348.058 305.812 349.279 304.729 350.059 303.265L350.223 302.956L350.569 303.005C376.978 306.696 402.558 303.706 427.318 294.034L427.763 294.926ZM348.615 310.819C347.42 309.376 345.902 308.748 344 308.939V311.985C345.679 311.928 347.312 311.655 348.9 311.164L348.615 310.819ZM409.869 303.706C409.033 303.247 408.292 303.11 407.631 303.23C406.874 303.368 406.125 303.86 405.396 304.806L405.156 305.115C405.414 305.078 405.672 305.042 405.93 305.005C407.043 304.846 408.156 304.686 409.27 304.527C409.515 304.285 409.715 304.012 409.869 303.706Z" fill="#1B3C53" stroke="#1B3C53"/>
<path d="M404 313.245L403.31 312.963C401.11 312.061 398.843 311.834 396.494 312.287L396.853 312.646L397.22 313.013L396.841 313.366C395.869 314.269 394.748 314.906 393.484 315.277L393.853 315.646L394.662 316.454L393.519 316.5C380.849 317 368.173 317.167 355.494 317L353.606 316.975L355.259 316.062C355.873 315.723 356.522 315.437 357.206 315.202C356.455 315.134 355.705 315.066 354.955 314.998C353.122 314.831 351.288 314.665 349.455 314.498L349.322 314.486L349.213 314.409C348.613 313.989 348.177 313.457 348.177 312.798C348.177 312.153 348.597 311.591 349.183 311.112L349.251 311.059L349.331 311.029C350.022 310.781 350.612 310.344 351.101 309.698L351.248 309.505L351.49 309.5C358.913 309.351 366.215 308.52 373.397 307.011L373.467 306.996L373.537 307.001C378.07 307.34 382.55 308.001 386.976 308.982C390.442 307.876 393.802 308.198 397.025 309.943C399.083 309.06 401.263 308.747 403.555 309.003L404 309.053V313.245Z" fill="#1B3C53" stroke="#1B3C53"/>
<path d="M436.709 304.954C410.587 316.939 383.49 320.955 355.43 316.995L355.507 316C367.787 316.162 380.064 316.008 392.336 315.543L391.477 314.684L392.407 314.509C393.684 314.269 394.801 313.757 395.767 312.974L394.53 311.737L395.373 311.517C398.211 310.774 400.965 310.938 403.619 312.01C406.488 312.372 409.005 311.733 411.201 310.099L411.266 310.051L411.342 310.025C412.192 309.742 412.742 309.192 413.025 308.342L413.158 307.943L413.573 308.006C414.755 308.182 415.909 308.505 417.035 308.974C423.511 307.305 429.958 305.652 436.376 304.016L436.709 304.954Z" fill="#1B3C53" stroke="#1B3C53"/>
<path d="M115.479 315C120.973 314.779 126.343 315.356 131.589 316.733L132.637 317.019L132.969 317.114L132.998 317.457C133.075 318.349 132.933 319.152 132.539 319.841C132.341 320.187 132.085 320.493 131.777 320.762C133.322 321.045 134.882 321.127 136.46 321.001L137 320.958V324.97L136.531 324.999C127.894 325.535 119.249 326.033 110.597 326.495C109.81 326.745 109.271 327.166 108.933 327.75L108.808 327.966L108.561 327.996C105.096 328.419 101.975 327.729 99.2246 325.917L98.2578 325.281L99.3848 325.013C102.583 324.256 105.937 323.771 109.446 323.556C108.705 322.704 107.929 321.792 107.116 320.821L106.62 320.227L107.365 320.019C110.491 319.144 113.071 317.528 115.123 315.171L115.265 315.009L115.479 315Z" fill="#1B3C53" stroke="#1B3C53"/>
<path d="M114.473 315.001C124.271 314.456 134.128 314.422 144.044 314.899L146.027 315.001L146.07 315.003L146.113 315.013C153.128 316.64 159.964 318.307 166.624 320.015L166.757 320.049L169.747 323.04L168.484 323C165.401 322.902 162.484 323.551 159.726 324.946L159.45 325.086L159.201 324.901C155.49 322.14 151.495 321.502 147.161 322.973L146.954 323.044L146.762 322.94C146.107 322.586 145.579 322.23 145.196 321.872C144.82 321.518 144.537 321.116 144.473 320.664C144.418 320.28 144.53 319.932 144.745 319.631C144.292 319.745 143.877 319.924 143.499 320.165C142.684 320.683 141.996 321.516 141.455 322.707L140.989 323.732L140.541 322.699C140.147 321.79 139.732 321.405 139.368 321.301C139.086 321.221 138.706 321.277 138.195 321.61C139.661 323.589 141.471 325.217 143.629 326.495C146.205 326.388 148.791 326.376 151.387 326.459L152.521 326.501L152.667 326.506L152.786 326.59C156.572 329.232 160.803 330.534 165.496 330.5L165.673 330.499L165.812 330.609C166.888 331.465 167.894 332.304 168.83 333.125L170.244 334.365L168.4 333.99C158.458 331.968 148.473 330.137 138.445 328.498C128.472 327.999 118.493 327.834 108.508 328L107.624 328.014L108.067 327.25C108.558 326.402 109.336 325.831 110.354 325.522L110.413 325.503L110.474 325.501C118.99 325.046 127.499 324.555 136 324.029V322.033C134.103 322.131 132.228 321.949 130.378 321.485L129.039 321.149L130.283 320.549C130.949 320.229 131.398 319.822 131.671 319.344C131.9 318.944 132.019 318.463 132.016 317.886C126.651 316.404 121.155 315.773 115.521 316H114.5L114.473 315.001Z" fill="#1B3C53" stroke="#1B3C53"/>
<path d="M116.599 315L115.877 315.828C113.857 318.148 111.352 319.791 108.372 320.757C109.252 321.801 110.085 322.773 110.875 323.669L111.565 324.451L110.522 324.499C106.695 324.675 103.059 325.171 99.6152 325.986L99.4248 326.031L99.2539 325.936C97.4897 324.939 96.0598 324.698 94.9121 325.057C93.7683 325.414 92.7671 326.411 91.9561 328.206L91.833 328.478L91.5352 328.499C86.5335 328.85 81.7548 330.002 77.1973 331.959L77.1055 331.999L77.0049 332C71.0616 332.057 65.1702 331.045 59.333 328.971L58.7871 328.777L59.0586 328.266C59.4176 327.59 59.7468 326.93 60.0469 326.288L60.1299 326.11L60.3115 326.037C77.5586 319.027 95.6199 315.347 114.491 315H116.599Z" fill="#1B3C53" stroke="#1B3C53"/>
<path d="M142.962 319.321C143.983 318.671 145.184 318.407 146.535 318.501L146.699 319.459C146.174 319.687 145.839 319.907 145.649 320.104C145.472 320.289 145.449 320.42 145.463 320.522C145.482 320.652 145.58 320.861 145.881 321.143C146.146 321.391 146.534 321.661 147.056 321.955C151.527 320.502 155.707 321.162 159.55 323.919C162.194 322.631 164.982 321.987 167.908 321.991L168.516 322L168.539 322.001L168.562 322.004C169.932 322.174 171.592 322.34 173.541 322.501L173.655 322.511L173.754 322.569C177.496 324.77 181.453 326.42 185.627 327.517L186.718 327.803L185.772 328.419C184.149 329.477 182.355 330.139 180.396 330.407C180.779 331.06 180.959 331.729 180.884 332.407C180.781 333.335 180.214 334.159 179.315 334.888L179.107 335.057L178.852 334.978C175.858 334.047 172.757 333.72 169.543 333.998L169.521 334H168.312L168.17 333.876C167.287 333.101 166.338 332.309 165.323 331.499C160.547 331.501 156.214 330.166 152.335 327.493C149.383 327.372 146.446 327.374 143.521 327.499L143.375 327.506L143.248 327.432C140.77 325.988 138.716 324.105 137.091 321.787L136.825 321.408L137.183 321.114C137.984 320.455 138.824 320.106 139.643 320.34C140.187 320.496 140.629 320.885 140.992 321.43C141.525 320.528 142.179 319.819 142.962 319.321Z" fill="#1B3C53" stroke="#1B3C53"/>
<path d="M294.319 313.115C295.222 313.862 296.25 314.157 297.437 314.004L298.383 313.882L297.944 314.73C293.329 323.639 289.507 332.946 286.478 342.649L286.41 342.864L286.205 342.956C283.209 344.3 280.737 344.592 278.936 343.55C277.128 342.503 276.211 340.239 276.001 337.032L275.999 336.996L276.002 336.96C276.654 328.782 279.354 321.524 284.101 315.2L284.234 315.021L284.457 315.002C285.357 314.924 286.154 315.149 286.829 315.662C286.98 315.357 287.13 315.103 287.283 314.912C287.408 314.756 287.563 314.604 287.756 314.515C287.971 314.415 288.22 314.403 288.454 314.52C288.661 314.623 288.801 314.8 288.898 314.967C288.999 315.139 289.081 315.349 289.151 315.58C289.246 315.892 289.326 316.277 289.397 316.73C291.021 315.84 292.425 314.659 293.61 313.187L293.929 312.791L294.319 313.115Z" fill="#1B3C53" stroke="#1B3C53"/>
<path d="M166.607 320.012C180.234 323.004 193.268 327.348 205.708 333.045L205.433 333.995C198.71 333.084 192.154 333.077 185.764 333.969C185.286 334.574 185.132 335.087 185.188 335.529C185.241 335.955 185.5 336.417 186.065 336.907C186.636 336.622 187.206 336.338 187.776 336.053C188.443 335.719 189.11 335.386 189.776 335.053L190.176 334.853L190.419 335.228C190.774 335.774 190.945 336.352 190.828 336.935C190.767 337.241 190.631 337.52 190.438 337.775C193.146 338.647 195.816 339.576 198.446 340.564L199.68 341.033L199.715 341.047L199.747 341.065C201.897 342.288 203.918 343.634 205.808 345.105L205.354 345.979C193.197 342.276 181.188 338.273 169.329 333.97L169.457 333.002C172.701 332.721 175.842 333.034 178.88 333.942C179.527 333.367 179.832 332.817 179.89 332.296C179.953 331.727 179.738 331.074 179.114 330.318L178.501 329.575L179.462 329.502C181.191 329.369 182.777 328.922 184.227 328.165C180.42 327.064 176.792 325.506 173.346 323.488C171.436 323.329 169.799 323.165 168.438 322.996L168.268 322.975L166.146 320.854L164.938 319.646L166.607 320.012Z" fill="#1B3C53" stroke="#1B3C53"/>
<path d="M94.6143 324.103C96.0383 323.658 97.6461 323.957 99.3945 324.873L99.7461 325.065L99.7754 325.082C102.306 326.749 105.175 327.394 108.407 327.007C108.419 327.006 108.431 327.004 108.442 327.003L108.561 327.996C108.554 327.997 108.547 327.997 108.541 327.998C91.1031 330.039 74.152 334.36 57.6865 340.964L57.0771 341.208L57.0029 340.557C56.8372 339.105 57.0141 337.691 57.5322 336.323L57.6504 336.011L57.9844 336C60.0121 335.937 62.0989 335.62 64.2461 335.049C64.8472 334.451 65.1118 333.772 65.0566 332.976C63.5365 332.918 62.0963 333.24 60.7285 333.944L60.4492 334.089L60.1982 333.898C59.7407 333.552 59.3587 333.146 59.0518 332.686C58.9456 332.892 58.8334 333.077 58.7129 333.237C58.4167 333.632 58.0396 333.928 57.5703 333.995C57.1013 334.062 56.6575 333.884 56.2627 333.588C55.8689 333.293 55.4788 332.848 55.0889 332.284L54.8516 331.941L55.1465 331.647C55.2579 331.535 55.369 331.423 55.4805 331.312C53.5095 331.008 51.5795 331.226 49.6816 331.966L49.1982 331.102C52.4681 328.622 56.2021 326.925 60.3936 326.012L61.3809 325.796L60.9531 326.712C60.7228 327.205 60.4722 327.704 60.209 328.215C65.7314 330.113 71.2931 331.041 76.8984 330.999C81.4418 329.061 86.2002 327.905 91.1709 327.524C92.03 325.743 93.1636 324.556 94.6143 324.103Z" fill="#1B3C53" stroke="#1B3C53"/>
<path d="M59.4676 331.323C59.7055 331.947 60.071 332.474 60.5672 332.908C62.0302 332.213 63.5746 331.903 65.1932 331.98L65.5408 332.001L65.9217 332.033L65.992 332.408C66.2428 333.754 65.8495 334.926 64.8406 335.866L64.7498 335.95L64.6307 335.983C62.4927 336.56 60.4023 336.891 58.3611 336.983C57.9843 338.105 57.8615 339.257 57.9969 340.444L58.0594 340.989L57.5096 341C54.9507 341.052 52.5287 341.697 50.2381 342.94L50.0633 343.034L49.8709 342.983C47.4503 342.335 44.9932 342.007 42.4988 342L42.0584 341.998L42.0037 341.562C41.6736 338.902 42.086 336.827 43.4129 335.5C44.6458 334.267 46.5515 333.798 48.9998 333.957V331.158L49.3182 331.034C51.6941 330.108 54.1303 329.934 56.6131 330.513L57.4901 330.717L56.3533 331.854C56.2878 331.919 56.2217 331.984 56.1561 332.05C56.4173 332.389 56.6528 332.63 56.8621 332.787C57.1338 332.991 57.3154 333.021 57.4295 333.005C57.5436 332.989 57.7093 332.909 57.9129 332.638C58.1175 332.365 58.3252 331.942 58.5252 331.342L58.9686 330.013L59.4676 331.323Z" fill="#1B3C53" stroke="#1B3C53"/>
<path d="M185.43 333.005C191.567 332.13 197.851 332.076 204.279 332.841L205.567 333.005L205.577 333.006L205.588 333.008C209.919 333.777 213.966 335.127 217.728 337.056L219.072 337.744L217.583 337.993C214.323 338.538 211.401 339.836 208.81 341.891L208.618 342.045L208.379 341.985L206.379 341.485L205.36 341.23L206.2 340.6C206.824 340.133 207 339.762 207 339.5C207 339.247 206.834 338.893 206.258 338.446C204.465 337.839 203.116 337.849 202.136 338.34C201.15 338.832 200.408 339.875 199.986 341.618L199.852 342.171L199.32 341.967C196.058 340.712 192.734 339.548 189.349 338.476L188.426 338.184L189.199 337.601C189.616 337.287 189.796 336.995 189.848 336.739C189.88 336.577 189.868 336.388 189.784 336.166C189.264 336.426 188.744 336.687 188.223 336.947L185.944 338.087L185.695 337.896C184.851 337.248 184.302 336.505 184.195 335.653C184.088 334.796 184.446 333.963 185.12 333.175L185.243 333.032L185.43 333.005Z" fill="#1B3C53" stroke="#1B3C53"/>
<path d="M50.0002 335.052L49.4504 334.997C46.8529 334.739 45.1299 335.198 44.1203 336.208C43.1725 337.156 42.7336 338.71 42.9484 341.004C45.3111 341.046 47.6415 341.368 49.9387 341.967C52.3156 340.711 54.8347 340.053 57.4904 340L59.1047 339.968L57.7912 340.906C53.4834 343.986 48.7142 345.52 43.4982 345.5L43.2307 345.499L43.0832 345.275C40.5749 341.479 39.6956 338.267 40.8068 335.767C41.9171 333.269 44.8994 331.742 49.4201 331.007L50.0002 330.912V335.052Z" fill="#1B3C53" stroke="#1B3C53"/>
<path d="M201.688 337.445C203.027 336.776 204.711 336.852 206.663 337.527L206.737 337.553L206.8 337.6C207.509 338.133 208 338.762 208 339.5C208 339.952 207.815 340.363 207.509 340.736C207.546 340.746 207.584 340.755 207.621 340.765C207.876 340.828 208.131 340.892 208.387 340.956C211.061 338.884 214.074 337.566 217.418 337.007L217.566 336.982L217.704 337.044C220.135 338.131 222.197 339.676 223.883 341.678L224.149 341.995L223.888 342.316C222.686 343.788 221.205 344.903 219.451 345.661C219.738 345.846 219.999 345.924 220.238 345.924C220.633 345.924 221.099 345.716 221.64 345.153L221.945 344.836L222.299 345.099C222.774 345.453 223.149 345.812 223.381 346.181C223.619 346.558 223.73 346.988 223.585 347.422C223.447 347.835 223.112 348.144 222.711 348.379C222.304 348.617 221.769 348.815 221.127 348.983L220.833 349.06L220.63 348.836C220.415 348.599 220.173 348.401 219.905 348.241C219.829 348.516 219.708 348.773 219.533 349.006C219.213 349.433 218.748 349.746 218.181 349.966L217.913 350.07L217.688 349.892C214.129 347.058 210.083 345.762 205.526 345.999L205.34 346.009L205.192 345.894C203.342 344.454 201.363 343.134 199.253 341.934L198.926 341.749L199.014 341.383C199.474 339.483 200.34 338.119 201.688 337.445Z" fill="#1B3C53" stroke="#1B3C53"/>
<path d="M450.435 334.504C454.188 334.008 456.952 334.524 458.461 336.316C459.966 338.103 460.041 340.949 458.98 344.638L458.937 344.789L458.814 344.889C451.789 350.573 444.074 354.935 435.67 357.97L435.305 358.102L435.087 357.781C434.782 357.334 434.565 356.909 434.483 356.519C434.398 356.11 434.457 355.689 434.776 355.369C435.065 355.08 435.488 354.96 435.926 354.919C436.237 354.89 436.596 354.899 437 354.937V352.043L437.455 352.002C440.234 351.75 442.906 351.056 445.475 349.921C443.354 348.529 441.182 347.237 438.957 346.045C434.35 347.704 429.541 348.69 424.531 348.999L424.283 348.049C432.942 343.884 441.6 339.389 450.257 334.564L450.34 334.517L450.435 334.504Z" fill="#1B3C53" stroke="#1B3C53"/>
<path d="M217.642 337.021C226.535 339.65 235.217 342.654 243.686 346.035L243.429 346.995C238.861 346.341 234.461 346.335 230.225 346.973C228.455 348.632 226.402 349.722 224.073 350.241C228.296 352.319 232.772 353.696 237.507 354.366L238.559 354.504L238.758 354.527L238.886 354.682C240.217 356.297 241.806 357.407 243.658 358.025L243.412 358.992C237.576 357.952 231.886 356.445 226.342 354.474C219.099 352.064 212.079 349.223 205.283 345.95L205.474 345.001C210.171 344.757 214.378 346.066 218.071 348.922C218.376 348.771 218.591 348.597 218.733 348.406C218.909 348.172 219.004 347.881 219 347.506L218.991 346.788L219.668 347.029C220.23 347.23 220.724 347.534 221.147 347.938C221.607 347.803 221.956 347.662 222.205 347.516C222.507 347.339 222.608 347.192 222.637 347.105C222.659 347.04 222.668 346.924 222.535 346.714C222.436 346.556 222.27 346.372 222.025 346.161C221.474 346.639 220.879 346.923 220.238 346.923C219.465 346.923 218.762 346.513 218.135 345.842L217.614 345.285L218.332 345.029C220.129 344.389 221.628 343.379 222.841 342.002C221.307 340.272 219.461 338.924 217.296 337.956L217.642 337.021Z" fill="#1B3C53" stroke="#1B3C53"/>
<path d="M229.924 346.006C234.299 345.331 238.837 345.331 243.535 346H244.859L244.974 346.341C245.183 346.964 245.494 347.38 245.882 347.639C246.271 347.898 246.791 348.034 247.477 348.001L247.744 348.936C246.686 349.529 245.609 350.191 244.515 350.919C245.045 351.193 245.547 351.511 246.02 351.875L246.32 352.116L246.358 352.148L246.39 352.187C247.663 353.773 248.239 355.436 248.053 357.155C250.957 358.089 253.879 358.049 256.837 357.027L256.935 356.993L257.038 357.002C258.747 357.133 260.326 357.659 261.769 358.578L262.907 359.304L261.57 359.495C260.404 359.662 259.237 359.828 258.07 359.995C257.358 360.097 256.646 360.198 255.935 360.3C256.942 361.078 257.63 362.102 257.981 363.366L258.215 364.207L257.372 363.983C252.401 362.665 247.716 360.991 243.315 358.965C241.345 358.302 239.654 357.131 238.243 355.47C232.565 354.772 227.238 353.097 222.265 350.441L220.848 349.685L222.443 349.503C225.247 349.185 227.645 348.065 229.654 346.139L229.768 346.03L229.924 346.006Z" fill="#1B3C53" stroke="#1B3C53"/>
<path d="M247.693 348.039C253.583 350.512 259.575 352.842 265.669 355.029L266.139 355.198L265.971 355.668C265.844 356.024 265.673 356.352 265.464 356.653C266.17 356.771 266.876 356.889 267.582 357.007C268.582 357.174 269.582 357.34 270.582 357.507L271.753 357.702L270.796 358.403C269.771 359.155 268.697 359.846 267.576 360.479C271.077 362.114 274.655 362.295 278.337 361.027L279 360.799V365.374C279.187 365.745 279.277 366.204 278.962 366.598C278.808 366.789 278.596 366.908 278.381 366.984C278.164 367.061 277.912 367.105 277.637 367.128C276.556 367.218 274.793 366.992 272.397 366.489L272.375 366.484L272.354 366.478C269.453 365.588 266.67 364.447 263.999 363.061C262.284 363.919 260.439 364.232 258.478 364H257.12L257.019 363.634C256.623 362.208 255.724 361.151 254.281 360.45L252.812 359.736L254.43 359.505C255.596 359.338 256.763 359.172 257.93 359.005C258.591 358.91 259.252 358.815 259.913 358.721C259.012 358.331 258.061 358.094 257.057 358.007C253.793 359.11 250.546 359.1 247.334 357.972L246.932 357.83L247.008 357.41C247.284 355.895 246.857 354.384 245.642 352.853C244.942 352.275 244.164 351.811 243.311 351.463L242.454 351.113L243.217 350.588C244.586 349.646 245.933 348.804 247.256 348.063L247.469 347.944L247.693 348.039Z" fill="#1B3C53" stroke="#1B3C53"/>
<path d="M417.431 351C419.316 350.445 421.071 350.442 422.673 351.03L423.307 351.264L422.898 351.802C422.552 352.259 422.146 352.639 421.687 352.945C422.282 353.266 422.712 353.686 422.872 354.245C423.077 354.963 422.778 355.705 422.215 356.428C422.931 356.955 423.727 357.317 424.608 357.512L424.621 358.485C423.966 358.649 423.508 358.805 423.224 358.947C423.188 358.965 423.157 358.984 423.13 359C423.157 359.016 423.188 359.035 423.224 359.053C423.508 359.195 423.966 359.351 424.621 359.515L425.7 359.784L424.782 360.412C421.791 362.459 418.599 363.026 415.245 362.093C415.135 362.347 415.116 362.559 415.152 362.738C415.203 362.994 415.385 363.286 415.802 363.601L416.648 364.24L415.616 364.486C412.438 365.243 409.345 365.073 406.349 363.976C403.081 363.018 400.031 361.494 397.203 359.402L396.297 358.732L397.401 358.51C399.089 358.17 400.726 357.678 402.312 357.036L402.488 356.965L402.668 357.029C403.192 357.216 403.657 357.494 404.062 357.858C406.372 356.356 408.948 355.412 411.785 355.024C413.098 353.934 414.195 352.675 415.073 351.239L415.22 351H417.431Z" fill="#1B3C53" stroke="#1B3C53"/>
<path d="M439.235 345.059C441.819 346.435 444.333 347.944 446.778 349.585L447.503 350.071L446.717 350.45C443.935 351.792 441.028 352.625 438 352.951V356.079L437.427 355.994C436.823 355.905 436.358 355.883 436.02 355.915C435.668 355.948 435.528 356.032 435.483 356.076C435.47 356.09 435.424 356.132 435.462 356.315C435.504 356.517 435.638 356.815 435.913 357.219L436.252 357.715L435.701 357.958C416.845 366.266 397.135 371.945 376.573 374.994L376.237 375.044L376.067 374.751C375.722 374.155 375.168 373.725 374.354 373.479L374.413 372.508C382.194 371.141 389.855 369.642 397.395 368.012L397.402 368.01C400.036 367.483 402.649 366.831 405.239 366.056C405.94 365.363 406.189 364.56 406.009 363.592L405.848 362.728L406.673 363.03C409.21 363.963 411.817 364.184 414.504 363.695C414.342 363.462 414.227 363.209 414.172 362.935C414.055 362.352 414.226 361.774 414.581 361.228L414.787 360.91L415.149 361.022C418.003 361.913 420.708 361.631 423.296 360.162C423.1 360.091 422.925 360.022 422.776 359.947C422.586 359.852 422.408 359.74 422.271 359.604C422.134 359.466 422 359.263 422 359C422 358.737 422.134 358.534 422.271 358.396C422.408 358.26 422.586 358.148 422.776 358.053C422.82 358.031 422.866 358.012 422.913 357.991C422.291 357.707 421.71 357.338 421.175 356.88L420.781 356.543L421.132 356.162C421.873 355.356 422 354.833 421.911 354.521C421.82 354.201 421.423 353.809 420.353 353.478L418.967 353.049L420.322 352.533C420.804 352.349 421.226 352.088 421.595 351.751C420.402 351.474 419.09 351.543 417.645 351.979L417.192 351.105C419.271 349.486 421.684 348.455 424.419 348.007L424.444 348.003L424.469 348.001C429.463 347.693 434.249 346.702 438.828 345.03L439.038 344.954L439.235 345.059Z" fill="#1B3C53" stroke="#1B3C53"/>
<path d="M244.658 346.025C257.709 350.375 270.817 354.159 283.982 357.378L286.616 358.014L286.825 358.063L286.933 358.25C287.693 359.566 288.878 360.319 290.555 360.503L290.646 361.479C289.832 361.725 289.278 362.155 288.933 362.751L288.857 362.88L288.724 362.947C287.912 363.353 287.082 363.768 286.232 364.192C287.568 366.163 289.104 367.979 290.845 369.638L291.42 370.186L290.677 370.468C289.31 370.986 287.895 371.163 286.443 370.997L286.428 370.995C276.726 369.573 267.359 367.231 258.33 363.971L258.561 363.004C260.429 363.231 262.159 362.915 263.765 362.059L263.998 361.935L264.232 362.058C266.91 363.466 269.706 364.619 272.622 365.515C275.01 366.015 276.637 366.208 277.554 366.132C277.778 366.113 277.939 366.079 278.048 366.041C278.113 366.018 278.148 365.996 278.166 365.983C278.162 365.951 278.145 365.881 278.07 365.755L278 365.637V362.185C273.986 363.391 270.065 362.975 266.264 360.94L265.435 360.497L266.267 360.058C267.29 359.518 268.272 358.928 269.215 358.292C268.616 358.192 268.017 358.093 267.418 357.993L263.398 357.323L264.164 356.63C264.436 356.384 264.655 356.103 264.825 355.787C258.923 353.659 253.115 351.397 247.403 349.001C246.612 349.021 245.908 348.858 245.327 348.471C244.715 348.063 244.29 347.442 244.026 346.659L243.706 345.708L244.658 346.025Z" fill="#1B3C53" stroke="#1B3C53"/>
<path d="M415.927 351.761C414.966 353.332 413.761 354.708 412.316 355.888L412.206 355.978L412.064 355.996C409.175 356.369 406.584 357.342 404.282 358.913L403.922 359.158L403.63 358.836C403.312 358.485 402.937 358.218 402.501 358.036C401.265 358.527 400 358.928 398.705 359.242C401.012 360.82 403.459 362.02 406.051 362.841L406.641 363.021L406.936 363.106L406.991 363.408C407.242 364.754 406.85 365.926 405.841 366.866L405.756 366.945L405.644 366.979C402.985 367.778 400.302 368.449 397.598 368.99L396.944 369.121L397.002 368.457C397.07 367.67 396.834 367.022 396.277 366.476C390.841 365.755 385.627 366.091 380.634 367.481L380.288 366.547C381.19 366.124 381.848 365.578 382.288 364.917C382.635 364.397 382.857 363.787 382.95 363.078C379.637 363.497 376.461 363.471 373.423 362.994L371.879 362.752L373.276 362.053C373.859 361.761 374.697 361.627 375.418 361.507C376.197 361.377 376.859 361.261 377.276 361.053L377.405 360.988L377.548 361.002C381.448 361.377 385.017 360.726 388.271 359.056L388.326 359.027L388.386 359.014C397.604 356.845 406.586 354.184 415.33 351.029L416.669 350.547L415.927 351.761Z" fill="#1B3C53" stroke="#1B3C53"/>
<path d="M286.594 358.009C315.365 363.485 344.318 364.815 373.452 362.002L373.671 362.97C369.825 364.372 365.804 365.545 361.609 366.488L361.567 366.497L361.523 366.499C357.294 366.698 353.152 367.195 349.097 367.99L348.897 368.029L348.728 367.919C347.474 367.105 346.094 366.797 344.564 366.996L344.524 367.001L344.483 367C338.315 366.799 333.046 367.462 328.663 368.973L328.382 369.069L328.162 368.869C327.442 368.21 326.719 367.825 325.994 367.68C325.272 367.535 324.508 367.62 323.692 367.961L323.396 368.086L323.159 367.866C322.301 367.067 321.89 366.1 321.94 365.001C316.317 365.011 310.883 364.684 305.639 364.021C303.964 365.274 302.14 366.259 300.17 366.971L299.688 367.145L298.781 364.426L297.826 365.381L297.539 364.693C297.216 363.92 296.676 363.364 295.9 363.006C293.278 363.174 290.799 363.173 288.463 362.999L287.668 362.939L288.067 362.249C288.312 361.826 288.629 361.472 289.012 361.185C287.748 360.756 286.758 359.945 286.067 358.75L285.521 357.805L286.594 358.009Z" fill="#1B3C53" stroke="#1B3C53"/>
<path d="M384 362.515C383.967 363.639 383.68 364.632 383.12 365.472C383.012 365.634 382.891 365.787 382.764 365.936C386.879 365.07 391.131 364.882 395.517 365.374L396.567 365.505L396.719 365.525L396.833 365.627C397.701 366.402 398.098 367.388 397.998 368.543L397.967 368.911L397.605 368.988C390.525 370.52 383.339 371.932 376.047 373.231C376.403 373.51 376.7 373.848 376.933 374.249L377.3 374.885L376.575 374.994C364.637 376.806 352.605 377.474 340.48 377L339.018 376.942L340.21 376.093C340.648 375.781 341.117 375.513 341.616 375.287C336.588 374.957 331.554 374.861 326.514 375L326 375.014V370.969L326.53 371.001C329.032 371.153 331.467 370.828 333.84 370.026L333.993 369.975L334.147 370.022C335.609 370.473 336.748 371.333 337.554 372.585C337.763 372.224 337.858 371.878 337.858 371.543C337.858 371.027 337.639 370.455 337.114 369.817L336.711 369.329L337.28 369.051C339.669 367.884 342.019 366.877 344.328 366.03L344.38 366.012L344.436 366.004C346.125 365.784 347.686 366.108 349.099 366.973C353.124 366.193 357.233 365.702 361.424 365.503C365.567 364.57 369.536 363.414 373.329 362.03L373.45 361.986L373.577 362.006C376.698 362.495 379.981 362.497 383.43 362.005L384.017 361.921L384 362.515Z" fill="#1B3C53" stroke="#1B3C53"/>
<path d="M328.398 368.007C332.915 366.461 338.291 365.797 344.517 366L344.672 366.97C342.57 367.74 340.432 368.647 338.257 369.69C338.644 370.289 338.858 370.907 338.858 371.543C338.858 372.365 338.503 373.131 337.872 373.834L337.656 374.074C339.952 374.168 342.247 374.311 344.541 374.502L344.566 375.496C343.077 375.697 341.823 376.171 340.79 376.907L340.667 376.995L340.516 377C323.778 377.515 307.399 375.845 291.383 371.986L291.539 371.002C299.034 371.584 306.528 372.251 314.021 373C315.373 373.05 316.617 372.838 317.761 372.365C315.26 372.12 312.795 371.658 310.366 370.981L310.43 370.005C316.408 369.15 322.398 368.484 328.398 368.007ZM333.997 371.025C331.721 371.773 329.388 372.107 327 372.023V373.987C330.409 373.904 333.815 373.927 337.218 374.058L337.052 373.722C336.386 372.377 335.373 371.487 333.997 371.025Z" fill="#1B3C53" stroke="#1B3C53"/>
<path d="M288.537 362.001C290.86 362.174 293.336 362.175 295.967 362.001L296.087 361.993L296.197 362.04C297.028 362.396 297.675 362.941 298.128 363.664H298.129L299.219 362.574L299.975 364.842C300.086 365.176 300.197 365.511 300.309 365.846C302.064 365.161 303.694 364.25 305.196 363.103L305.359 362.978L305.563 363.004C310.998 363.701 316.643 364.034 322.497 364L323.103 363.996L322.991 364.592C322.823 365.495 323.028 366.255 323.626 366.916C324.491 366.61 325.348 366.531 326.189 366.699C327.131 366.887 328.014 367.376 328.838 368.131L329.686 368.907L328.54 368.998C323.405 369.406 318.277 369.953 313.157 370.638C315.255 371.086 317.379 371.375 319.529 371.501L321.02 371.588L319.777 372.416C318.069 373.555 316.131 374.081 313.981 374L313.966 373.999L313.95 373.997C306.472 373.249 298.992 372.584 291.512 372.002C289.516 372.286 287.742 371.934 286.222 370.915L286.557 370.003C287.581 370.12 288.581 370.043 289.558 369.777C287.872 368.093 286.379 366.259 285.081 364.273L284.774 363.804L288.399 361.991L288.537 362.001Z" fill="#1B3C53" stroke="#1B3C53"/>
</svg>
