<svg width="1442" height="1026" viewBox="0 0 1442 1026" fill="none" xmlns="http://www.w3.org/2000/svg">
<g clip-path="url(#clip0_344_380)">
<rect width="1440" height="1024" transform="translate(1.06543) rotate(0.0596209)" fill="#1B3C53"/>
<mask id="path-1-outside-1_344_380" maskUnits="userSpaceOnUse" x="97.9773" y="97.0069" width="1272.72" height="610.205" fill="black">
<rect fill="white" x="97.9773" y="97.0069" width="1272.72" height="610.205"/>
<path d="M640.775 313.152C890.413 355.079 1163.48 442.745 1292.79 487.049C1293.07 483.211 1293.27 479.329 1293.39 475.405C1297.75 337.487 1254.65 250.694 1174.78 188.736C1051 92.7277 911.056 99.8848 783.863 188.926C722.02 232.218 680.485 269.982 640.775 313.152C394.246 271.747 170.566 274.949 130.752 408.572C90.7429 542.85 208.147 639.301 300.699 635.594C390.177 632.01 473.285 513.037 546.357 424.45C582.046 381.183 610.894 345.637 640.775 313.152Z"/>
</mask>
<path d="M1368.82 513.903C1368.82 513.903 1368.82 513.903 1368.82 513.903C1312.44 495.049 1253.64 476.862 1195.35 459.614C1014.88 406.685 832.389 359.836 647.264 330.482C554.99 316.32 461.032 306.063 369.412 310.112C280.599 314.302 174.199 335.519 152.379 414.784C118.535 510.158 205.993 614.274 300.014 611.355C347.351 609.006 393.654 565.997 432.731 523.316C465.332 487.447 495.45 448.044 527.658 409.094C597.396 323.125 674.952 233.173 770.943 170.306C888.823 79.7408 1074.44 74.4192 1186.22 174.073C1279.58 242.881 1315.09 366.922 1306.79 475.672C1306.6 590.262 1206.92 722.477 1082.67 693.103C1055.47 685.329 1035.24 667.285 1016.53 649.431C973.153 606.02 938.571 555.573 907.345 503.781C907.345 503.781 907.345 503.781 907.345 503.781C941.26 553.736 978.51 602.315 1022.93 642.589C1041.79 659.106 1062.85 675.259 1085.79 680.485C1198.33 701.745 1283.39 579.721 1279.99 475.139C1283.48 369.492 1248.28 263.089 1163.34 203.398C1057.75 116.814 904.379 124.921 796.783 207.546C705.433 269.532 635.849 352.006 565.056 439.805C533.844 477.846 503.364 517.988 468.8 556.054C426.41 600.373 378.645 653.733 301.385 659.833C171.121 662.716 65.2584 524.682 109.125 402.36C149.182 285.579 277.572 274.381 368.453 270.421C464.865 268.474 559.982 281.725 653.038 299.01C839.425 334.679 1020.35 389.049 1198.3 450.748C1255.75 470.826 1313.58 491.976 1368.82 513.903Z" fill="#F0F4F8" mask="url(#path-1-outside-1_344_380)"/>
<path d="M494.665 623.298C494.665 623.298 494.665 623.298 494.665 623.298C508.003 603.37 522.128 583.194 536.397 563.26C640.019 429.652 732.43 275.589 899.759 202.798C946.575 193.022 995.036 184.631 1043.97 188.956C1135.76 192.309 1204.74 271.12 1226.43 353.416C1249.78 426.95 1257.97 542.569 1168.51 585.818C1117.73 604.85 1076.81 572.684 1042.38 548.202C1024.29 534.185 1007.14 518.617 991.639 502.067C991.639 502.067 991.639 502.067 991.639 502.067C1008.37 517.318 1026.55 531.512 1045.38 544.076C1080.51 566.528 1125.03 592.206 1163.46 574.192C1238.99 533.942 1229.25 431.952 1205.07 361.777C1181 283.614 1122.08 218.832 1040 215.042C995.634 211.063 949.271 218.443 903.092 227.433C758.105 287.307 649.206 440.043 540.199 566.146C524.752 585.137 509.366 604.343 494.665 623.298Z" fill="#F0F4F8"/>
<path d="M579.308 593.46C579.308 593.46 579.308 593.46 579.308 593.46C590.446 582.766 601.979 571.754 613.4 560.879C692.953 487.467 771.23 404.01 856.738 348.123C885.437 334.916 915.129 323.655 945.36 316.171C992.137 304.611 1043.25 301.949 1082.58 326.194C1108.24 341.645 1132.22 359.398 1142.33 385.019C1152.77 410.435 1145.96 440.724 1132.52 467.336C1128.57 476.496 1112.37 478.404 1098.8 477.519C1084.69 476.673 1070.42 473.727 1056.39 470.145C1041.29 466.236 1026.28 461.492 1011.67 456.03C1011.67 456.03 1011.67 456.03 1011.67 456.03C1025.59 463.084 1040.07 469.402 1054.89 474.863C1068.71 479.886 1082.86 484.283 1097.82 486.542C1111.95 488.026 1131.54 491.231 1143.69 473.427C1159.94 446.608 1171.53 411.993 1160.24 378.505C1149.2 345.201 1120.84 323.33 1095.23 306.542C1048.06 275.375 989.15 278.645 939.259 290.926C906.773 298.978 875.741 311.207 846.146 325.641C750.259 391.215 683.195 475.612 609.831 557.482C599.527 569.441 589.181 581.588 579.308 593.46Z" fill="#F0F4F8"/>
<mask id="path-5-outside-2_344_380" maskUnits="userSpaceOnUse" x="249.037" y="768.017" width="895.381" height="157.214" fill="black">
<rect fill="white" x="249.037" y="768.017" width="895.381" height="157.214"/>
<path d="M286.614 871.709C293.381 871.726 298.401 870.397 301.674 867.722C304.948 864.93 306.589 861.492 306.6 857.409C306.608 853.792 305.332 850.872 302.771 848.649C300.327 846.31 296.54 844.376 291.41 842.846L280.044 839.318C274.216 837.32 269.088 835.091 264.661 832.63C260.35 830.169 256.975 827.011 254.534 823.155C252.211 819.183 251.056 814.338 251.07 808.621C251.093 799.171 254.612 791.713 261.625 786.247C268.756 780.782 278.446 778.064 290.696 778.094C297.229 778.11 303.002 778.825 308.015 780.237C313.146 781.533 317.166 783.351 320.077 785.692C323.105 788.033 324.614 790.778 324.607 793.928C324.601 796.145 324.013 798.127 322.842 799.874C321.788 801.505 320.443 802.843 318.807 803.889C316.129 801.899 312.458 800.198 307.795 798.787C303.132 797.258 298.059 796.488 292.575 796.474C286.509 796.459 281.839 797.556 278.567 799.764C275.295 801.973 273.654 804.944 273.645 808.677C273.637 811.711 274.74 814.163 276.952 816.035C279.281 817.908 282.776 819.55 287.44 820.961L297.582 823.961C307.608 827.02 315.414 831.181 321.001 836.444C326.589 841.592 329.371 848.657 329.349 857.64C329.325 867.207 325.631 874.956 318.266 880.888C311.018 886.82 300.628 889.769 287.094 889.736C279.978 889.718 273.68 888.944 268.2 887.414C262.721 885.884 258.351 883.773 255.091 881.081C251.947 878.39 250.38 875.353 250.388 871.97C250.395 869.403 251.217 867.189 252.855 865.326C254.493 863.463 256.246 862.068 258.115 861.139C261.142 863.713 265.044 866.114 269.822 868.343C274.6 870.571 280.197 871.694 286.614 871.709ZM347.438 841.06L368.963 841.113L368.912 861.763C368.903 865.613 370.004 868.357 372.217 869.996C374.546 871.635 377.811 872.46 382.011 872.471C383.877 872.475 385.861 872.247 387.962 871.785C390.18 871.324 392.048 870.745 393.567 870.049C394.381 870.984 395.137 872.095 395.833 873.38C396.53 874.665 396.876 876.241 396.872 878.107C396.863 881.491 395.223 884.287 391.951 886.495C388.796 888.704 383.834 889.8 377.068 889.783C367.851 889.761 360.565 887.701 355.208 883.604C349.968 879.391 347.36 872.618 347.383 863.285L347.438 841.06ZM360.607 823.242L360.649 806.267L394.949 806.352C395.414 807.17 395.878 808.338 396.341 809.856C396.92 811.374 397.208 812.95 397.204 814.583C397.197 817.5 396.491 819.715 395.088 821.228C393.684 822.624 391.874 823.32 389.657 823.314L360.607 823.242ZM368.952 845.838L347.427 845.785L347.583 782.785C348.517 782.437 349.859 782.091 351.61 781.745C353.478 781.4 355.403 781.229 357.386 781.234C361.47 781.244 364.443 782.01 366.306 783.531C368.169 784.936 369.096 787.505 369.087 791.238L368.952 845.838ZM413.878 855.749L413.912 841.924L435.437 841.978L435.403 855.453C435.388 861.636 436.952 866.073 440.095 868.764C443.355 871.456 447.844 872.808 453.56 872.823C457.294 872.832 460.445 872.49 463.013 871.796C465.581 871.102 467.508 870.349 468.794 869.535L468.862 842.06L490.387 842.114L490.314 871.339C490.308 874.022 489.835 876.296 488.897 878.16C488.076 879.908 486.439 881.537 483.985 883.048C480.597 885.023 476.276 886.646 471.023 887.916C465.886 889.303 459.993 889.989 453.343 889.972C445.293 889.952 438.296 888.768 432.352 886.42C426.408 884.072 421.808 880.386 418.554 875.361C415.417 870.22 413.858 863.683 413.878 855.749ZM490.366 850.514L468.841 850.46L468.953 804.96C469.887 804.729 471.23 804.499 472.98 804.27C474.848 803.925 476.773 803.755 478.756 803.76C482.84 803.77 485.813 804.477 487.676 805.882C489.539 807.286 490.466 809.914 490.457 813.764L490.366 850.514ZM435.416 850.378L413.891 850.324L414.004 804.825C414.938 804.593 416.28 804.363 418.03 804.134C419.781 803.789 421.707 803.619 423.807 803.624C427.89 803.634 430.863 804.341 432.726 805.746C434.59 807.15 435.516 809.778 435.507 813.628L435.416 850.378ZM530.574 827.163L530.615 810.363L565.79 810.45C566.255 811.268 566.719 812.436 567.182 813.954C567.762 815.355 568.049 816.989 568.045 818.856C568.037 821.772 567.332 823.929 565.929 825.326C564.642 826.606 562.774 827.243 560.324 827.237L530.574 827.163ZM533.961 801.971L533.905 824.546L513.255 824.495L513.313 801.045C513.332 793.695 514.805 787.749 517.733 783.206C520.777 778.547 524.928 775.174 530.183 773.087C535.555 770.884 541.624 769.79 548.391 769.807C555.974 769.826 561.747 770.832 565.708 772.825C569.67 774.818 571.646 777.798 571.636 781.765C571.632 783.515 571.22 785.147 570.399 786.661C569.696 788.06 568.818 789.224 567.766 790.155C565.551 789.216 563.045 788.452 560.246 787.861C557.564 787.271 554.707 786.973 551.673 786.965C545.49 786.95 540.996 788.105 538.19 790.432C535.384 792.758 533.975 796.605 533.961 801.971ZM513.271 818.37L534.796 818.423L534.625 887.373C533.691 887.721 532.348 888.009 530.598 888.238C528.847 888.584 526.921 888.754 524.821 888.749C520.855 888.739 517.882 888.032 515.902 886.627C514.039 885.106 513.112 882.478 513.121 878.745L513.271 818.37ZM600.399 827.336L600.44 810.536L635.615 810.623C636.08 811.441 636.544 812.609 637.006 814.126C637.586 815.528 637.874 817.162 637.869 819.029C637.862 821.945 637.157 824.102 635.753 825.498C634.467 826.778 632.599 827.416 630.149 827.409L600.399 827.336ZM603.786 802.144L603.73 824.719L583.08 824.668L583.138 801.218C583.156 793.868 584.629 787.922 587.557 783.379C590.602 778.72 594.752 775.347 600.007 773.26C605.38 771.056 611.449 769.963 618.216 769.98C625.799 769.999 631.571 771.004 635.533 772.998C639.495 774.991 641.471 777.971 641.461 781.937C641.457 783.687 641.044 785.32 640.224 786.834C639.521 788.233 638.643 789.397 637.59 790.328C635.376 789.389 632.87 788.624 630.071 788.034C627.389 787.444 624.532 787.145 621.498 787.138C615.315 787.123 610.82 788.278 608.015 790.605C605.209 792.931 603.799 796.777 603.786 802.144ZM583.095 818.543L604.62 818.596L604.45 887.546C603.515 887.894 602.173 888.182 600.423 888.411C598.672 888.757 596.746 888.927 594.646 888.922C590.68 888.912 587.706 888.205 585.726 886.8C583.864 885.278 582.937 882.651 582.946 878.918L583.095 818.543ZM657.586 805.427L677.363 804.951C677.818 809.386 678.157 814.053 678.378 818.954C678.716 823.855 678.879 828.697 678.867 833.48C678.972 838.264 679.019 842.872 679.008 847.305L678.907 887.905C678.09 888.137 676.69 888.366 674.706 888.595C672.838 888.94 670.971 889.111 669.104 889.106C664.904 889.096 661.873 888.388 660.01 886.984C658.263 885.463 657.395 882.835 657.404 879.102L657.586 805.427ZM747.566 864.275L727.615 864.751C726.704 855.765 726.2 847.014 726.105 838.497C726.01 829.863 725.972 821.522 725.992 813.472L726.07 781.972C727.12 781.741 728.521 781.453 730.272 781.107C732.139 780.762 734.123 780.592 736.223 780.597C740.306 780.607 743.221 781.372 744.967 782.893C746.83 784.415 747.757 786.984 747.748 790.6L747.566 864.275ZM747.584 857.1L747.514 885.45C746.111 886.613 744.242 887.542 741.907 888.236C739.571 889.047 736.887 889.449 733.854 889.441C730.237 889.432 726.972 888.841 724.058 887.667C721.261 886.493 718.876 883.921 716.902 879.949L691.291 833.861C689.898 831.057 688.389 828.137 686.763 825.1C685.254 822.062 683.803 819.084 682.41 816.164C681.017 813.244 679.74 810.557 678.58 808.104L657.568 812.952L657.636 785.477C658.923 783.847 660.793 782.627 663.245 781.816C665.814 781.006 668.556 780.604 671.473 780.612C674.973 780.62 678.18 781.212 681.094 782.385C684.007 783.559 686.451 786.074 688.425 789.929L714.036 836.017C715.546 838.821 717.055 841.741 718.564 844.778C720.19 847.816 721.641 850.794 722.917 853.714C724.31 856.634 725.528 859.321 726.572 861.773L747.584 857.1ZM772.251 856.636L772.285 842.811L793.81 842.865L793.776 856.339C793.761 862.523 795.325 866.96 798.468 869.651C801.728 872.343 806.217 873.695 811.933 873.709C815.667 873.719 818.818 873.376 821.386 872.683C823.954 871.989 825.881 871.236 827.167 870.422L827.235 842.947L848.759 843L848.687 872.225C848.681 874.909 848.208 877.183 847.27 879.047C846.449 880.795 844.812 882.424 842.358 883.935C838.97 885.91 834.649 887.532 829.396 888.803C824.259 890.19 818.366 890.875 811.716 890.859C803.666 890.839 796.669 889.655 790.725 887.307C784.78 884.959 780.181 881.273 776.927 876.248C773.79 871.107 772.231 864.57 772.251 856.636ZM848.739 851.4L827.214 851.347L827.326 805.847C828.26 805.616 829.603 805.386 831.353 805.157C833.221 804.812 835.146 804.642 837.129 804.647C841.213 804.657 844.186 805.364 846.049 806.769C847.912 808.173 848.839 810.801 848.83 814.651L848.739 851.4ZM793.789 851.264L772.264 851.211L772.377 805.711C773.31 805.48 774.653 805.25 776.403 805.021C778.154 804.676 780.08 804.505 782.18 804.511C786.263 804.521 789.236 805.228 791.099 806.633C792.963 808.037 793.889 810.665 793.88 814.515L793.789 851.264ZM925.942 870.492L926.078 815.542L947.603 815.595L947.461 872.82C947.455 875.386 946.866 877.543 945.695 879.29C944.641 880.921 942.887 882.492 940.433 884.002C937.629 885.862 933.775 887.486 928.871 888.874C924.084 890.379 918.599 891.123 912.416 891.108C903.199 891.085 895.153 889.549 888.277 886.498C881.518 883.332 876.28 878.535 872.563 872.109C868.846 865.567 866.999 857.337 867.024 847.421C867.049 837.271 868.936 828.934 872.686 822.41C876.552 815.886 881.697 811.115 888.121 808.098C894.546 804.964 901.666 803.406 909.483 803.426C913.799 803.436 917.706 803.971 921.204 805.03C924.818 806.089 927.732 807.321 929.945 808.726L929.899 827.101C928.037 825.347 925.591 823.824 922.561 822.533C919.53 821.242 916.032 820.592 912.065 820.582C907.749 820.571 903.838 821.495 900.333 823.353C896.829 825.094 894.08 828.004 892.087 832.083C890.094 836.044 889.089 841.234 889.073 847.65C889.051 856.75 891.134 863.405 895.324 867.616C899.514 871.826 905.167 873.94 912.283 873.958C915.433 873.966 918.117 873.622 920.336 872.928C922.554 872.233 924.423 871.421 925.942 870.492ZM947.592 819.97L926.067 820.092L926.178 774.942C926.996 774.711 928.28 774.422 930.03 774.076C931.898 773.731 933.823 773.561 935.807 773.566C940.007 773.576 943.038 774.342 944.901 775.863C946.764 777.268 947.691 779.837 947.682 783.57L947.592 819.97ZM1004.55 885.911C997.667 885.894 991.312 884.595 985.485 882.014C979.658 879.316 975.002 874.93 971.517 868.854C968.032 862.779 966.302 854.783 966.327 844.866C966.349 835.766 968.118 828.187 971.633 822.129C975.265 815.955 980.293 811.359 986.717 808.342C993.258 805.208 1000.73 803.651 1009.13 803.672C1015.08 803.687 1020.56 804.459 1025.57 805.988C1030.7 807.517 1034.78 809.277 1037.81 811.268C1039.79 812.556 1041.36 814.135 1042.52 816.005C1043.8 817.758 1044.44 819.918 1044.43 822.485L1044.3 877.084L1023.3 877.033L1023.43 824.358C1021.91 823.421 1020.05 822.599 1017.83 821.894C1015.62 821.188 1012.88 820.832 1009.61 820.823C1003.19 820.808 997.94 822.778 993.846 826.734C989.87 830.691 987.872 836.753 987.851 844.92C987.829 853.903 989.739 860.208 993.58 863.834C997.537 867.46 1002.37 869.281 1008.09 869.295C1012.52 869.306 1016.08 868.556 1018.77 867.046C1021.58 865.537 1023.91 863.909 1025.78 862.164L1026.44 879.665C1024.34 881.293 1021.42 882.745 1017.68 884.019C1014.06 885.293 1009.68 885.924 1004.55 885.911ZM1023.62 889.458L1023.66 872.308L1044.31 872.359L1044.26 890.209C1044.24 898.143 1042.42 904.555 1038.79 909.446C1035.16 914.454 1030.2 918.116 1023.89 920.434C1017.7 922.752 1010.76 923.902 1003.06 923.883C996.989 923.868 991.683 923.271 987.135 922.093C982.705 920.916 979.441 919.682 977.345 918.394C973.5 916.051 971.583 912.838 971.593 908.755C971.599 906.655 972.07 904.789 973.007 903.158C973.945 901.527 975.056 900.305 976.341 899.491C979.253 901.365 982.866 903.008 987.179 904.418C991.609 905.829 996.274 906.541 1001.17 906.553C1008.17 906.57 1013.66 905.184 1017.63 902.394C1021.61 899.72 1023.6 895.408 1023.62 889.458ZM1075.98 858.613L1075.15 843.561L1122.06 836.677C1121.72 832.243 1120.04 828.388 1117.02 825.114C1113.99 821.84 1109.56 820.196 1103.73 820.181C1097.78 820.167 1092.82 822.254 1088.84 826.445C1084.86 830.518 1082.81 836.405 1082.67 844.104L1083.17 853.206C1084.2 860.675 1087.05 866.165 1091.71 869.677C1096.48 873.189 1102.48 874.953 1109.72 874.971C1114.62 874.983 1119.17 874.295 1123.37 872.905C1127.58 871.399 1130.91 869.774 1133.36 868.03C1134.99 869.084 1136.27 870.429 1137.2 872.064C1138.25 873.584 1138.77 875.277 1138.76 877.143C1138.76 880.177 1137.41 882.798 1134.72 885.008C1132.03 887.102 1128.41 888.726 1123.86 889.881C1119.3 891.037 1114.11 891.607 1108.28 891.593C1099.29 891.571 1091.31 889.918 1084.31 886.634C1077.44 883.233 1072.03 878.203 1068.08 871.543C1064.24 864.884 1062.34 856.596 1062.36 846.679C1062.38 839.562 1063.5 833.324 1065.73 827.962C1067.96 822.601 1070.95 818.175 1074.69 814.685C1078.55 811.077 1082.99 808.405 1088.01 806.667C1093.03 804.813 1098.29 803.893 1103.77 803.906C1111.47 803.925 1118.17 805.517 1123.88 808.681C1129.71 811.729 1134.25 815.999 1137.5 821.49C1140.87 826.982 1142.55 833.286 1142.53 840.402C1142.52 843.669 1141.64 846.117 1139.89 847.746C1138.25 849.259 1135.91 850.186 1132.88 850.529L1075.98 858.613Z"/>
</mask>
<path d="M286.614 871.709C293.381 871.726 298.401 870.397 301.674 867.722C304.948 864.93 306.589 861.492 306.6 857.409C306.608 853.792 305.332 850.872 302.771 848.649C300.327 846.31 296.54 844.376 291.41 842.846L280.044 839.318C274.216 837.32 269.088 835.091 264.661 832.63C260.35 830.169 256.975 827.011 254.534 823.155C252.211 819.183 251.056 814.338 251.07 808.621C251.093 799.171 254.612 791.713 261.625 786.247C268.756 780.782 278.446 778.064 290.696 778.094C297.229 778.11 303.002 778.825 308.015 780.237C313.146 781.533 317.166 783.351 320.077 785.692C323.105 788.033 324.614 790.778 324.607 793.928C324.601 796.145 324.013 798.127 322.842 799.874C321.788 801.505 320.443 802.843 318.807 803.889C316.129 801.899 312.458 800.198 307.795 798.787C303.132 797.258 298.059 796.488 292.575 796.474C286.509 796.459 281.839 797.556 278.567 799.764C275.295 801.973 273.654 804.944 273.645 808.677C273.637 811.711 274.74 814.163 276.952 816.035C279.281 817.908 282.776 819.55 287.44 820.961L297.582 823.961C307.608 827.02 315.414 831.181 321.001 836.444C326.589 841.592 329.371 848.657 329.349 857.64C329.325 867.207 325.631 874.956 318.266 880.888C311.018 886.82 300.628 889.769 287.094 889.736C279.978 889.718 273.68 888.944 268.2 887.414C262.721 885.884 258.351 883.773 255.091 881.081C251.947 878.39 250.38 875.353 250.388 871.97C250.395 869.403 251.217 867.189 252.855 865.326C254.493 863.463 256.246 862.068 258.115 861.139C261.142 863.713 265.044 866.114 269.822 868.343C274.6 870.571 280.197 871.694 286.614 871.709ZM347.438 841.06L368.963 841.113L368.912 861.763C368.903 865.613 370.004 868.357 372.217 869.996C374.546 871.635 377.811 872.46 382.011 872.471C383.877 872.475 385.861 872.247 387.962 871.785C390.18 871.324 392.048 870.745 393.567 870.049C394.381 870.984 395.137 872.095 395.833 873.38C396.53 874.665 396.876 876.241 396.872 878.107C396.863 881.491 395.223 884.287 391.951 886.495C388.796 888.704 383.834 889.8 377.068 889.783C367.851 889.761 360.565 887.701 355.208 883.604C349.968 879.391 347.36 872.618 347.383 863.285L347.438 841.06ZM360.607 823.242L360.649 806.267L394.949 806.352C395.414 807.17 395.878 808.338 396.341 809.856C396.92 811.374 397.208 812.95 397.204 814.583C397.197 817.5 396.491 819.715 395.088 821.228C393.684 822.624 391.874 823.32 389.657 823.314L360.607 823.242ZM368.952 845.838L347.427 845.785L347.583 782.785C348.517 782.437 349.859 782.091 351.61 781.745C353.478 781.4 355.403 781.229 357.386 781.234C361.47 781.244 364.443 782.01 366.306 783.531C368.169 784.936 369.096 787.505 369.087 791.238L368.952 845.838ZM413.878 855.749L413.912 841.924L435.437 841.978L435.403 855.453C435.388 861.636 436.952 866.073 440.095 868.764C443.355 871.456 447.844 872.808 453.56 872.823C457.294 872.832 460.445 872.49 463.013 871.796C465.581 871.102 467.508 870.349 468.794 869.535L468.862 842.06L490.387 842.114L490.314 871.339C490.308 874.022 489.835 876.296 488.897 878.16C488.076 879.908 486.439 881.537 483.985 883.048C480.597 885.023 476.276 886.646 471.023 887.916C465.886 889.303 459.993 889.989 453.343 889.972C445.293 889.952 438.296 888.768 432.352 886.42C426.408 884.072 421.808 880.386 418.554 875.361C415.417 870.22 413.858 863.683 413.878 855.749ZM490.366 850.514L468.841 850.46L468.953 804.96C469.887 804.729 471.23 804.499 472.98 804.27C474.848 803.925 476.773 803.755 478.756 803.76C482.84 803.77 485.813 804.477 487.676 805.882C489.539 807.286 490.466 809.914 490.457 813.764L490.366 850.514ZM435.416 850.378L413.891 850.324L414.004 804.825C414.938 804.593 416.28 804.363 418.03 804.134C419.781 803.789 421.707 803.619 423.807 803.624C427.89 803.634 430.863 804.341 432.726 805.746C434.59 807.15 435.516 809.778 435.507 813.628L435.416 850.378ZM530.574 827.163L530.615 810.363L565.79 810.45C566.255 811.268 566.719 812.436 567.182 813.954C567.762 815.355 568.049 816.989 568.045 818.856C568.037 821.772 567.332 823.929 565.929 825.326C564.642 826.606 562.774 827.243 560.324 827.237L530.574 827.163ZM533.961 801.971L533.905 824.546L513.255 824.495L513.313 801.045C513.332 793.695 514.805 787.749 517.733 783.206C520.777 778.547 524.928 775.174 530.183 773.087C535.555 770.884 541.624 769.79 548.391 769.807C555.974 769.826 561.747 770.832 565.708 772.825C569.67 774.818 571.646 777.798 571.636 781.765C571.632 783.515 571.22 785.147 570.399 786.661C569.696 788.06 568.818 789.224 567.766 790.155C565.551 789.216 563.045 788.452 560.246 787.861C557.564 787.271 554.707 786.973 551.673 786.965C545.49 786.95 540.996 788.105 538.19 790.432C535.384 792.758 533.975 796.605 533.961 801.971ZM513.271 818.37L534.796 818.423L534.625 887.373C533.691 887.721 532.348 888.009 530.598 888.238C528.847 888.584 526.921 888.754 524.821 888.749C520.855 888.739 517.882 888.032 515.902 886.627C514.039 885.106 513.112 882.478 513.121 878.745L513.271 818.37ZM600.399 827.336L600.44 810.536L635.615 810.623C636.08 811.441 636.544 812.609 637.006 814.126C637.586 815.528 637.874 817.162 637.869 819.029C637.862 821.945 637.157 824.102 635.753 825.498C634.467 826.778 632.599 827.416 630.149 827.409L600.399 827.336ZM603.786 802.144L603.73 824.719L583.08 824.668L583.138 801.218C583.156 793.868 584.629 787.922 587.557 783.379C590.602 778.72 594.752 775.347 600.007 773.26C605.38 771.056 611.449 769.963 618.216 769.98C625.799 769.999 631.571 771.004 635.533 772.998C639.495 774.991 641.471 777.971 641.461 781.937C641.457 783.687 641.044 785.32 640.224 786.834C639.521 788.233 638.643 789.397 637.59 790.328C635.376 789.389 632.87 788.624 630.071 788.034C627.389 787.444 624.532 787.145 621.498 787.138C615.315 787.123 610.82 788.278 608.015 790.605C605.209 792.931 603.799 796.777 603.786 802.144ZM583.095 818.543L604.62 818.596L604.45 887.546C603.515 887.894 602.173 888.182 600.423 888.411C598.672 888.757 596.746 888.927 594.646 888.922C590.68 888.912 587.706 888.205 585.726 886.8C583.864 885.278 582.937 882.651 582.946 878.918L583.095 818.543ZM657.586 805.427L677.363 804.951C677.818 809.386 678.157 814.053 678.378 818.954C678.716 823.855 678.879 828.697 678.867 833.48C678.972 838.264 679.019 842.872 679.008 847.305L678.907 887.905C678.09 888.137 676.69 888.366 674.706 888.595C672.838 888.94 670.971 889.111 669.104 889.106C664.904 889.096 661.873 888.388 660.01 886.984C658.263 885.463 657.395 882.835 657.404 879.102L657.586 805.427ZM747.566 864.275L727.615 864.751C726.704 855.765 726.2 847.014 726.105 838.497C726.01 829.863 725.972 821.522 725.992 813.472L726.07 781.972C727.12 781.741 728.521 781.453 730.272 781.107C732.139 780.762 734.123 780.592 736.223 780.597C740.306 780.607 743.221 781.372 744.967 782.893C746.83 784.415 747.757 786.984 747.748 790.6L747.566 864.275ZM747.584 857.1L747.514 885.45C746.111 886.613 744.242 887.542 741.907 888.236C739.571 889.047 736.887 889.449 733.854 889.441C730.237 889.432 726.972 888.841 724.058 887.667C721.261 886.493 718.876 883.921 716.902 879.949L691.291 833.861C689.898 831.057 688.389 828.137 686.763 825.1C685.254 822.062 683.803 819.084 682.41 816.164C681.017 813.244 679.74 810.557 678.58 808.104L657.568 812.952L657.636 785.477C658.923 783.847 660.793 782.627 663.245 781.816C665.814 781.006 668.556 780.604 671.473 780.612C674.973 780.62 678.18 781.212 681.094 782.385C684.007 783.559 686.451 786.074 688.425 789.929L714.036 836.017C715.546 838.821 717.055 841.741 718.564 844.778C720.19 847.816 721.641 850.794 722.917 853.714C724.31 856.634 725.528 859.321 726.572 861.773L747.584 857.1ZM772.251 856.636L772.285 842.811L793.81 842.865L793.776 856.339C793.761 862.523 795.325 866.96 798.468 869.651C801.728 872.343 806.217 873.695 811.933 873.709C815.667 873.719 818.818 873.376 821.386 872.683C823.954 871.989 825.881 871.236 827.167 870.422L827.235 842.947L848.759 843L848.687 872.225C848.681 874.909 848.208 877.183 847.27 879.047C846.449 880.795 844.812 882.424 842.358 883.935C838.97 885.91 834.649 887.532 829.396 888.803C824.259 890.19 818.366 890.875 811.716 890.859C803.666 890.839 796.669 889.655 790.725 887.307C784.78 884.959 780.181 881.273 776.927 876.248C773.79 871.107 772.231 864.57 772.251 856.636ZM848.739 851.4L827.214 851.347L827.326 805.847C828.26 805.616 829.603 805.386 831.353 805.157C833.221 804.812 835.146 804.642 837.129 804.647C841.213 804.657 844.186 805.364 846.049 806.769C847.912 808.173 848.839 810.801 848.83 814.651L848.739 851.4ZM793.789 851.264L772.264 851.211L772.377 805.711C773.31 805.48 774.653 805.25 776.403 805.021C778.154 804.676 780.08 804.505 782.18 804.511C786.263 804.521 789.236 805.228 791.099 806.633C792.963 808.037 793.889 810.665 793.88 814.515L793.789 851.264ZM925.942 870.492L926.078 815.542L947.603 815.595L947.461 872.82C947.455 875.386 946.866 877.543 945.695 879.29C944.641 880.921 942.887 882.492 940.433 884.002C937.629 885.862 933.775 887.486 928.871 888.874C924.084 890.379 918.599 891.123 912.416 891.108C903.199 891.085 895.153 889.549 888.277 886.498C881.518 883.332 876.28 878.535 872.563 872.109C868.846 865.567 866.999 857.337 867.024 847.421C867.049 837.271 868.936 828.934 872.686 822.41C876.552 815.886 881.697 811.115 888.121 808.098C894.546 804.964 901.666 803.406 909.483 803.426C913.799 803.436 917.706 803.971 921.204 805.03C924.818 806.089 927.732 807.321 929.945 808.726L929.899 827.101C928.037 825.347 925.591 823.824 922.561 822.533C919.53 821.242 916.032 820.592 912.065 820.582C907.749 820.571 903.838 821.495 900.333 823.353C896.829 825.094 894.08 828.004 892.087 832.083C890.094 836.044 889.089 841.234 889.073 847.65C889.051 856.75 891.134 863.405 895.324 867.616C899.514 871.826 905.167 873.94 912.283 873.958C915.433 873.966 918.117 873.622 920.336 872.928C922.554 872.233 924.423 871.421 925.942 870.492ZM947.592 819.97L926.067 820.092L926.178 774.942C926.996 774.711 928.28 774.422 930.03 774.076C931.898 773.731 933.823 773.561 935.807 773.566C940.007 773.576 943.038 774.342 944.901 775.863C946.764 777.268 947.691 779.837 947.682 783.57L947.592 819.97ZM1004.55 885.911C997.667 885.894 991.312 884.595 985.485 882.014C979.658 879.316 975.002 874.93 971.517 868.854C968.032 862.779 966.302 854.783 966.327 844.866C966.349 835.766 968.118 828.187 971.633 822.129C975.265 815.955 980.293 811.359 986.717 808.342C993.258 805.208 1000.73 803.651 1009.13 803.672C1015.08 803.687 1020.56 804.459 1025.57 805.988C1030.7 807.517 1034.78 809.277 1037.81 811.268C1039.79 812.556 1041.36 814.135 1042.52 816.005C1043.8 817.758 1044.44 819.918 1044.43 822.485L1044.3 877.084L1023.3 877.033L1023.43 824.358C1021.91 823.421 1020.05 822.599 1017.83 821.894C1015.62 821.188 1012.88 820.832 1009.61 820.823C1003.19 820.808 997.94 822.778 993.846 826.734C989.87 830.691 987.872 836.753 987.851 844.92C987.829 853.903 989.739 860.208 993.58 863.834C997.537 867.46 1002.37 869.281 1008.09 869.295C1012.52 869.306 1016.08 868.556 1018.77 867.046C1021.58 865.537 1023.91 863.909 1025.78 862.164L1026.44 879.665C1024.34 881.293 1021.42 882.745 1017.68 884.019C1014.06 885.293 1009.68 885.924 1004.55 885.911ZM1023.62 889.458L1023.66 872.308L1044.31 872.359L1044.26 890.209C1044.24 898.143 1042.42 904.555 1038.79 909.446C1035.16 914.454 1030.2 918.116 1023.89 920.434C1017.7 922.752 1010.76 923.902 1003.06 923.883C996.989 923.868 991.683 923.271 987.135 922.093C982.705 920.916 979.441 919.682 977.345 918.394C973.5 916.051 971.583 912.838 971.593 908.755C971.599 906.655 972.07 904.789 973.007 903.158C973.945 901.527 975.056 900.305 976.341 899.491C979.253 901.365 982.866 903.008 987.179 904.418C991.609 905.829 996.274 906.541 1001.17 906.553C1008.17 906.57 1013.66 905.184 1017.63 902.394C1021.61 899.72 1023.6 895.408 1023.62 889.458ZM1075.98 858.613L1075.15 843.561L1122.06 836.677C1121.72 832.243 1120.04 828.388 1117.02 825.114C1113.99 821.84 1109.56 820.196 1103.73 820.181C1097.78 820.167 1092.82 822.254 1088.84 826.445C1084.86 830.518 1082.81 836.405 1082.67 844.104L1083.17 853.206C1084.2 860.675 1087.05 866.165 1091.71 869.677C1096.48 873.189 1102.48 874.953 1109.72 874.971C1114.62 874.983 1119.17 874.295 1123.37 872.905C1127.58 871.399 1130.91 869.774 1133.36 868.03C1134.99 869.084 1136.27 870.429 1137.2 872.064C1138.25 873.584 1138.77 875.277 1138.76 877.143C1138.76 880.177 1137.41 882.798 1134.72 885.008C1132.03 887.102 1128.41 888.726 1123.86 889.881C1119.3 891.037 1114.11 891.607 1108.28 891.593C1099.29 891.571 1091.31 889.918 1084.31 886.634C1077.44 883.233 1072.03 878.203 1068.08 871.543C1064.24 864.884 1062.34 856.596 1062.36 846.679C1062.38 839.562 1063.5 833.324 1065.73 827.962C1067.96 822.601 1070.95 818.175 1074.69 814.685C1078.55 811.077 1082.99 808.405 1088.01 806.667C1093.03 804.813 1098.29 803.893 1103.77 803.906C1111.47 803.925 1118.17 805.517 1123.88 808.681C1129.71 811.729 1134.25 815.999 1137.5 821.49C1140.87 826.982 1142.55 833.286 1142.53 840.402C1142.52 843.669 1141.64 846.117 1139.89 847.746C1138.25 849.259 1135.91 850.186 1132.88 850.529L1075.98 858.613Z" fill="#F0F4F8"/>
<path d="M301.674 867.722L302.307 868.496L302.315 868.489L302.323 868.483L301.674 867.722ZM302.771 848.649L302.08 849.372L302.097 849.389L302.116 849.405L302.771 848.649ZM291.41 842.846L291.114 843.801L291.125 843.805L291.41 842.846ZM280.044 839.318L279.72 840.264L279.734 840.269L279.748 840.273L280.044 839.318ZM264.661 832.63L264.165 833.499L264.175 833.504L264.661 832.63ZM254.534 823.155L253.671 823.66L253.68 823.675L253.689 823.69L254.534 823.155ZM261.625 786.247L261.017 785.454L261.011 785.459L261.625 786.247ZM308.015 780.237L307.744 781.2L307.757 781.203L307.771 781.207L308.015 780.237ZM320.077 785.692L319.45 786.471L319.458 786.477L319.465 786.483L320.077 785.692ZM322.842 799.874L322.011 799.317L322.007 799.324L322.002 799.331L322.842 799.874ZM318.807 803.889L318.211 804.692L318.764 805.103L319.346 804.731L318.807 803.889ZM307.795 798.787L307.483 799.737L307.494 799.74L307.505 799.744L307.795 798.787ZM278.567 799.764L279.127 800.593L279.127 800.593L278.567 799.764ZM276.952 816.035L276.306 816.799L276.315 816.807L276.325 816.815L276.952 816.035ZM287.44 820.961L287.15 821.918L287.156 821.92L287.44 820.961ZM297.582 823.961L297.874 823.005L297.866 823.003L297.582 823.961ZM321.001 836.444L320.316 837.172L320.324 837.18L321.001 836.444ZM318.266 880.888L317.639 880.109L317.633 880.114L318.266 880.888ZM268.2 887.414L267.931 888.377L267.931 888.377L268.2 887.414ZM255.091 881.081L254.44 881.841L254.447 881.847L254.454 881.853L255.091 881.081ZM252.855 865.326L252.104 864.666L252.104 864.666L252.855 865.326ZM258.115 861.139L258.763 860.377L258.261 859.95L257.67 860.243L258.115 861.139ZM269.822 868.343L270.245 867.437L270.245 867.437L269.822 868.343ZM286.614 871.709L286.612 872.709C293.48 872.726 298.774 871.383 302.307 868.496L301.674 867.722L301.041 866.947C298.027 869.411 293.282 870.726 286.617 870.709L286.614 871.709ZM301.674 867.722L302.323 868.483C305.805 865.513 307.589 861.804 307.6 857.411L306.6 857.409L305.6 857.406C305.59 861.18 304.09 864.347 301.025 866.961L301.674 867.722ZM306.6 857.409L307.6 857.411C307.609 853.526 306.223 850.322 303.427 847.894L302.771 848.649L302.116 849.405C304.441 851.423 305.608 854.058 305.6 857.406L306.6 857.409ZM302.771 848.649L303.463 847.927C300.856 845.432 296.898 843.439 291.696 841.888L291.41 842.846L291.125 843.805C296.182 845.312 299.798 847.188 302.08 849.372L302.771 848.649ZM291.41 842.846L291.707 841.891L280.341 838.363L280.044 839.318L279.748 840.273L291.114 843.801L291.41 842.846ZM280.044 839.318L280.368 838.372C274.584 836.39 269.513 834.183 265.147 831.756L264.661 832.63L264.175 833.504C268.663 835.999 273.847 838.251 279.72 840.264L280.044 839.318ZM264.661 832.63L265.156 831.762C260.975 829.375 257.725 826.326 255.379 822.62L254.534 823.155L253.689 823.69C256.224 827.696 259.725 830.964 264.165 833.498L264.661 832.63ZM254.534 823.155L255.397 822.65C253.183 818.865 252.056 814.205 252.07 808.624L251.07 808.621L250.07 808.619C250.056 814.471 251.238 819.5 253.671 823.66L254.534 823.155ZM251.07 808.621L252.07 808.624C252.093 799.459 255.486 792.3 262.24 787.036L261.625 786.247L261.011 785.459C253.738 791.127 250.094 798.884 250.07 808.619L251.07 808.621ZM261.625 786.247L262.234 787.041C269.135 781.751 278.585 779.064 290.693 779.094L290.696 778.094L290.698 777.094C278.307 777.064 268.377 779.812 261.017 785.454L261.625 786.247ZM290.696 778.094L290.693 779.094C297.158 779.11 302.837 779.817 307.744 781.2L308.015 780.237L308.287 779.275C303.167 777.832 297.3 777.111 290.698 777.094L290.696 778.094ZM308.015 780.237L307.771 781.207C312.815 782.481 316.688 784.25 319.45 786.471L320.077 785.692L320.704 784.913C317.644 782.453 313.476 780.585 308.26 779.268L308.015 780.237ZM320.077 785.692L319.465 786.483C322.306 788.68 323.614 791.154 323.607 793.926L324.607 793.928L325.607 793.931C325.615 790.403 323.903 787.386 320.689 784.901L320.077 785.692ZM324.607 793.928L323.607 793.926C323.602 795.956 323.066 797.743 322.011 799.317L322.842 799.874L323.673 800.431C324.96 798.51 325.601 796.334 325.607 793.931L324.607 793.928ZM322.842 799.874L322.002 799.331C321.026 800.841 319.784 802.078 318.268 803.046L318.807 803.889L319.346 804.731C321.102 803.608 322.55 802.168 323.682 800.417L322.842 799.874ZM318.807 803.889L319.403 803.086C316.6 801.004 312.812 799.261 308.084 797.83L307.795 798.787L307.505 799.744C312.104 801.136 315.657 802.794 318.211 804.692L318.807 803.889ZM307.795 798.787L308.106 797.836C303.332 796.272 298.154 795.488 292.578 795.474L292.575 796.474L292.573 797.474C297.963 797.487 302.931 798.245 307.483 799.737L307.795 798.787ZM292.575 796.474L292.578 795.474C286.411 795.459 281.513 796.57 278.008 798.935L278.567 799.764L279.127 800.593C282.166 798.542 286.606 797.459 292.573 797.474L292.575 796.474ZM278.567 799.764L278.008 798.935C274.48 801.317 272.655 804.588 272.645 808.675L273.645 808.677L274.645 808.68C274.653 805.3 276.11 802.629 279.127 800.593L278.567 799.764ZM273.645 808.677L272.645 808.675C272.637 811.987 273.857 814.726 276.306 816.799L276.952 816.035L277.598 815.272C275.623 813.6 274.638 811.434 274.645 808.68L273.645 808.677ZM276.952 816.035L276.325 816.815C278.797 818.802 282.432 820.49 287.15 821.918L287.44 820.961L287.729 820.004C283.121 818.609 279.764 817.013 277.578 815.256L276.952 816.035ZM287.44 820.961L287.156 821.92L297.299 824.92L297.582 823.961L297.866 823.003L287.723 820.002L287.44 820.961ZM297.582 823.961L297.29 824.918C307.22 827.947 314.874 832.045 320.316 837.172L321.001 836.444L321.687 835.717C315.955 830.316 307.996 826.092 297.874 823.005L297.582 823.961ZM321.001 836.444L320.324 837.18C325.667 842.102 328.371 848.879 328.349 857.638L329.349 857.64L330.349 857.643C330.372 848.435 327.51 841.081 321.679 835.709L321.001 836.444ZM329.349 857.64L328.349 857.638C328.326 866.907 324.766 874.369 317.639 880.109L318.266 880.888L318.894 881.667C326.497 875.543 330.325 867.507 330.349 857.643L329.349 857.64ZM318.266 880.888L317.633 880.114C310.629 885.846 300.499 888.769 287.097 888.736L287.094 889.736L287.092 890.736C300.756 890.77 311.408 887.794 318.9 881.662L318.266 880.888ZM287.094 889.736L287.097 888.736C280.049 888.718 273.843 887.952 268.469 886.451L268.2 887.414L267.931 888.377C273.516 889.937 279.907 890.718 287.092 890.736L287.094 889.736ZM268.2 887.414L268.469 886.451C263.08 884.946 258.849 882.888 255.727 880.31L255.091 881.081L254.454 881.853C257.852 884.658 262.361 886.822 267.931 888.377L268.2 887.414ZM255.091 881.081L255.741 880.322C252.766 877.775 251.381 874.998 251.388 871.972L250.388 871.97L249.388 871.967C249.379 875.708 251.129 879.006 254.44 881.841L255.091 881.081ZM250.388 871.97L251.388 871.972C251.394 869.639 252.134 867.66 253.606 865.986L252.855 865.326L252.104 864.666C250.3 866.717 249.395 869.168 249.388 871.967L250.388 871.97ZM252.855 865.326L253.606 865.986C255.174 864.203 256.827 862.896 258.56 862.034L258.115 861.139L257.67 860.243C255.665 861.24 253.812 862.723 252.104 864.666L252.855 865.326ZM258.115 861.139L257.467 861.901C260.581 864.548 264.565 866.994 269.4 869.249L269.822 868.343L270.245 867.437C265.524 865.234 261.704 862.878 258.763 860.377L258.115 861.139ZM269.822 868.343L269.4 869.249C274.334 871.551 280.081 872.693 286.612 872.709L286.614 871.709L286.617 870.709C280.314 870.694 274.866 869.592 270.245 867.437L269.822 868.343ZM347.438 841.06L347.441 840.06L346.441 840.057L346.438 841.057L347.438 841.06ZM368.963 841.113L369.963 841.116L369.966 840.116L368.966 840.113L368.963 841.113ZM372.217 869.996L371.622 870.8L371.631 870.807L371.641 870.814L372.217 869.996ZM387.962 871.785L387.759 870.806L387.748 870.809L387.962 871.785ZM393.567 870.049L394.321 869.392L393.83 868.828L393.15 869.14L393.567 870.049ZM395.833 873.38L394.954 873.856L394.954 873.856L395.833 873.38ZM391.951 886.495L391.392 885.666L391.385 885.671L391.378 885.676L391.951 886.495ZM355.208 883.604L354.581 884.384L354.591 884.391L354.601 884.399L355.208 883.604ZM360.607 823.242L359.607 823.24L359.605 824.24L360.605 824.242L360.607 823.242ZM360.649 806.267L360.652 805.267L359.652 805.265L359.649 806.265L360.649 806.267ZM394.949 806.352L395.819 805.858L395.532 805.354L394.952 805.352L394.949 806.352ZM396.341 809.856L395.384 810.148L395.394 810.18L395.406 810.212L396.341 809.856ZM395.088 821.228L395.793 821.937L395.807 821.922L395.821 821.908L395.088 821.228ZM368.952 845.838L368.949 846.838L369.949 846.841L369.952 845.841L368.952 845.838ZM347.427 845.785L346.427 845.782L346.424 846.782L347.424 846.785L347.427 845.785ZM347.583 782.785L347.234 781.848L346.584 782.09L346.583 782.783L347.583 782.785ZM351.61 781.745L351.428 780.762L351.416 780.764L351.61 781.745ZM366.306 783.531L365.673 784.306L365.688 784.318L365.704 784.33L366.306 783.531ZM347.438 841.06L347.436 842.06L368.961 842.113L368.963 841.113L368.966 840.113L347.441 840.06L347.438 841.06ZM368.963 841.113L367.963 841.111L367.912 861.761L368.912 861.763L369.912 861.766L369.963 841.116L368.963 841.113ZM368.912 861.763L367.912 861.761C367.902 865.793 369.062 868.904 371.622 870.8L372.217 869.996L372.812 869.193C370.947 867.811 369.903 865.433 369.912 861.766L368.912 861.763ZM372.217 869.996L371.641 870.814C374.201 872.615 377.696 873.46 382.008 873.471L382.011 872.471L382.013 871.471C377.926 871.46 374.891 870.656 372.792 869.178L372.217 869.996ZM382.011 872.471L382.008 873.471C383.958 873.475 386.015 873.237 388.177 872.762L387.962 871.785L387.748 870.809C385.707 871.257 383.797 871.475 382.013 871.471L382.011 872.471ZM387.962 871.785L388.166 872.764C390.433 872.293 392.378 871.694 393.984 870.958L393.567 870.049L393.15 869.14C391.719 869.796 389.927 870.355 387.759 870.806L387.962 871.785ZM393.567 870.049L392.813 870.706C393.571 871.577 394.286 872.625 394.954 873.856L395.833 873.38L396.713 872.903C395.987 871.565 395.191 870.392 394.321 869.392L393.567 870.049ZM395.833 873.38L394.954 873.856C395.552 874.959 395.876 876.36 395.872 878.105L396.872 878.107L397.872 878.11C397.877 876.121 397.508 874.37 396.713 872.903L395.833 873.38ZM396.872 878.107L395.872 878.105C395.864 881.098 394.442 883.607 391.392 885.666L391.951 886.495L392.51 887.324C396.004 884.966 397.862 881.884 397.872 878.11L396.872 878.107ZM391.951 886.495L391.378 885.676C388.476 887.707 383.769 888.8 377.07 888.783L377.068 889.783L377.065 890.783C383.9 890.8 389.115 889.701 392.525 887.314L391.951 886.495ZM377.068 889.783L377.07 888.783C367.993 888.761 360.945 886.732 355.816 882.81L355.208 883.604L354.601 884.399C360.185 888.669 367.709 890.76 377.065 890.783L377.068 889.783ZM355.208 883.604L355.835 882.825C350.914 878.869 348.361 872.441 348.383 863.287L347.383 863.285L346.383 863.282C346.36 872.795 349.023 879.914 354.581 884.384L355.208 883.604ZM347.383 863.285L348.383 863.287L348.438 841.062L347.438 841.06L346.438 841.057L346.383 863.282L347.383 863.285ZM360.607 823.242L361.607 823.245L361.649 806.27L360.649 806.267L359.649 806.265L359.607 823.24L360.607 823.242ZM360.649 806.267L360.647 807.267L394.947 807.352L394.949 806.352L394.952 805.352L360.652 805.267L360.649 806.267ZM394.949 806.352L394.08 806.846C394.492 807.571 394.93 808.659 395.384 810.148L396.341 809.856L397.297 809.564C396.825 808.017 396.336 806.769 395.819 805.858L394.949 806.352ZM396.341 809.856L395.406 810.212C395.942 811.615 396.208 813.069 396.204 814.58L397.204 814.583L398.204 814.585C398.208 812.83 397.899 811.133 397.275 809.499L396.341 809.856ZM397.204 814.583L396.204 814.58C396.197 817.35 395.528 819.283 394.354 820.548L395.088 821.228L395.821 821.908C397.455 820.146 398.196 817.65 398.204 814.585L397.204 814.583ZM395.088 821.228L394.382 820.519C393.19 821.705 391.646 822.319 389.66 822.314L389.657 823.314L389.655 824.314C392.102 824.32 394.178 823.543 395.793 821.937L395.088 821.228ZM389.657 823.314L389.66 822.314L360.61 822.242L360.607 823.242L360.605 824.242L389.655 824.314L389.657 823.314ZM368.952 845.838L368.954 844.838L347.429 844.785L347.427 845.785L347.424 846.785L368.949 846.838L368.952 845.838ZM347.427 845.785L348.427 845.787L348.583 782.788L347.583 782.785L346.583 782.783L346.427 845.782L347.427 845.785ZM347.583 782.785L347.931 783.722C348.79 783.403 350.071 783.068 351.804 782.726L351.61 781.745L351.416 780.764C349.647 781.113 348.243 781.472 347.234 781.848L347.583 782.785ZM351.61 781.745L351.792 782.728C353.596 782.395 355.46 782.23 357.384 782.234L357.386 781.234L357.389 780.234C355.346 780.229 353.359 780.405 351.428 780.762L351.61 781.745ZM357.386 781.234L357.384 782.234C361.384 782.244 364.076 783.001 365.673 784.306L366.306 783.531L366.938 782.757C364.81 781.019 361.556 780.245 357.389 780.234L357.386 781.234ZM366.306 783.531L365.704 784.33C367.195 785.454 368.096 787.627 368.087 791.236L369.087 791.238L370.087 791.241C370.096 787.383 369.143 784.418 366.908 782.733L366.306 783.531ZM369.087 791.238L368.087 791.236L367.952 845.836L368.952 845.838L369.952 845.841L370.087 791.241L369.087 791.238ZM413.912 841.924L413.914 840.924L412.914 840.922L412.912 841.922L413.912 841.924ZM435.437 841.978L436.437 841.98L436.439 840.98L435.439 840.978L435.437 841.978ZM440.095 868.764L439.445 869.524L439.452 869.53L439.459 869.535L440.095 868.764ZM463.013 871.796L463.274 872.761L463.274 872.761L463.013 871.796ZM468.794 869.535L469.328 870.38L469.792 870.087L469.794 869.538L468.794 869.535ZM468.862 842.06L468.864 841.06L467.864 841.058L467.862 842.058L468.862 842.06ZM490.387 842.114L491.387 842.116L491.389 841.116L490.389 841.114L490.387 842.114ZM488.897 878.16L488.004 877.711L487.998 877.723L487.992 877.735L488.897 878.16ZM483.985 883.048L484.489 883.912L484.499 883.906L484.509 883.899L483.985 883.048ZM471.023 887.916L470.788 886.944L470.775 886.947L470.762 886.95L471.023 887.916ZM432.352 886.42L431.984 887.35L431.984 887.35L432.352 886.42ZM418.554 875.361L417.7 875.882L417.707 875.893L417.715 875.905L418.554 875.361ZM490.366 850.514L490.363 851.514L491.363 851.516L491.366 850.516L490.366 850.514ZM468.841 850.46L467.841 850.458L467.838 851.458L468.838 851.46L468.841 850.46ZM468.953 804.96L468.713 803.99L467.955 804.177L467.953 804.958L468.953 804.96ZM472.98 804.27L473.11 805.262L473.136 805.259L473.162 805.254L472.98 804.27ZM487.676 805.882L487.074 806.68L487.074 806.68L487.676 805.882ZM435.416 850.378L435.413 851.378L436.413 851.38L436.416 850.38L435.416 850.378ZM413.891 850.324L412.891 850.322L412.889 851.322L413.889 851.324L413.891 850.324ZM414.004 804.825L413.763 803.854L413.006 804.041L413.004 804.822L414.004 804.825ZM418.03 804.134L418.16 805.126L418.192 805.122L418.224 805.116L418.03 804.134ZM432.726 805.746L432.124 806.544L432.124 806.544L432.726 805.746ZM413.878 855.749L414.878 855.752L414.912 841.927L413.912 841.924L412.912 841.922L412.878 855.747L413.878 855.749ZM413.912 841.924L413.909 842.924L435.434 842.978L435.437 841.978L435.439 840.978L413.914 840.924L413.912 841.924ZM435.437 841.978L434.437 841.975L434.403 855.45L435.403 855.453L436.403 855.455L436.437 841.98L435.437 841.978ZM435.403 855.453L434.403 855.45C434.388 861.779 435.988 866.564 439.445 869.524L440.095 868.764L440.746 868.005C437.917 865.583 436.388 861.492 436.403 855.455L435.403 855.453ZM440.095 868.764L439.459 869.535C442.951 872.419 447.691 873.808 453.558 873.823L453.56 872.823L453.563 871.823C447.996 871.809 443.759 870.492 440.732 867.993L440.095 868.764ZM453.56 872.823L453.558 873.823C457.347 873.832 460.593 873.485 463.274 872.761L463.013 871.796L462.752 870.831C460.296 871.494 457.24 871.832 453.563 871.823L453.56 872.823ZM463.013 871.796L463.274 872.761C465.878 872.058 467.918 871.273 469.328 870.38L468.794 869.535L468.259 868.69C467.099 869.424 465.285 870.147 462.752 870.831L463.013 871.796ZM468.794 869.535L469.794 869.538L469.862 842.063L468.862 842.06L467.862 842.058L467.794 869.533L468.794 869.535ZM468.862 842.06L468.859 843.06L490.384 843.114L490.387 842.114L490.389 841.114L468.864 841.06L468.862 842.06ZM490.387 842.114L489.387 842.111L489.314 871.336L490.314 871.339L491.314 871.341L491.387 842.116L490.387 842.114ZM490.314 871.339L489.314 871.336C489.308 873.907 488.855 876.019 488.004 877.711L488.897 878.16L489.791 878.609C490.815 876.573 491.307 874.137 491.314 871.341L490.314 871.339ZM488.897 878.16L487.992 877.735C487.285 879.24 485.826 880.741 483.461 882.196L483.985 883.048L484.509 883.899C487.052 882.334 488.867 880.576 489.802 878.585L488.897 878.16ZM483.985 883.048L483.482 882.184C480.202 884.096 475.98 885.688 470.788 886.944L471.023 887.916L471.258 888.888C476.573 887.603 480.992 885.95 484.489 883.912L483.985 883.048ZM471.023 887.916L470.762 886.95C465.73 888.31 459.928 888.988 453.345 888.972L453.343 889.972L453.341 890.972C460.058 890.989 466.043 890.297 471.284 888.881L471.023 887.916ZM453.343 889.972L453.345 888.972C445.389 888.952 438.521 887.782 432.719 885.49L432.352 886.42L431.984 887.35C438.071 889.754 445.197 890.952 453.341 890.972L453.343 889.972ZM432.352 886.42L432.719 885.49C426.955 883.213 422.527 879.655 419.393 874.817L418.554 875.361L417.715 875.905C421.09 881.116 425.86 884.931 431.984 887.35L432.352 886.42ZM418.554 875.361L419.408 874.84C416.393 869.899 414.858 863.558 414.878 855.752L413.878 855.749L412.878 855.747C412.858 863.808 414.441 870.541 417.7 875.882L418.554 875.361ZM490.366 850.514L490.368 849.514L468.843 849.46L468.841 850.46L468.838 851.46L490.363 851.514L490.366 850.514ZM468.841 850.46L469.841 850.463L469.953 804.963L468.953 804.96L467.953 804.958L467.841 850.458L468.841 850.46ZM468.953 804.96L469.194 805.931C470.073 805.714 471.371 805.489 473.11 805.262L472.98 804.27L472.85 803.279C471.088 803.509 469.702 803.745 468.713 803.99L468.953 804.96ZM472.98 804.27L473.162 805.254C474.966 804.92 476.83 804.755 478.754 804.76L478.756 803.76L478.759 802.76C476.716 802.755 474.729 802.93 472.798 803.287L472.98 804.27ZM478.756 803.76L478.754 804.76C482.765 804.77 485.472 805.472 487.074 806.68L487.676 805.882L488.278 805.083C486.154 803.482 482.914 802.77 478.759 802.76L478.756 803.76ZM487.676 805.882L487.074 806.68C488.559 807.8 489.466 810.022 489.457 813.761L490.457 813.764L491.457 813.766C491.467 809.805 490.52 806.773 488.278 805.083L487.676 805.882ZM490.457 813.764L489.457 813.761L489.366 850.511L490.366 850.514L491.366 850.516L491.457 813.766L490.457 813.764ZM435.416 850.378L435.418 849.378L413.893 849.324L413.891 850.324L413.889 851.324L435.413 851.378L435.416 850.378ZM413.891 850.324L414.891 850.327L415.004 804.827L414.004 804.825L413.004 804.822L412.891 850.322L413.891 850.324ZM414.004 804.825L414.244 805.795C415.123 805.578 416.421 805.353 418.16 805.126L418.03 804.134L417.901 803.143C416.138 803.373 414.752 803.609 413.763 803.854L414.004 804.825ZM418.03 804.134L418.224 805.116C419.9 804.785 421.759 804.619 423.804 804.624L423.807 803.624L423.809 802.624C421.654 802.618 419.662 802.793 417.837 803.153L418.03 804.134ZM423.807 803.624L423.804 804.624C427.816 804.634 430.522 805.336 432.124 806.544L432.726 805.746L433.328 804.947C431.205 803.346 427.964 802.634 423.809 802.624L423.807 803.624ZM432.726 805.746L432.124 806.544C433.609 807.664 434.516 809.886 434.507 813.625L435.507 813.628L436.507 813.63C436.517 809.669 435.57 806.637 433.328 804.947L432.726 805.746ZM435.507 813.628L434.507 813.625L434.416 850.375L435.416 850.378L436.416 850.38L436.507 813.63L435.507 813.628ZM530.574 827.163L529.574 827.161L529.571 828.161L530.571 828.163L530.574 827.163ZM530.615 810.363L530.618 809.363L529.618 809.361L529.615 810.361L530.615 810.363ZM565.79 810.45L566.66 809.956L566.373 809.452L565.793 809.45L565.79 810.45ZM567.182 813.954L566.225 814.245L566.239 814.291L566.258 814.336L567.182 813.954ZM533.905 824.546L533.903 825.546L534.903 825.549L534.905 824.549L533.905 824.546ZM513.255 824.495L512.255 824.493L512.253 825.493L513.253 825.495L513.255 824.495ZM517.733 783.206L516.895 782.659L516.892 782.664L517.733 783.206ZM530.183 773.087L530.552 774.016L530.562 774.012L530.183 773.087ZM565.708 772.825L565.259 773.718L565.259 773.718L565.708 772.825ZM570.399 786.661L569.52 786.185L569.513 786.199L569.506 786.212L570.399 786.661ZM567.766 790.155L567.375 791.076L567.956 791.322L568.428 790.904L567.766 790.155ZM560.246 787.861L560.031 788.838L560.04 788.84L560.246 787.861ZM538.19 790.432L537.552 789.662L537.552 789.662L538.19 790.432ZM513.271 818.37L513.273 817.37L512.273 817.368L512.271 818.368L513.271 818.37ZM534.796 818.423L535.796 818.426L535.798 817.426L534.798 817.423L534.796 818.423ZM534.625 887.373L534.974 888.31L535.623 888.069L535.625 887.376L534.625 887.373ZM530.598 888.238L530.468 887.247L530.436 887.251L530.404 887.257L530.598 888.238ZM515.902 886.627L515.269 887.401L515.295 887.423L515.323 887.442L515.902 886.627ZM600.399 827.336L599.399 827.333L599.396 828.333L600.396 828.336L600.399 827.336ZM600.44 810.536L600.443 809.536L599.443 809.533L599.44 810.533L600.44 810.536ZM635.615 810.623L636.485 810.129L636.198 809.624L635.618 809.623L635.615 810.623ZM637.006 814.126L636.05 814.418L636.064 814.464L636.082 814.509L637.006 814.126ZM635.753 825.498L635.048 824.789L635.048 824.789L635.753 825.498ZM603.73 824.719L603.728 825.719L604.728 825.722L604.73 824.722L603.73 824.719ZM583.08 824.668L582.08 824.665L582.078 825.665L583.078 825.668L583.08 824.668ZM587.557 783.379L586.72 782.832L586.717 782.837L587.557 783.379ZM600.007 773.26L600.377 774.189L600.387 774.185L600.007 773.26ZM635.533 772.998L635.084 773.891L635.084 773.891L635.533 772.998ZM640.224 786.834L639.345 786.358L639.337 786.371L639.331 786.385L640.224 786.834ZM637.59 790.328L637.2 791.248L637.781 791.495L638.253 791.077L637.59 790.328ZM630.071 788.034L629.856 789.011L629.865 789.013L630.071 788.034ZM608.015 790.605L607.376 789.835L607.376 789.835L608.015 790.605ZM583.095 818.543L583.098 817.543L582.098 817.541L582.095 818.541L583.095 818.543ZM604.62 818.596L605.62 818.599L605.623 817.599L604.623 817.596L604.62 818.596ZM604.45 887.546L604.798 888.483L605.448 888.242L605.45 887.549L604.45 887.546ZM600.423 888.411L600.293 887.42L600.261 887.424L600.229 887.43L600.423 888.411ZM585.726 886.8L585.094 887.574L585.12 887.596L585.148 887.615L585.726 886.8ZM530.574 827.163L531.574 827.166L531.615 810.366L530.615 810.363L529.615 810.361L529.574 827.161L530.574 827.163ZM530.615 810.363L530.613 811.363L565.788 811.45L565.79 810.45L565.793 809.45L530.618 809.363L530.615 810.363ZM565.79 810.45L564.921 810.944C565.333 811.669 565.771 812.757 566.225 814.245L567.182 813.954L568.138 813.662C567.666 812.115 567.177 810.867 566.66 809.956L565.79 810.45ZM567.182 813.954L566.258 814.336C566.777 815.591 567.049 817.089 567.045 818.853L568.045 818.856L569.045 818.858C569.049 816.889 568.746 815.119 568.106 813.571L567.182 813.954ZM568.045 818.856L567.045 818.853C567.038 821.63 566.366 823.48 565.223 824.617L565.929 825.326L566.634 826.034C568.298 824.378 569.037 821.915 569.045 818.858L568.045 818.856ZM565.929 825.326L565.223 824.617C564.183 825.652 562.606 826.242 560.326 826.237L560.324 827.237L560.321 828.237C562.941 828.243 565.101 827.56 566.634 826.034L565.929 825.326ZM560.324 827.237L560.326 826.237L530.576 826.163L530.574 827.163L530.571 828.163L560.321 828.237L560.324 827.237ZM533.961 801.971L532.961 801.969L532.905 824.544L533.905 824.546L534.905 824.549L534.961 801.974L533.961 801.971ZM533.905 824.546L533.908 823.546L513.258 823.495L513.255 824.495L513.253 825.495L533.903 825.546L533.905 824.546ZM513.255 824.495L514.255 824.498L514.313 801.048L513.313 801.045L512.313 801.043L512.255 824.493L513.255 824.495ZM513.313 801.045L514.313 801.048C514.331 793.822 515.78 788.082 518.573 783.748L517.733 783.206L516.892 782.664C513.829 787.416 512.332 793.568 512.313 801.043L513.313 801.045ZM517.733 783.206L518.57 783.753C521.5 779.27 525.485 776.028 530.552 774.016L530.183 773.087L529.814 772.158C524.37 774.319 520.055 777.824 516.896 782.659L517.733 783.206ZM530.183 773.087L530.562 774.012C535.795 771.866 541.731 770.79 548.388 770.807L548.391 769.807L548.393 768.807C541.517 768.79 535.315 769.901 529.803 772.162L530.183 773.087ZM548.391 769.807L548.388 770.807C555.912 770.826 561.502 771.828 565.259 773.718L565.708 772.825L566.158 771.932C561.992 769.836 556.036 768.826 548.393 768.807L548.391 769.807ZM565.708 772.825L565.259 773.718C567.121 774.655 568.457 775.793 569.328 777.107C570.195 778.415 570.641 779.954 570.636 781.762L571.636 781.765L572.636 781.767C572.642 779.609 572.104 777.674 570.995 776.002C569.89 774.336 568.257 772.988 566.158 771.932L565.708 772.825ZM571.636 781.765L570.636 781.762C570.632 783.349 570.26 784.818 569.52 786.185L570.399 786.661L571.279 787.138C572.179 785.475 572.632 783.68 572.636 781.767L571.636 781.765ZM570.399 786.661L569.506 786.212C568.853 787.51 568.05 788.569 567.103 789.406L567.766 790.155L568.428 790.904C569.586 789.88 570.538 788.61 571.293 787.111L570.399 786.661ZM567.766 790.155L568.156 789.234C565.872 788.266 563.303 787.484 560.453 786.883L560.246 787.861L560.04 788.84C562.787 789.419 565.23 790.166 567.375 791.076L567.766 790.155ZM560.246 787.861L560.461 786.885C557.703 786.278 554.773 785.973 551.676 785.965L551.673 786.965L551.671 787.965C554.64 787.972 557.426 788.265 560.031 788.838L560.246 787.861ZM551.673 786.965L551.676 785.965C545.408 785.95 540.626 787.113 537.552 789.662L538.19 790.432L538.828 791.202C541.365 789.098 545.573 787.95 551.671 787.965L551.673 786.965ZM538.19 790.432L537.552 789.662C534.426 792.254 532.975 796.449 532.961 801.969L533.961 801.971L534.961 801.974C534.974 796.76 536.342 793.263 538.828 791.202L538.19 790.432ZM513.271 818.37L513.268 819.37L534.793 819.423L534.796 818.423L534.798 817.423L513.273 817.37L513.271 818.37ZM534.796 818.423L533.796 818.421L533.625 887.371L534.625 887.373L535.625 887.376L535.796 818.426L534.796 818.423ZM534.625 887.373L534.276 886.436C533.447 886.745 532.192 887.021 530.468 887.247L530.598 888.238L530.727 889.23C532.505 888.997 533.935 888.697 534.974 888.31L534.625 887.373ZM530.598 888.238L530.404 887.257C528.728 887.588 526.869 887.754 524.824 887.749L524.821 888.749L524.819 889.749C526.974 889.754 528.966 889.58 530.791 889.219L530.598 888.238ZM524.821 888.749L524.824 887.749C520.944 887.739 518.215 887.043 516.48 885.811L515.902 886.627L515.323 887.442C517.548 889.021 520.765 889.739 524.819 889.749L524.821 888.749ZM515.902 886.627L516.534 885.852C515.009 884.607 514.112 882.347 514.121 878.747L513.121 878.745L512.121 878.743C512.112 882.609 513.068 885.604 515.269 887.401L515.902 886.627ZM513.121 878.745L514.121 878.747L514.271 818.373L513.271 818.37L512.271 818.368L512.121 878.743L513.121 878.745ZM600.399 827.336L601.399 827.338L601.44 810.538L600.44 810.536L599.44 810.533L599.399 827.333L600.399 827.336ZM600.44 810.536L600.438 811.536L635.613 811.623L635.615 810.623L635.618 809.623L600.443 809.536L600.44 810.536ZM635.615 810.623L634.746 811.117C635.158 811.842 635.596 812.93 636.05 814.418L637.006 814.126L637.963 813.835C637.491 812.287 637.002 811.04 636.485 810.129L635.615 810.623ZM637.006 814.126L636.082 814.509C636.602 815.764 636.874 817.262 636.869 819.026L637.869 819.029L638.869 819.031C638.874 817.062 638.571 815.292 637.93 813.744L637.006 814.126ZM637.869 819.029L636.869 819.026C636.862 821.802 636.19 823.653 635.048 824.789L635.753 825.498L636.459 826.207C638.123 824.551 638.862 822.088 638.869 819.031L637.869 819.029ZM635.753 825.498L635.048 824.789C634.008 825.825 632.431 826.415 630.151 826.409L630.149 827.409L630.146 828.409C632.766 828.416 634.926 827.732 636.459 826.207L635.753 825.498ZM630.149 827.409L630.151 826.409L600.401 826.336L600.399 827.336L600.396 828.336L630.146 828.409L630.149 827.409ZM603.786 802.144L602.786 802.142L602.73 824.717L603.73 824.719L604.73 824.722L604.786 802.147L603.786 802.144ZM603.73 824.719L603.733 823.719L583.083 823.668L583.08 824.668L583.078 825.668L603.728 825.719L603.73 824.719ZM583.08 824.668L584.08 824.67L584.138 801.221L583.138 801.218L582.138 801.216L582.08 824.665L583.08 824.668ZM583.138 801.218L584.138 801.221C584.156 793.995 585.605 788.254 588.398 783.921L587.557 783.379L586.717 782.837C583.654 787.589 582.157 793.741 582.138 801.216L583.138 801.218ZM587.557 783.379L588.394 783.926C591.325 779.442 595.31 776.201 600.377 774.189L600.007 773.26L599.638 772.33C594.195 774.492 589.88 777.997 586.72 782.832L587.557 783.379ZM600.007 773.26L600.387 774.185C605.62 772.039 611.556 770.963 618.213 770.98L618.216 769.98L618.218 768.98C611.342 768.963 605.14 770.074 599.628 772.334L600.007 773.26ZM618.216 769.98L618.213 770.98C625.737 770.998 631.326 772.001 635.084 773.891L635.533 772.998L635.983 772.104C631.817 770.008 625.861 768.999 618.218 768.98L618.216 769.98ZM635.533 772.998L635.084 773.891C636.946 774.828 638.282 775.966 639.153 777.28C640.02 778.588 640.466 780.126 640.461 781.935L641.461 781.937L642.461 781.94C642.466 779.781 641.929 777.847 640.82 776.175C639.715 774.509 638.082 773.16 635.983 772.104L635.533 772.998ZM641.461 781.937L640.461 781.935C640.457 783.522 640.085 784.991 639.345 786.358L640.224 786.834L641.103 787.311C642.004 785.648 642.456 783.853 642.461 781.94L641.461 781.937ZM640.224 786.834L639.331 786.385C638.678 787.682 637.875 788.741 636.928 789.579L637.59 790.328L638.253 791.077C639.411 790.053 640.363 788.783 641.117 787.284L640.224 786.834ZM637.59 790.328L637.981 789.407C635.697 788.439 633.128 787.657 630.277 787.056L630.071 788.034L629.865 789.013C632.612 789.592 635.055 790.339 637.2 791.248L637.59 790.328ZM630.071 788.034L630.286 787.057C627.527 786.451 624.598 786.146 621.501 786.138L621.498 787.138L621.496 788.138C624.465 788.145 627.251 788.438 629.856 789.011L630.071 788.034ZM621.498 787.138L621.501 786.138C615.232 786.122 610.451 787.286 607.376 789.835L608.015 790.605L608.653 791.374C611.19 789.271 615.397 788.123 621.496 788.138L621.498 787.138ZM608.015 790.605L607.376 789.835C604.251 792.426 602.8 796.622 602.786 802.142L603.786 802.144L604.786 802.147C604.799 796.933 606.167 793.436 608.653 791.374L608.015 790.605ZM583.095 818.543L583.093 819.543L604.618 819.596L604.62 818.596L604.623 817.596L583.098 817.543L583.095 818.543ZM604.62 818.596L603.62 818.594L603.45 887.544L604.45 887.546L605.45 887.549L605.62 818.599L604.62 818.596ZM604.45 887.546L604.101 886.609C603.272 886.917 602.016 887.194 600.293 887.42L600.423 888.411L600.552 889.403C602.33 889.17 603.759 888.87 604.798 888.483L604.45 887.546ZM600.423 888.411L600.229 887.43C598.553 887.761 596.694 887.927 594.649 887.922L594.646 888.922L594.644 889.922C596.798 889.927 598.791 889.753 600.616 889.392L600.423 888.411ZM594.646 888.922L594.649 887.922C590.769 887.912 588.04 887.215 586.305 885.984L585.726 886.8L585.148 887.615C587.372 889.194 590.59 889.912 594.644 889.922L594.646 888.922ZM585.726 886.8L586.359 886.025C584.834 884.78 583.937 882.52 583.946 878.92L582.946 878.918L581.946 878.915C581.936 882.782 582.893 885.777 585.094 887.574L585.726 886.8ZM582.946 878.918L583.946 878.92L584.095 818.545L583.095 818.543L582.095 818.541L581.946 878.915L582.946 878.918ZM657.586 805.427L657.562 804.428L656.589 804.451L656.586 805.425L657.586 805.427ZM677.363 804.951L678.357 804.849L678.263 803.929L677.339 803.952L677.363 804.951ZM678.378 818.954L677.379 818.999L677.38 819.011L677.38 819.023L678.378 818.954ZM678.867 833.48L677.867 833.478L677.867 833.49L677.867 833.502L678.867 833.48ZM678.907 887.905L679.18 888.868L679.906 888.662L679.907 887.908L678.907 887.905ZM674.706 888.595L674.591 887.601L674.557 887.605L674.524 887.612L674.706 888.595ZM660.01 886.984L659.353 887.738L659.379 887.761L659.408 887.782L660.01 886.984ZM747.566 864.275L747.59 865.275L748.564 865.252L748.566 864.278L747.566 864.275ZM727.615 864.751L726.62 864.852L726.713 865.773L727.639 865.75L727.615 864.751ZM726.105 838.497L725.105 838.508L725.105 838.508L726.105 838.497ZM726.07 781.972L725.855 780.995L725.072 781.167L725.07 781.969L726.07 781.972ZM730.272 781.107L730.09 780.124L730.078 780.126L730.272 781.107ZM744.967 782.893L744.311 783.648L744.323 783.658L744.335 783.668L744.967 782.893ZM747.584 857.1L748.584 857.103L748.587 855.853L747.367 856.124L747.584 857.1ZM747.514 885.45L748.152 886.22L748.513 885.921L748.514 885.453L747.514 885.45ZM741.907 888.236L741.622 887.278L741.6 887.284L741.579 887.292L741.907 888.236ZM724.058 887.667L723.671 888.589L723.678 888.592L723.684 888.595L724.058 887.667ZM716.902 879.949L717.798 879.504L717.788 879.484L717.776 879.464L716.902 879.949ZM691.291 833.861L690.396 834.306L690.406 834.326L690.417 834.347L691.291 833.861ZM686.763 825.1L685.867 825.545L685.874 825.558L685.881 825.571L686.763 825.1ZM678.58 808.104L679.484 807.677L679.139 806.949L678.355 807.13L678.58 808.104ZM657.568 812.952L656.568 812.95L656.565 814.21L657.793 813.927L657.568 812.952ZM657.636 785.477L656.851 784.858L656.637 785.129L656.636 785.475L657.636 785.477ZM663.245 781.816L662.944 780.862L662.931 780.867L663.245 781.816ZM688.425 789.929L687.535 790.384L687.543 790.399L687.551 790.414L688.425 789.929ZM714.036 836.017L714.916 835.543L714.91 835.531L714.036 836.017ZM718.564 844.778L717.669 845.223L717.675 845.237L717.683 845.25L718.564 844.778ZM722.917 853.714L722.001 854.115L722.007 854.13L722.015 854.145L722.917 853.714ZM726.572 861.773L725.652 862.165L725.978 862.93L726.789 862.749L726.572 861.773ZM657.586 805.427L657.611 806.427L677.387 805.951L677.363 804.951L677.339 803.952L657.562 804.428L657.586 805.427ZM677.363 804.951L676.368 805.053C676.821 809.467 677.159 814.116 677.379 818.999L678.378 818.954L679.377 818.909C679.155 813.991 678.815 809.304 678.357 804.849L677.363 804.951ZM678.378 818.954L677.38 819.023C677.717 823.9 677.879 828.719 677.867 833.478L678.867 833.48L679.867 833.483C679.879 828.675 679.715 823.809 679.376 818.885L678.378 818.954ZM678.867 833.48L677.867 833.502C677.972 838.278 678.019 842.878 678.008 847.303L679.008 847.305L680.008 847.308C680.019 842.866 679.972 838.249 679.867 833.458L678.867 833.48ZM679.008 847.305L678.008 847.303L677.907 887.903L678.907 887.905L679.907 887.908L680.008 847.308L679.008 847.305ZM678.907 887.905L678.635 886.943C677.903 887.15 676.574 887.373 674.591 887.601L674.706 888.595L674.82 889.588C676.805 889.36 678.277 889.123 679.18 888.868L678.907 887.905ZM674.706 888.595L674.524 887.612C672.716 887.946 670.911 888.111 669.107 888.106L669.104 889.106L669.102 890.106C671.031 890.111 672.96 889.935 674.888 889.578L674.706 888.595ZM669.104 889.106L669.107 888.106C664.971 888.096 662.211 887.391 660.612 886.185L660.01 886.984L659.408 887.782C661.535 889.386 664.838 890.095 669.102 890.106L669.104 889.106ZM660.01 886.984L660.666 886.229C659.243 884.989 658.395 882.722 658.404 879.105L657.404 879.102L656.404 879.1C656.395 882.949 657.284 885.936 659.353 887.738L660.01 886.984ZM657.404 879.102L658.404 879.105L658.586 805.43L657.586 805.427L656.586 805.425L656.404 879.1L657.404 879.102ZM747.566 864.275L747.542 863.275L727.591 863.751L727.615 864.751L727.639 865.75L747.59 865.275L747.566 864.275ZM727.615 864.751L728.61 864.65C727.702 855.692 727.2 846.971 727.105 838.486L726.105 838.497L725.105 838.508C725.201 847.057 725.706 855.838 726.62 864.852L727.615 864.751ZM726.105 838.497L727.105 838.486C727.01 829.857 726.972 821.519 726.992 813.474L725.992 813.472L724.992 813.469C724.972 821.524 725.01 829.87 725.105 838.508L726.105 838.497ZM725.992 813.472L726.992 813.474L727.07 781.974L726.07 781.972L725.07 781.969L724.992 813.469L725.992 813.472ZM726.07 781.972L726.284 782.948C727.325 782.72 728.718 782.433 730.466 782.088L730.272 781.107L730.078 780.126C728.324 780.472 726.916 780.762 725.855 780.995L726.07 781.972ZM730.272 781.107L730.454 782.09C732.254 781.757 734.176 781.592 736.221 781.597L736.223 780.597L736.226 779.597C734.07 779.591 732.024 779.766 730.09 780.124L730.272 781.107ZM736.223 780.597L736.221 781.597C740.229 781.607 742.841 782.367 744.311 783.648L744.967 782.893L745.624 782.139C743.602 780.378 740.384 779.607 736.226 779.597L736.223 780.597ZM744.967 782.893L744.335 783.668C745.867 784.919 746.757 787.127 746.748 790.598L747.748 790.6L748.748 790.603C748.758 786.84 747.794 783.911 745.6 782.119L744.967 782.893ZM747.748 790.6L746.748 790.598L746.566 864.273L747.566 864.275L748.566 864.278L748.748 790.603L747.748 790.6ZM747.584 857.1L746.584 857.098L746.514 885.448L747.514 885.45L748.514 885.453L748.584 857.103L747.584 857.1ZM747.514 885.45L746.875 884.68C745.605 885.734 743.869 886.61 741.622 887.278L741.907 888.236L742.192 889.195C744.615 888.474 746.617 887.493 748.152 886.22L747.514 885.45ZM741.907 888.236L741.579 887.292C739.371 888.058 736.802 888.449 733.856 888.441L733.854 889.441L733.851 890.441C736.972 890.449 739.772 890.036 742.235 889.181L741.907 888.236ZM733.854 889.441L733.856 888.441C730.348 888.433 727.211 887.859 724.432 886.739L724.058 887.667L723.684 888.595C726.733 889.823 730.126 890.432 733.851 890.441L733.854 889.441ZM724.058 887.667L724.445 886.745C721.952 885.699 719.713 883.358 717.798 879.504L716.902 879.949L716.007 880.394C718.039 884.484 720.57 887.288 723.671 888.589L724.058 887.667ZM716.902 879.949L717.776 879.464L692.165 833.375L691.291 833.861L690.417 834.347L716.028 880.435L716.902 879.949ZM691.291 833.861L692.187 833.416C690.789 830.602 689.275 827.673 687.644 824.628L686.763 825.1L685.881 825.571C687.503 828.601 689.008 831.512 690.396 834.306L691.291 833.861ZM686.763 825.1L687.658 824.655C686.152 821.622 684.703 818.648 683.313 815.733L682.41 816.164L681.507 816.594C682.903 819.519 684.356 822.503 685.867 825.545L686.763 825.1ZM682.41 816.164L683.313 815.733C681.92 812.814 680.644 810.128 679.484 807.677L678.58 808.104L677.676 808.532C678.837 810.986 680.114 813.673 681.507 816.594L682.41 816.164ZM678.58 808.104L678.355 807.13L657.343 811.978L657.568 812.952L657.793 813.927L678.805 809.079L678.58 808.104ZM657.568 812.952L658.568 812.955L658.636 785.48L657.636 785.477L656.636 785.475L656.568 812.95L657.568 812.952ZM657.636 785.477L658.421 786.097C659.56 784.654 661.247 783.53 663.559 782.766L663.245 781.816L662.931 780.867C660.338 781.724 658.286 783.04 656.851 784.858L657.636 785.477ZM663.245 781.816L663.546 782.77C666.009 781.993 668.648 781.605 671.47 781.612L671.473 780.612L671.475 779.612C668.464 779.604 665.619 780.019 662.944 780.863L663.245 781.816ZM671.473 780.612L671.47 781.612C674.858 781.62 677.937 782.192 680.72 783.313L681.094 782.385L681.467 781.458C678.423 780.231 675.088 779.621 671.475 779.612L671.473 780.612ZM681.094 782.385L680.72 783.313C683.338 784.368 685.629 786.663 687.535 790.384L688.425 789.929L689.315 789.473C687.273 785.485 684.676 782.751 681.467 781.458L681.094 782.385ZM688.425 789.929L687.551 790.414L713.162 836.503L714.036 836.017L714.91 835.531L689.299 789.443L688.425 789.929ZM714.036 836.017L713.155 836.491C714.66 839.285 716.164 842.195 717.669 845.223L718.564 844.778L719.46 844.333C717.946 841.287 716.432 838.357 714.916 835.543L714.036 836.017ZM718.564 844.778L717.683 845.25C719.297 848.266 720.736 851.221 722.001 854.115L722.917 853.714L723.833 853.314C722.546 850.368 721.083 847.365 719.446 844.306L718.564 844.778ZM722.917 853.714L722.015 854.145C723.402 857.055 724.615 859.728 725.652 862.165L726.572 861.773L727.492 861.382C726.442 858.913 725.217 856.214 723.82 853.284L722.917 853.714ZM726.572 861.773L726.789 862.749L747.801 858.076L747.584 857.1L747.367 856.124L726.355 860.797L726.572 861.773ZM772.285 842.811L772.287 841.811L771.287 841.809L771.285 842.809L772.285 842.811ZM793.81 842.865L794.81 842.867L794.812 841.867L793.812 841.865L793.81 842.865ZM798.468 869.651L797.818 870.411L797.825 870.417L797.832 870.422L798.468 869.651ZM821.386 872.683L821.647 873.648L821.647 873.648L821.386 872.683ZM827.167 870.422L827.701 871.267L828.165 870.974L828.167 870.425L827.167 870.422ZM827.235 842.947L827.237 841.947L826.237 841.945L826.235 842.945L827.235 842.947ZM848.759 843L849.759 843.003L849.762 842.003L848.762 842L848.759 843ZM847.27 879.047L846.377 878.597L846.371 878.61L846.365 878.622L847.27 879.047ZM842.358 883.935L842.862 884.799L842.872 884.793L842.882 884.786L842.358 883.935ZM829.396 888.803L829.161 887.831L829.148 887.834L829.135 887.837L829.396 888.803ZM790.725 887.307L790.357 888.237L790.357 888.237L790.725 887.307ZM776.927 876.248L776.073 876.769L776.08 876.78L776.088 876.791L776.927 876.248ZM848.739 851.4L848.736 852.4L849.736 852.403L849.739 851.403L848.739 851.4ZM827.214 851.347L826.214 851.345L826.211 852.345L827.211 852.347L827.214 851.347ZM827.326 805.847L827.086 804.877L826.328 805.064L826.326 805.845L827.326 805.847ZM831.353 805.157L831.483 806.149L831.509 806.145L831.535 806.141L831.353 805.157ZM846.049 806.769L845.447 807.567L845.447 807.567L846.049 806.769ZM793.789 851.264L793.786 852.264L794.786 852.267L794.789 851.267L793.789 851.264ZM772.264 851.211L771.264 851.209L771.261 852.209L772.261 852.211L772.264 851.211ZM772.377 805.711L772.136 804.741L771.378 804.928L771.377 805.709L772.377 805.711ZM776.403 805.021L776.533 806.013L776.565 806.009L776.597 806.002L776.403 805.021ZM791.099 806.633L790.497 807.431L790.497 807.431L791.099 806.633ZM772.251 856.636L773.251 856.639L773.285 842.814L772.285 842.811L771.285 842.809L771.251 856.634L772.251 856.636ZM772.285 842.811L772.282 843.811L793.807 843.865L793.81 842.865L793.812 841.865L772.287 841.811L772.285 842.811ZM793.81 842.865L792.81 842.862L792.776 856.337L793.776 856.339L794.776 856.342L794.81 842.867L793.81 842.865ZM793.776 856.339L792.776 856.337C792.761 862.666 794.36 867.451 797.818 870.411L798.468 869.651L799.119 868.891C796.29 866.469 794.761 862.379 794.776 856.342L793.776 856.339ZM798.468 869.651L797.832 870.422C801.324 873.306 806.064 874.695 811.931 874.709L811.933 873.709L811.936 872.709C806.369 872.696 802.132 871.379 799.105 868.88L798.468 869.651ZM811.933 873.709L811.931 874.709C815.72 874.719 818.966 874.372 821.647 873.648L821.386 872.683L821.125 871.717C818.669 872.381 815.613 872.719 811.936 872.709L811.933 873.709ZM821.386 872.683L821.647 873.648C824.251 872.945 826.291 872.16 827.701 871.267L827.167 870.422L826.632 869.577C825.472 870.311 823.658 871.033 821.125 871.717L821.386 872.683ZM827.167 870.422L828.167 870.425L828.235 842.95L827.235 842.947L826.235 842.945L826.167 870.42L827.167 870.422ZM827.235 842.947L827.232 843.947L848.757 844L848.759 843L848.762 842L827.237 841.947L827.235 842.947ZM848.759 843L847.759 842.998L847.687 872.223L848.687 872.225L849.687 872.228L849.759 843.003L848.759 843ZM848.687 872.225L847.687 872.223C847.681 874.794 847.228 876.906 846.377 878.597L847.27 879.047L848.164 879.496C849.188 877.459 849.68 875.024 849.687 872.228L848.687 872.225ZM847.27 879.047L846.365 878.622C845.658 880.127 844.198 881.628 841.834 883.083L842.358 883.935L842.882 884.786C845.425 883.221 847.24 881.463 848.175 879.472L847.27 879.047ZM842.358 883.935L841.855 883.071C838.575 884.982 834.353 886.575 829.161 887.831L829.396 888.803L829.631 889.775C834.946 888.49 839.365 886.837 842.862 884.799L842.358 883.935ZM829.396 888.803L829.135 887.837C824.103 889.196 818.301 889.875 811.718 889.859L811.716 890.859L811.713 891.859C818.431 891.876 824.416 891.184 829.657 889.768L829.396 888.803ZM811.716 890.859L811.718 889.859C803.762 889.839 796.894 888.669 791.092 886.377L790.725 887.307L790.357 888.237C796.444 890.641 803.57 891.839 811.713 891.859L811.716 890.859ZM790.725 887.307L791.092 886.377C785.328 884.1 780.9 880.542 777.766 875.704L776.927 876.248L776.088 876.791C779.463 882.003 784.233 885.818 790.357 888.237L790.725 887.307ZM776.927 876.248L777.781 875.727C774.765 870.786 773.231 864.445 773.251 856.639L772.251 856.636L771.251 856.634C771.231 864.694 772.814 871.427 776.073 876.769L776.927 876.248ZM848.739 851.4L848.741 850.4L827.216 850.347L827.214 851.347L827.211 852.347L848.736 852.4L848.739 851.4ZM827.214 851.347L828.214 851.35L828.326 805.85L827.326 805.847L826.326 805.845L826.214 851.345L827.214 851.347ZM827.326 805.847L827.566 806.818C828.446 806.601 829.744 806.376 831.483 806.149L831.353 805.157L831.223 804.166C829.461 804.396 828.075 804.632 827.086 804.877L827.326 805.847ZM831.353 805.157L831.535 806.141C833.339 805.807 835.203 805.642 837.127 805.647L837.129 804.647L837.132 803.647C835.089 803.642 833.102 803.817 831.171 804.174L831.353 805.157ZM837.129 804.647L837.127 805.647C841.138 805.657 843.845 806.359 845.447 807.567L846.049 806.769L846.651 805.97C844.527 804.369 841.287 803.657 837.132 803.647L837.129 804.647ZM846.049 806.769L845.447 807.567C846.932 808.686 847.839 810.909 847.83 814.648L848.83 814.651L849.83 814.653C849.839 810.692 848.893 807.66 846.651 805.97L846.049 806.769ZM848.83 814.651L847.83 814.648L847.739 851.398L848.739 851.4L849.739 851.403L849.83 814.653L848.83 814.651ZM793.789 851.264L793.791 850.264L772.266 850.211L772.264 851.211L772.261 852.211L793.786 852.264L793.789 851.264ZM772.264 851.211L773.264 851.214L773.377 805.714L772.377 805.711L771.377 805.709L771.264 851.209L772.264 851.211ZM772.377 805.711L772.617 806.682C773.496 806.465 774.794 806.24 776.533 806.013L776.403 805.021L776.274 804.03C774.511 804.26 773.125 804.496 772.136 804.741L772.377 805.711ZM776.403 805.021L776.597 806.002C778.273 805.671 780.132 805.506 782.177 805.511L782.18 804.511L782.182 803.511C780.027 803.505 778.035 803.68 776.21 804.04L776.403 805.021ZM782.18 804.511L782.177 805.511C786.189 805.521 788.895 806.223 790.497 807.431L791.099 806.633L791.701 805.834C789.578 804.233 786.337 803.521 782.182 803.511L782.18 804.511ZM791.099 806.633L790.497 807.431C791.982 808.55 792.889 810.773 792.88 814.512L793.88 814.515L794.88 814.517C794.89 810.556 793.943 807.524 791.701 805.834L791.099 806.633ZM793.88 814.515L792.88 814.512L792.789 851.262L793.789 851.264L794.789 851.267L794.88 814.517L793.88 814.515ZM925.942 870.492L926.464 871.345L926.941 871.053L926.942 870.494L925.942 870.492ZM926.078 815.542L926.08 814.542L925.08 814.539L925.078 815.539L926.078 815.542ZM947.603 815.595L948.603 815.597L948.605 814.597L947.605 814.595L947.603 815.595ZM945.695 879.29L944.865 878.734L944.86 878.741L944.855 878.748L945.695 879.29ZM940.433 884.002L939.909 883.151L939.895 883.16L939.881 883.169L940.433 884.002ZM928.871 888.874L928.599 887.912L928.585 887.916L928.572 887.92L928.871 888.874ZM888.277 886.498L887.853 887.404L887.862 887.408L887.872 887.413L888.277 886.498ZM872.563 872.109L871.693 872.603L871.697 872.61L872.563 872.109ZM872.686 822.41L871.825 821.9L871.819 821.911L872.686 822.41ZM888.121 808.098L888.546 809.003L888.553 809L888.56 808.997L888.121 808.098ZM921.204 805.03L920.914 805.987L920.923 805.989L921.204 805.03ZM929.945 808.726L930.945 808.729L930.946 808.178L930.481 807.882L929.945 808.726ZM929.899 827.101L929.214 827.829L930.894 829.412L930.899 827.104L929.899 827.101ZM900.333 823.353L900.778 824.249L900.79 824.243L900.802 824.237L900.333 823.353ZM892.087 832.083L892.98 832.532L892.985 832.522L892.087 832.083ZM920.336 872.928L920.635 873.882L920.635 873.882L920.336 872.928ZM947.592 819.97L947.598 820.97L948.59 820.964L948.592 819.972L947.592 819.97ZM926.067 820.092L925.067 820.089L925.064 821.097L926.072 821.092L926.067 820.092ZM926.178 774.942L925.906 773.98L925.18 774.185L925.178 774.939L926.178 774.942ZM930.03 774.076L929.849 773.093L929.837 773.095L930.03 774.076ZM944.901 775.863L944.269 776.638L944.284 776.65L944.299 776.662L944.901 775.863ZM925.942 870.492L926.942 870.494L927.078 815.544L926.078 815.542L925.078 815.539L924.942 870.489L925.942 870.492ZM926.078 815.542L926.075 816.542L947.6 816.595L947.603 815.595L947.605 814.595L926.08 814.542L926.078 815.542ZM947.603 815.595L946.603 815.593L946.461 872.817L947.461 872.82L948.461 872.822L948.603 815.597L947.603 815.595ZM947.461 872.82L946.461 872.817C946.455 875.231 945.903 877.184 944.865 878.734L945.695 879.29L946.526 879.847C947.829 877.903 948.454 875.542 948.461 872.822L947.461 872.82ZM945.695 879.29L944.855 878.748C943.912 880.208 942.292 881.684 939.909 883.151L940.433 884.002L940.958 884.854C943.482 883.3 945.371 881.635 946.535 879.833L945.695 879.29ZM940.433 884.002L939.881 883.169C937.195 884.95 933.449 886.539 928.599 887.912L928.871 888.874L929.144 889.836C934.101 888.433 938.063 886.774 940.986 884.836L940.433 884.002ZM928.871 888.874L928.572 887.92C923.902 889.388 918.522 890.123 912.418 890.108L912.416 891.108L912.413 892.108C918.676 892.124 924.267 891.37 929.171 889.828L928.871 888.874ZM912.416 891.108L912.418 890.108C903.31 890.086 895.406 888.567 888.683 885.584L888.277 886.498L887.872 887.413C894.9 890.53 903.088 892.085 912.413 892.108L912.416 891.108ZM888.277 886.498L888.701 885.593C882.127 882.512 877.043 877.857 873.428 871.609L872.563 872.109L871.697 872.61C875.517 879.214 880.91 884.151 887.853 887.404L888.277 886.498ZM872.563 872.109L873.432 871.615C869.824 865.265 868 857.219 868.024 847.423L867.024 847.421L866.024 847.418C865.999 857.455 867.867 865.869 871.693 872.603L872.563 872.109ZM867.024 847.421L868.024 847.423C868.049 837.389 869.915 829.237 873.553 822.908L872.686 822.41L871.819 821.911C867.957 828.63 866.049 837.153 866.024 847.418L867.024 847.421ZM872.686 822.41L873.546 822.919C877.317 816.556 882.316 811.929 888.546 809.003L888.121 808.098L887.696 807.193C881.078 810.301 875.786 815.216 871.825 821.9L872.686 822.41ZM888.121 808.098L888.56 808.997C894.834 805.936 901.802 804.407 909.48 804.426L909.483 803.426L909.485 802.426C901.53 802.406 894.257 803.992 887.683 807.199L888.121 808.098ZM909.483 803.426L909.48 804.426C913.717 804.436 917.525 804.961 920.914 805.987L921.204 805.03L921.494 804.073C917.888 802.981 913.882 802.437 909.485 802.426L909.483 803.426ZM921.204 805.03L920.923 805.989C924.482 807.032 927.301 808.232 929.409 809.57L929.945 808.726L930.481 807.882C928.162 806.41 925.153 805.145 921.485 804.07L921.204 805.03ZM929.945 808.726L928.945 808.724L928.899 827.099L929.899 827.101L930.899 827.104L930.945 808.729L929.945 808.726ZM929.899 827.101L930.585 826.373C928.616 824.518 926.061 822.937 922.952 821.613L922.561 822.533L922.169 823.453C925.12 824.71 927.458 826.175 929.214 827.829L929.899 827.101ZM922.561 822.533L922.952 821.613C919.777 820.26 916.142 819.592 912.068 819.582L912.065 820.582L912.063 821.582C915.922 821.592 919.284 822.224 922.169 823.453L922.561 822.533ZM912.065 820.582L912.068 819.582C907.602 819.571 903.527 820.528 899.865 822.47L900.333 823.353L900.802 824.237C904.149 822.462 907.896 821.572 912.063 821.582L912.065 820.582ZM900.333 823.353L899.888 822.458C896.156 824.312 893.262 827.4 891.188 831.644L892.087 832.083L892.985 832.522C894.898 828.608 897.502 825.877 900.778 824.249L900.333 823.353ZM892.087 832.083L891.194 831.633C889.107 835.782 888.089 841.14 888.073 847.648L889.073 847.65L890.073 847.653C890.089 841.327 891.081 836.307 892.98 832.532L892.087 832.083ZM889.073 847.65L888.073 847.648C888.05 856.875 890.159 863.843 894.615 868.321L895.324 867.616L896.033 866.91C892.109 862.967 890.051 856.626 890.073 847.653L889.073 847.65ZM895.324 867.616L894.615 868.321C899.028 872.756 904.955 874.94 912.281 874.958L912.283 873.958L912.286 872.958C905.378 872.941 899.999 870.896 896.033 866.91L895.324 867.616ZM912.283 873.958L912.281 874.958C915.499 874.966 918.291 874.616 920.635 873.882L920.336 872.928L920.037 871.973C917.944 872.629 915.367 872.965 912.286 872.958L912.283 873.958ZM920.336 872.928L920.635 873.882C922.909 873.17 924.857 872.328 926.464 871.345L925.942 870.492L925.42 869.639C923.988 870.515 922.2 871.296 920.037 871.973L920.336 872.928ZM947.592 819.97L947.586 818.97L926.061 819.092L926.067 820.092L926.072 821.092L947.598 820.97L947.592 819.97ZM926.067 820.092L927.067 820.094L927.178 774.944L926.178 774.942L925.178 774.939L925.067 820.089L926.067 820.092ZM926.178 774.942L926.451 775.904C927.227 775.684 928.478 775.402 930.224 775.057L930.03 774.076L929.837 773.095C928.082 773.442 926.764 773.737 925.906 773.98L926.178 774.942ZM930.03 774.076L930.212 775.06C932.016 774.726 933.88 774.561 935.804 774.566L935.807 773.566L935.809 772.566C933.767 772.561 931.78 772.736 929.849 773.093L930.03 774.076ZM935.807 773.566L935.804 774.566C939.929 774.576 942.675 775.336 944.269 776.638L944.901 775.863L945.534 775.089C943.402 773.348 940.085 772.576 935.809 772.566L935.807 773.566ZM944.901 775.863L944.299 776.662C945.79 777.786 946.691 779.959 946.682 783.568L947.682 783.57L948.682 783.573C948.692 779.715 947.738 776.75 945.503 775.065L944.901 775.863ZM947.682 783.57L946.682 783.568L946.592 819.968L947.592 819.97L948.592 819.972L948.682 783.573L947.682 783.57ZM985.485 882.014L985.065 882.921L985.072 882.925L985.08 882.928L985.485 882.014ZM971.517 868.854L972.385 868.357L972.385 868.357L971.517 868.854ZM971.633 822.129L970.771 821.622L970.768 821.628L971.633 822.129ZM986.717 808.342L987.142 809.247L987.149 809.244L986.717 808.342ZM1025.57 805.988L1025.28 806.944L1025.29 806.946L1025.57 805.988ZM1037.81 811.268L1037.26 812.104L1037.26 812.106L1037.81 811.268ZM1042.52 816.005L1041.67 816.533L1041.69 816.564L1041.72 816.594L1042.52 816.005ZM1044.3 877.084L1044.29 878.084L1045.29 878.087L1045.3 877.087L1044.3 877.084ZM1023.3 877.033L1022.3 877.03L1022.29 878.03L1023.29 878.033L1023.3 877.033ZM1023.43 824.358L1024.43 824.36L1024.43 823.801L1023.95 823.507L1023.43 824.358ZM993.846 826.734L993.151 826.015L993.146 826.021L993.141 826.026L993.846 826.734ZM993.58 863.834L992.893 864.561L992.899 864.566L992.904 864.571L993.58 863.834ZM1018.77 867.046L1018.3 866.166L1018.29 866.17L1018.28 866.175L1018.77 867.046ZM1025.78 862.164L1026.78 862.126L1026.7 859.94L1025.1 861.432L1025.78 862.164ZM1026.44 879.665L1027.05 880.456L1027.46 880.142L1027.44 879.628L1026.44 879.665ZM1017.68 884.019L1017.36 883.072L1017.35 883.075L1017.68 884.019ZM1023.66 872.308L1023.66 871.308L1022.66 871.306L1022.66 872.306L1023.66 872.308ZM1044.31 872.359L1045.31 872.362L1045.31 871.362L1044.31 871.359L1044.31 872.359ZM1038.79 909.446L1037.99 908.85L1037.98 908.859L1038.79 909.446ZM1023.89 920.434L1023.54 919.495L1023.54 919.498L1023.89 920.434ZM987.135 922.093L986.879 923.06L986.885 923.061L987.135 922.093ZM977.345 918.394L977.868 917.542L977.865 917.54L977.345 918.394ZM976.341 899.491L976.883 898.65L976.346 898.305L975.807 898.646L976.341 899.491ZM987.179 904.418L986.868 905.369L986.876 905.371L987.179 904.418ZM1017.63 902.394L1017.08 901.564L1017.07 901.569L1017.06 901.575L1017.63 902.394ZM1004.55 885.911L1004.55 884.911C997.797 884.894 991.58 883.62 985.89 881.1L985.485 882.014L985.08 882.928C991.043 885.57 997.537 886.894 1004.55 886.911L1004.55 885.911ZM985.485 882.014L985.905 881.107C980.283 878.504 975.776 874.27 972.385 868.357L971.517 868.854L970.65 869.352C974.228 875.59 979.033 880.129 985.065 882.921L985.485 882.014ZM971.517 868.854L972.385 868.357C969.016 862.484 967.302 854.679 967.327 844.869L966.327 844.866L965.327 844.864C965.302 854.887 967.049 863.074 970.65 869.352L971.517 868.854ZM966.327 844.866L967.327 844.869C967.349 835.893 969.093 828.499 972.498 822.631L971.633 822.129L970.768 821.628C967.142 827.876 965.349 835.64 965.327 844.864L966.327 844.866ZM971.633 822.129L972.495 822.637C976.026 816.634 980.902 812.178 987.142 809.247L986.717 808.342L986.292 807.437C979.683 810.541 974.504 815.276 970.771 821.622L971.633 822.129ZM986.717 808.342L987.149 809.244C993.535 806.184 1000.85 804.652 1009.13 804.672L1009.13 803.672L1009.13 802.672C1000.6 802.651 992.982 804.232 986.285 807.44L986.717 808.342ZM1009.13 803.672L1009.13 804.672C1014.99 804.687 1020.37 805.448 1025.28 806.944L1025.57 805.988L1025.86 805.031C1020.75 803.47 1015.17 802.687 1009.13 802.672L1009.13 803.672ZM1025.57 805.988L1025.29 806.946C1030.36 808.46 1034.34 810.185 1037.26 812.104L1037.81 811.268L1038.36 810.433C1035.22 808.369 1031.04 806.575 1025.86 805.03L1025.57 805.988ZM1037.81 811.268L1037.26 812.106C1039.13 813.321 1040.59 814.797 1041.67 816.533L1042.52 816.005L1043.37 815.477C1042.13 813.474 1040.45 811.792 1038.36 810.43L1037.81 811.268ZM1042.52 816.005L1041.72 816.594C1042.85 818.146 1043.44 820.088 1043.43 822.482L1044.43 822.485L1045.43 822.487C1045.44 819.748 1044.76 817.37 1043.33 815.416L1042.52 816.005ZM1044.43 822.485L1043.43 822.482L1043.3 877.082L1044.3 877.084L1045.3 877.087L1045.43 822.487L1044.43 822.485ZM1044.3 877.084L1044.3 876.084L1023.3 876.033L1023.3 877.033L1023.29 878.033L1044.29 878.084L1044.3 877.084ZM1023.3 877.033L1024.3 877.035L1024.43 824.36L1023.43 824.358L1022.43 824.355L1022.3 877.03L1023.3 877.033ZM1023.43 824.358L1023.95 823.507C1022.35 822.516 1020.41 821.664 1018.14 820.941L1017.83 821.894L1017.53 822.847C1019.69 823.534 1021.47 824.325 1022.9 825.208L1023.43 824.358ZM1017.83 821.894L1018.14 820.941C1015.79 820.195 1012.94 819.832 1009.61 819.823L1009.61 820.823L1009.61 821.823C1012.81 821.831 1015.44 822.182 1017.53 822.847L1017.83 821.894ZM1009.61 820.823L1009.61 819.823C1002.97 819.807 997.456 821.855 993.151 826.015L993.846 826.734L994.541 827.453C998.423 823.701 1003.42 821.808 1009.61 821.823L1009.61 820.823ZM993.846 826.734L993.141 826.026C988.905 830.24 986.872 836.606 986.851 844.917L987.851 844.92L988.851 844.922C988.871 836.9 990.835 831.142 994.552 827.443L993.846 826.734ZM987.851 844.92L986.851 844.917C986.829 853.994 988.749 860.649 992.893 864.561L993.58 863.834L994.266 863.107C990.728 859.767 988.829 853.812 988.851 844.922L987.851 844.92ZM993.58 863.834L992.904 864.571C997.058 868.378 1002.14 870.28 1008.09 870.295L1008.09 869.295L1008.09 868.295C1002.61 868.281 998.017 866.543 994.255 863.097L993.58 863.834ZM1008.09 869.295L1008.09 870.295C1012.62 870.306 1016.37 869.542 1019.26 867.918L1018.77 867.046L1018.28 866.175C1015.8 867.571 1012.43 868.306 1008.09 868.295L1008.09 869.295ZM1018.77 867.046L1019.25 867.927C1022.11 866.386 1024.52 864.711 1026.47 862.895L1025.78 862.164L1025.1 861.432C1023.31 863.107 1021.04 864.687 1018.3 866.166L1018.77 867.046ZM1025.78 862.164L1024.78 862.201L1025.44 879.703L1026.44 879.665L1027.44 879.628L1026.78 862.126L1025.78 862.164ZM1026.44 879.665L1025.83 878.874C1023.84 880.411 1021.03 881.818 1017.36 883.072L1017.68 884.019L1018 884.965C1021.8 883.671 1024.83 882.176 1027.05 880.456L1026.44 879.665ZM1017.68 884.019L1017.35 883.075C1013.86 884.302 1009.61 884.924 1004.55 884.911L1004.55 885.911L1004.55 886.911C1009.76 886.924 1014.26 886.284 1018.01 884.962L1017.68 884.019ZM1023.62 889.458L1024.62 889.461L1024.66 872.311L1023.66 872.308L1022.66 872.306L1022.62 889.456L1023.62 889.458ZM1023.66 872.308L1023.66 873.308L1044.31 873.359L1044.31 872.359L1044.31 871.359L1023.66 871.308L1023.66 872.308ZM1044.31 872.359L1043.31 872.357L1043.26 890.207L1044.26 890.209L1045.26 890.212L1045.31 872.362L1044.31 872.359ZM1044.26 890.209L1043.26 890.207C1043.25 897.991 1041.46 904.176 1037.99 908.85L1038.79 909.446L1039.6 910.042C1043.38 904.934 1045.24 898.294 1045.26 890.212L1044.26 890.209ZM1038.79 909.446L1037.98 908.859C1034.48 913.692 1029.68 917.24 1023.54 919.496L1023.89 920.434L1024.23 921.373C1030.71 918.993 1035.85 915.215 1039.6 910.033L1038.79 909.446ZM1023.89 920.434L1023.54 919.498C1017.48 921.767 1010.66 922.901 1003.06 922.883L1003.06 923.883L1003.05 924.883C1010.85 924.902 1017.92 923.737 1024.24 921.371L1023.89 920.434ZM1003.06 923.883L1003.06 922.883C997.053 922.868 991.833 922.277 987.386 921.125L987.135 922.093L986.885 923.061C991.532 924.265 996.926 924.867 1003.05 924.883L1003.06 923.883ZM987.135 922.093L987.392 921.127C982.99 919.956 979.839 918.753 977.868 917.542L977.345 918.394L976.821 919.246C979.044 920.612 982.42 921.875 986.879 923.06L987.135 922.093ZM977.345 918.394L977.865 917.54C974.283 915.357 972.584 912.45 972.593 908.757L971.593 908.755L970.593 908.752C970.582 913.226 972.718 916.745 976.824 919.248L977.345 918.394ZM971.593 908.755L972.593 908.757C972.598 906.81 973.033 905.12 973.874 903.656L973.007 903.158L972.14 902.66C971.106 904.459 970.599 906.499 970.593 908.752L971.593 908.755ZM973.007 903.158L973.874 903.656C974.75 902.133 975.757 901.045 976.876 900.336L976.341 899.491L975.807 898.646C974.355 899.565 973.14 900.921 972.14 902.66L973.007 903.158ZM976.341 899.491L975.8 900.332C978.802 902.264 982.498 903.939 986.868 905.369L987.179 904.418L987.49 903.468C983.234 902.076 979.705 900.466 976.883 898.65L976.341 899.491ZM987.179 904.418L986.876 905.371C991.408 906.815 996.175 907.54 1001.17 907.553L1001.17 906.553L1001.18 905.553C996.373 905.541 991.81 904.844 987.483 903.465L987.179 904.418ZM1001.17 906.553L1001.17 907.553C1008.29 907.57 1014.01 906.163 1018.21 903.212L1017.63 902.394L1017.06 901.575C1013.31 904.205 1008.06 905.57 1001.18 905.553L1001.17 906.553ZM1017.63 902.394L1018.19 903.223C1022.51 900.319 1024.6 895.652 1024.62 889.461L1023.62 889.458L1022.62 889.456C1022.6 895.165 1020.71 899.121 1017.08 901.564L1017.63 902.394ZM1075.98 858.613L1074.99 858.668L1075.05 859.756L1076.12 859.603L1075.98 858.613ZM1075.15 843.561L1075 842.571L1074.1 842.704L1074.15 843.616L1075.15 843.561ZM1122.06 836.677L1122.21 837.666L1123.13 837.531L1123.06 836.601L1122.06 836.677ZM1117.02 825.114L1117.75 824.436L1117.75 824.436L1117.02 825.114ZM1088.84 826.445L1089.55 827.143L1089.56 827.133L1088.84 826.445ZM1082.67 844.104L1081.67 844.087L1081.67 844.123L1081.67 844.159L1082.67 844.104ZM1083.17 853.206L1082.17 853.261L1082.18 853.302L1082.18 853.342L1083.17 853.206ZM1091.71 869.677L1091.1 870.475L1091.11 870.482L1091.71 869.677ZM1123.37 872.905L1123.69 873.855L1123.7 873.851L1123.71 873.847L1123.37 872.905ZM1133.36 868.03L1133.9 867.19L1133.33 866.822L1132.78 867.215L1133.36 868.03ZM1137.2 872.064L1136.33 872.558L1136.35 872.596L1136.38 872.632L1137.2 872.064ZM1134.72 885.008L1135.33 885.797L1135.34 885.789L1135.35 885.781L1134.72 885.008ZM1084.31 886.634L1083.87 887.53L1083.88 887.534L1083.89 887.539L1084.31 886.634ZM1068.08 871.543L1067.21 872.042L1067.22 872.053L1068.08 871.543ZM1065.73 827.962L1066.66 828.346L1066.66 828.346L1065.73 827.962ZM1074.69 814.685L1075.37 815.416L1075.38 815.415L1074.69 814.685ZM1088.01 806.667L1088.34 807.612L1088.35 807.609L1088.36 807.606L1088.01 806.667ZM1123.88 808.681L1123.4 809.556L1123.41 809.562L1123.42 809.567L1123.88 808.681ZM1137.5 821.49L1136.64 822L1136.64 822.006L1136.65 822.013L1137.5 821.49ZM1139.89 847.746L1140.56 848.48L1140.57 848.479L1139.89 847.746ZM1132.88 850.529L1132.77 849.535L1132.75 849.537L1132.74 849.539L1132.88 850.529ZM1075.98 858.613L1076.98 858.557L1076.14 843.505L1075.15 843.561L1074.15 843.616L1074.99 858.668L1075.98 858.613ZM1075.15 843.561L1075.29 844.55L1122.21 837.666L1122.06 836.677L1121.92 835.687L1075 842.571L1075.15 843.561ZM1122.06 836.677L1123.06 836.601C1122.7 831.941 1120.93 827.875 1117.75 824.436L1117.02 825.114L1116.28 825.793C1119.15 828.902 1120.74 832.544 1121.07 836.753L1122.06 836.677ZM1117.02 825.114L1117.75 824.436C1114.48 820.899 1109.75 819.196 1103.73 819.181L1103.73 820.181L1103.73 821.181C1109.37 821.195 1113.5 822.781 1116.28 825.793L1117.02 825.114ZM1103.73 820.181L1103.73 819.181C1097.52 819.166 1092.29 821.36 1088.11 825.756L1088.84 826.445L1089.56 827.133C1093.34 823.149 1098.04 821.167 1103.73 821.181L1103.73 820.181ZM1088.84 826.445L1088.12 825.746C1083.91 830.058 1081.81 836.224 1081.67 844.087L1082.67 844.104L1083.67 844.122C1083.8 836.586 1085.81 830.978 1089.55 827.143L1088.84 826.445ZM1082.67 844.104L1081.67 844.159L1082.17 853.261L1083.17 853.206L1084.17 853.15L1083.67 844.049L1082.67 844.104ZM1083.17 853.206L1082.18 853.342C1083.24 860.995 1086.18 866.761 1091.1 870.475L1091.71 869.677L1092.31 868.878C1087.92 865.57 1085.17 860.355 1084.16 853.069L1083.17 853.206ZM1091.71 869.677L1091.11 870.482C1096.09 874.146 1102.32 875.953 1109.72 875.971L1109.72 874.971L1109.72 873.971C1102.65 873.954 1096.87 872.232 1092.3 868.871L1091.71 869.677ZM1109.72 874.971L1109.72 875.971C1114.71 875.984 1119.37 875.281 1123.69 873.855L1123.37 872.905L1123.06 871.956C1118.97 873.308 1114.52 873.983 1109.72 873.971L1109.72 874.971ZM1123.37 872.905L1123.71 873.847C1127.96 872.323 1131.38 870.661 1133.94 868.845L1133.36 868.03L1132.78 867.215C1130.43 868.887 1127.19 870.475 1123.04 871.964L1123.37 872.905ZM1133.36 868.03L1132.82 868.87C1134.32 869.839 1135.48 871.067 1136.33 872.558L1137.2 872.064L1138.07 871.57C1137.06 869.79 1135.66 868.328 1133.9 867.19L1133.36 868.03ZM1137.2 872.064L1136.38 872.632C1137.31 873.981 1137.77 875.475 1137.76 877.141L1138.76 877.143L1139.76 877.146C1139.77 875.078 1139.19 873.186 1138.02 871.497L1137.2 872.064ZM1138.76 877.143L1137.76 877.141C1137.76 879.83 1136.58 882.184 1134.08 884.236L1134.72 885.008L1135.35 885.781C1138.23 883.413 1139.75 880.523 1139.76 877.146L1138.76 877.143ZM1134.72 885.008L1134.1 884.219C1131.56 886.202 1128.08 887.779 1123.61 888.912L1123.86 889.881L1124.1 890.851C1128.74 889.673 1132.5 888.001 1135.33 885.797L1134.72 885.008ZM1123.86 889.881L1123.61 888.912C1119.16 890.043 1114.05 890.607 1108.28 890.593L1108.28 891.593L1108.27 892.593C1114.17 892.607 1119.45 892.031 1124.1 890.851L1123.86 889.881ZM1108.28 891.593L1108.28 890.593C1099.42 890.571 1091.58 888.941 1084.74 885.728L1084.31 886.634L1083.89 887.539C1091.03 890.894 1099.17 892.57 1108.27 892.593L1108.28 891.593ZM1084.31 886.634L1084.76 885.737C1078.06 882.423 1072.79 877.528 1068.94 871.033L1068.08 871.543L1067.22 872.053C1071.26 878.878 1076.82 884.043 1083.87 887.53L1084.31 886.634ZM1068.08 871.543L1068.94 871.044C1065.22 864.576 1063.34 856.472 1063.36 846.682L1062.36 846.679L1061.36 846.677C1061.34 856.719 1063.27 865.192 1067.21 872.042L1068.08 871.543ZM1062.36 846.679L1063.36 846.682C1063.38 839.667 1064.49 833.563 1066.66 828.346L1065.73 827.962L1064.81 827.578C1062.52 833.084 1061.38 839.458 1061.36 846.677L1062.36 846.679ZM1065.73 827.962L1066.66 828.346C1068.84 823.099 1071.75 818.797 1075.37 815.416L1074.69 814.685L1074.01 813.953C1070.15 817.554 1067.09 822.103 1064.81 827.578L1065.73 827.962ZM1074.69 814.685L1075.38 815.415C1079.13 811.904 1083.45 809.305 1088.34 807.612L1088.01 806.667L1087.69 805.722C1082.53 807.506 1077.97 810.251 1074.01 813.954L1074.69 814.685ZM1088.01 806.667L1088.36 807.606C1093.27 805.794 1098.4 804.893 1103.77 804.906L1103.77 803.906L1103.77 802.906C1098.17 802.893 1092.8 803.833 1087.67 805.729L1088.01 806.667ZM1103.77 803.906L1103.77 804.906C1111.33 804.925 1117.86 806.487 1123.4 809.556L1123.88 808.681L1124.37 807.807C1118.49 804.547 1111.61 802.926 1103.77 802.906L1103.77 803.906ZM1123.88 808.681L1123.42 809.567C1129.09 812.532 1133.48 816.673 1136.64 822L1137.5 821.49L1138.36 820.98C1135.01 815.324 1130.33 810.926 1124.35 807.795L1123.88 808.681ZM1137.5 821.49L1136.65 822.013C1139.91 827.33 1141.55 833.449 1141.53 840.4L1142.53 840.402L1143.53 840.405C1143.55 833.123 1141.83 826.633 1138.35 820.967L1137.5 821.49ZM1142.53 840.402L1141.53 840.4C1141.52 843.494 1140.69 845.634 1139.21 847.013L1139.89 847.746L1140.57 848.479C1142.59 846.6 1143.52 843.844 1143.53 840.405L1142.53 840.402ZM1139.89 847.746L1139.21 847.011C1137.77 848.335 1135.67 849.208 1132.77 849.535L1132.88 850.529L1132.99 851.522C1136.16 851.165 1138.72 850.182 1140.56 848.48L1139.89 847.746ZM1132.88 850.529L1132.74 849.539L1075.84 857.623L1075.98 858.613L1076.12 859.603L1133.02 851.519L1132.88 850.529Z" fill="#F0F4F8" mask="url(#path-5-outside-2_344_380)"/>
</g>
<defs>
<clipPath id="clip0_344_380">
<rect width="1440" height="1024" fill="white" transform="translate(1.06543) rotate(0.0596209)"/>
</clipPath>
</defs>
</svg>
